{"glyphs":{"0":{"ha":794,"x_min":68,"x_max":726,"o":"m 726 497 q 708 282 726 376 q 651 122 690 188 q 548 21 611 56 q 396 -14 485 -14 q 212 47 285 -14 q 103 223 139 108 q 68 497 68 338 q 101 772 68 658 q 206 947 133 886 q 396 1007 278 1007 q 581 947 507 1007 q 690 772 654 886 q 726 497 726 658 m 190 497 q 210 271 190 361 q 276 135 231 181 q 396 90 321 90 q 516 135 471 90 q 582 270 561 179 q 603 497 603 361 q 582 723 603 633 q 516 858 561 813 q 396 903 471 903 q 276 858 321 903 q 210 723 231 813 q 190 497 190 633 z "},"1":{"ha":794,"x_min":124,"x_max":493,"o":"m 493 0 l 374 0 l 374 693 q 374 761 374 733 q 376 813 375 789 q 379 864 378 838 q 339 826 357 842 q 293 788 321 811 l 188 701 l 124 783 l 392 992 l 493 992 l 493 0 z "},"2":{"ha":794,"x_min":67,"x_max":722,"o":"m 722 0 l 67 0 l 67 101 l 326 364 q 453 497 401 439 q 531 612 504 556 q 557 735 557 668 q 508 859 557 817 q 382 901 460 901 q 255 876 310 901 q 143 807 200 851 l 78 889 q 163 949 117 922 q 265 990 210 975 q 382 1006 319 1006 q 542 974 475 1006 q 645 883 608 942 q 682 742 682 824 q 650 596 682 664 q 561 462 618 528 q 428 321 504 396 l 221 117 l 221 111 l 722 111 l 722 0 z "},"3":{"ha":794,"x_min":63,"x_max":715,"o":"m 685 760 q 660 644 685 693 q 588 565 635 596 q 479 522 542 535 l 479 517 q 657 442 599 503 q 715 282 715 381 q 675 128 715 196 q 551 24 635 61 q 335 -14 467 -14 q 190 -2 257 -14 q 63 40 124 10 l 63 154 q 197 106 125 124 q 336 89 269 89 q 528 141 469 89 q 588 285 588 193 q 555 385 588 347 q 460 442 522 424 q 310 460 397 460 l 214 460 l 214 564 l 311 564 q 448 588 393 564 q 531 653 503 611 q 560 751 560 696 q 511 863 560 824 q 379 903 463 903 q 283 892 326 903 q 203 863 240 882 q 129 819 167 844 l 68 903 q 199 975 121 944 q 378 1006 278 1006 q 609 936 533 1006 q 685 760 685 867 z "},"4":{"ha":794,"x_min":29,"x_max":767,"o":"m 767 225 l 622 225 l 622 0 l 504 0 l 504 225 l 29 225 l 29 329 l 496 997 l 622 997 l 622 335 l 767 335 l 767 225 m 504 647 q 505 713 504 683 q 507 769 506 743 q 509 820 508 796 q 511 867 510 844 l 506 867 q 478 810 494 840 q 446 758 461 779 l 149 335 l 504 335 l 504 647 z "},"5":{"ha":794,"x_min":88,"x_max":715,"o":"m 382 608 q 558 574 483 608 q 674 474 633 539 q 715 317 715 410 q 671 140 715 214 q 544 26 626 65 q 344 -14 461 -14 q 201 0 268 -14 q 88 40 133 14 l 88 156 q 209 108 138 125 q 346 90 281 90 q 474 113 419 90 q 560 184 529 136 q 590 304 590 232 q 531 453 590 401 q 342 506 471 506 q 253 499 303 506 q 172 485 203 492 l 111 524 l 149 992 l 646 992 l 646 881 l 253 881 l 229 593 q 293 603 253 597 q 382 608 333 608 z "},"6":{"ha":794,"x_min":76,"x_max":729,"o":"m 76 424 q 88 593 76 510 q 129 751 100 676 q 210 883 158 825 q 340 973 261 940 q 531 1006 418 1006 q 595 1003 560 1006 q 653 993 631 1000 l 653 889 q 597 901 628 897 q 533 906 565 906 q 374 874 438 906 q 273 786 310 842 q 219 658 236 731 q 199 504 203 586 l 207 504 q 260 564 228 538 q 337 606 292 590 q 442 621 382 621 q 592 585 528 621 q 693 483 657 550 q 729 319 729 415 q 690 142 729 217 q 581 26 651 67 q 414 -14 511 -14 q 282 13 343 -14 q 174 93 221 39 q 102 230 128 147 q 76 424 76 313 m 413 89 q 554 145 500 89 q 608 319 608 201 q 560 469 608 414 q 417 525 513 525 q 303 498 351 525 q 227 429 254 471 q 200 343 200 388 q 213 253 200 297 q 253 171 226 208 q 320 111 281 133 q 413 89 360 89 z "},"7":{"ha":794,"x_min":61,"x_max":726,"o":"m 189 0 l 596 881 l 61 881 l 61 992 l 726 992 l 726 897 l 324 0 l 189 0 z "},"8":{"ha":794,"x_min":68,"x_max":725,"o":"m 396 1006 q 610 944 526 1006 q 693 768 693 883 q 667 664 693 708 q 599 585 642 619 q 504 525 556 551 q 615 459 565 496 q 695 374 665 422 q 725 257 725 325 q 685 113 725 174 q 572 19 644 53 q 400 -14 499 -14 q 219 18 293 -14 q 106 109 144 50 q 68 253 68 168 q 97 371 68 321 q 172 457 125 421 q 274 518 219 493 q 185 581 225 546 q 123 663 146 617 q 100 769 100 708 q 139 898 100 846 q 244 978 178 950 q 396 1006 311 1006 m 188 251 q 239 131 188 179 q 397 83 290 83 q 552 131 499 83 q 606 256 606 179 q 580 341 606 304 q 508 407 554 378 q 397 460 461 436 l 375 468 q 272 411 314 442 q 209 342 231 381 q 188 251 188 303 m 394 907 q 269 870 318 907 q 219 764 219 833 q 244 678 219 713 q 310 619 268 643 q 401 572 351 594 q 488 618 450 593 q 549 678 526 643 q 572 764 572 714 q 524 870 572 833 q 394 907 475 907 z "},"9":{"ha":794,"x_min":69,"x_max":722,"o":"m 722 568 q 703 358 722 461 q 635 170 685 254 q 497 36 586 86 q 267 -14 407 -14 q 202 -10 239 -14 q 142 0 165 -7 l 142 104 q 200 91 167 96 q 264 86 233 86 q 424 118 361 86 q 525 205 488 150 q 579 333 563 260 q 599 486 596 406 l 590 486 q 538 428 569 454 q 460 386 506 401 q 354 371 415 371 q 205 406 269 371 q 105 508 140 442 q 69 671 69 575 q 109 850 69 775 q 219 965 149 925 q 386 1006 290 1006 q 518 978 457 1006 q 625 897 579 951 q 697 761 671 843 q 722 568 722 679 m 386 903 q 245 846 300 903 q 190 672 190 789 q 237 522 190 576 q 381 467 283 467 q 496 494 447 467 q 572 563 544 521 q 599 649 599 604 q 585 738 599 693 q 546 821 572 783 q 479 881 519 858 q 386 903 439 903 z "},"Ჽ":{"ha":810,"x_min":76,"x_max":733,"o":"m 406 -12 q 235 17 310 -12 q 119 107 161 47 q 76 258 76 167 q 78 288 76 274 q 83 314 81 301 l 213 314 q 210 290 211 303 q 208 261 208 276 q 234 167 208 204 q 305 111 260 129 q 406 93 350 93 q 549 139 496 93 q 601 261 601 185 q 572 348 601 314 q 493 406 542 382 q 389 450 444 429 q 288 492 339 469 q 195 549 238 515 q 128 630 153 582 q 103 747 103 678 q 142 887 103 829 q 249 975 181 944 q 404 1006 317 1006 q 567 974 500 1006 q 670 888 635 943 q 706 763 706 833 q 705 743 706 753 q 701 724 704 733 l 576 724 q 578 740 578 731 q 579 756 579 749 q 537 860 579 821 q 404 899 494 899 q 283 860 332 899 q 233 747 233 822 q 265 656 233 692 q 346 597 296 621 q 453 551 396 574 q 553 510 503 532 q 644 456 603 488 q 709 377 685 424 q 733 263 733 331 q 690 117 733 179 q 574 22 647 56 q 406 -12 500 -12 z "},"Ⴭ":{"ha":794,"x_min":53,"x_max":740,"o":"m 53 0 l 53 94 l 575 881 l 69 881 l 69 992 l 726 992 l 726 897 l 204 111 l 740 111 l 740 0 l 53 0 z "},"Ჺ":{"ha":765,"x_min":85,"x_max":706,"o":"m 167 -7 l 167 121 l 374 203 l 374 207 q 227 267 293 219 q 123 397 161 314 q 85 594 85 479 q 113 766 85 690 q 191 895 140 842 q 313 977 242 949 q 472 1006 385 1006 q 599 991 538 1006 q 706 953 660 976 l 657 849 q 572 883 617 868 q 471 897 528 897 q 365 876 411 897 q 285 816 318 856 q 234 720 251 776 q 217 593 217 664 q 247 428 217 496 q 335 326 278 361 q 469 290 392 290 q 575 300 531 290 q 672 336 619 310 l 672 210 l 167 -7 z "},"Ა":{"ha":836,"x_min":76,"x_max":751,"o":"m 413 -12 q 237 27 313 -12 q 119 139 161 67 q 76 306 76 211 q 81 388 76 347 q 108 489 85 429 l 236 489 q 211 392 217 436 q 206 317 206 349 q 258 159 206 222 q 413 96 310 96 q 531 127 486 96 q 598 213 576 158 q 619 335 619 267 q 602 459 619 404 q 556 559 585 514 q 496 644 528 604 q 422 747 457 696 q 369 857 388 797 q 358 992 350 917 l 483 992 q 496 883 479 932 q 542 792 513 835 q 606 703 572 749 q 675 603 642 657 q 730 483 708 550 q 751 329 751 417 q 710 149 751 226 q 594 30 669 72 q 413 -12 518 -12 z "},"Ⴀ":{"ha":876,"x_min":85,"x_max":806,"o":"m 550 -14 q 306 44 411 -14 q 143 207 201 101 q 85 456 85 313 q 118 642 85 558 q 209 788 151 726 q 339 885 267 850 l 339 889 l 110 889 l 110 992 l 806 992 l 806 883 l 631 883 q 408 832 500 883 q 266 688 315 781 q 217 471 217 594 q 257 267 217 351 q 376 140 297 183 q 568 96 454 96 q 692 107 633 96 q 806 135 750 118 l 806 26 q 691 -4 750 6 q 550 -14 632 -14 z "},"Ბ":{"ha":871,"x_min":85,"x_max":786,"o":"m 433 -12 q 302 12 365 -12 q 190 83 239 36 q 113 197 142 129 q 85 353 85 265 q 132 550 85 469 q 259 673 179 631 q 438 715 339 715 q 610 673 531 715 q 738 549 689 631 q 786 353 786 468 q 759 197 786 265 q 683 83 732 129 q 571 12 635 36 q 433 -12 507 -12 m 436 96 q 550 127 501 96 q 626 216 599 158 q 654 353 654 274 q 626 490 654 433 q 549 576 599 546 q 435 607 500 607 q 277 540 338 607 q 217 353 217 472 q 244 217 217 275 q 321 127 271 158 q 436 96 371 96 m 504 689 l 389 697 q 406 728 400 711 q 413 765 413 744 q 394 815 413 796 q 354 849 375 835 q 316 882 335 863 q 287 928 297 901 q 281 992 276 956 l 406 992 q 420 942 404 961 q 458 907 436 924 q 513 856 490 885 q 536 785 536 826 q 528 732 536 756 q 504 689 519 708 z "},"Ⴁ":{"ha":1079,"x_min":78,"x_max":1065,"o":"m 681 0 l 681 336 q 683 369 681 344 q 688 433 685 394 l 681 433 q 563 335 640 372 q 397 299 486 299 q 224 340 296 299 q 115 461 153 382 q 78 653 78 540 q 103 825 78 740 q 181 992 129 910 l 326 992 q 267 899 293 954 q 225 779 240 843 q 210 651 210 715 q 232 520 210 575 q 300 436 254 465 q 417 407 346 407 q 567 438 508 407 q 653 534 625 468 q 682 704 682 600 l 682 992 l 807 992 l 807 108 l 1065 108 l 1065 0 l 681 0 z "},"\r":{"ha":361,"x_min":0,"x_max":0,"o":""},"Ც":{"ha":972,"x_min":85,"x_max":896,"o":"m 513 -12 q 322 22 403 -12 q 188 124 240 57 q 110 288 136 190 q 85 511 85 385 q 100 690 85 603 q 142 853 115 776 q 200 992 168 931 l 328 992 q 272 852 297 929 q 231 689 246 775 q 217 513 217 603 q 246 288 217 382 q 340 145 275 194 q 515 96 406 96 q 700 147 636 96 q 764 301 764 199 q 739 397 764 353 q 663 467 714 440 q 532 493 613 493 l 468 493 l 468 601 l 561 601 q 663 614 622 601 q 725 651 704 626 q 746 707 746 675 q 723 772 746 744 q 671 821 700 799 q 625 863 647 840 q 589 916 603 885 q 576 992 575 947 l 704 992 q 726 932 704 956 q 778 885 749 908 q 844 817 813 857 q 875 719 875 778 q 855 633 875 668 q 797 578 835 599 q 703 549 758 558 l 703 543 q 801 504 758 535 q 870 420 844 474 q 896 285 896 367 q 850 130 896 197 q 719 25 804 63 q 513 -12 633 -12 z "},"Ⴚ":{"ha":978,"x_min":85,"x_max":888,"o":"m 501 -14 q 278 48 371 -14 q 135 224 185 110 q 85 497 85 339 q 142 767 85 653 q 307 943 200 881 q 561 1006 414 1006 q 708 991 639 1006 q 835 947 776 976 l 785 842 q 669 883 725 869 q 560 896 613 896 q 376 847 453 896 q 258 709 299 799 q 217 496 217 619 q 253 282 217 372 q 359 144 290 192 q 521 96 428 96 q 642 112 582 96 q 763 158 703 128 l 763 410 l 888 410 l 888 0 l 763 0 l 763 49 q 639 2 704 18 q 501 -14 574 -14 z "},"Ჭ":{"ha":867,"x_min":76,"x_max":782,"o":"m 449 -14 q 273 23 349 -14 q 155 123 197 60 q 113 265 113 186 q 114 290 113 276 q 121 326 115 304 l 247 326 q 244 298 244 308 q 243 279 243 288 q 297 144 243 194 q 449 94 351 94 q 567 122 522 94 q 631 194 611 149 q 651 292 651 239 q 643 356 651 328 q 621 408 635 385 q 591 454 607 432 q 560 500 575 476 q 533 553 544 524 l 529 553 q 467 488 504 513 q 388 451 431 463 q 296 440 344 440 q 195 463 246 440 q 110 531 144 486 q 76 643 76 576 q 112 754 76 710 q 203 821 147 799 q 324 843 260 843 l 471 843 l 471 992 l 596 992 l 596 843 l 731 843 l 731 738 l 596 738 l 596 700 q 615 624 596 660 q 661 553 633 589 q 717 479 689 518 q 763 393 744 440 q 782 288 782 346 q 743 131 782 199 q 630 24 704 63 q 449 -14 556 -14 m 333 544 q 437 580 403 544 q 471 663 471 615 l 471 739 l 338 739 q 237 713 271 739 q 203 643 203 686 q 240 570 203 596 q 333 544 276 544 z "},"Ⴝ":{"ha":800,"x_min":63,"x_max":719,"o":"m 392 -14 q 149 56 235 -14 q 63 249 63 126 q 65 288 63 269 q 72 325 68 307 l 197 325 q 190 290 192 308 q 188 251 188 272 q 238 137 188 179 q 393 94 289 94 q 546 137 497 94 q 594 254 594 179 q 566 344 594 310 q 485 406 538 379 q 361 458 433 432 q 244 513 293 483 q 165 578 194 543 q 120 657 135 614 q 106 753 106 700 q 144 887 106 831 q 253 974 183 943 q 413 1006 322 1006 q 567 976 504 1006 q 663 892 631 946 q 696 767 696 839 q 695 749 696 758 q 693 733 694 740 l 568 733 q 570 749 569 740 q 571 765 571 757 q 552 833 571 804 q 497 879 533 863 q 410 896 461 896 q 281 858 329 896 q 232 751 232 819 q 258 662 232 696 q 332 603 283 628 q 449 551 381 578 q 597 482 536 519 q 688 392 657 444 q 719 261 719 340 q 634 60 719 135 q 392 -14 549 -14 z "},"Ჩ":{"ha":858,"x_min":115,"x_max":774,"o":"m 115 0 l 115 746 q 147 883 115 825 q 240 974 179 942 q 388 1006 301 1006 q 573 954 500 1006 q 646 810 646 903 q 627 730 646 767 q 561 667 608 693 l 561 663 q 721 551 668 636 q 774 346 774 467 q 765 214 774 281 q 742 91 756 147 q 711 0 728 35 l 583 0 q 614 94 601 40 q 634 212 626 147 q 642 346 642 276 q 592 517 642 453 q 453 581 543 581 q 341 552 389 581 q 267 470 293 524 q 240 339 240 417 l 240 0 l 115 0 m 233 567 l 242 567 q 301 628 265 601 q 383 672 336 654 q 453 706 422 689 q 503 746 485 722 q 521 803 521 769 q 484 876 521 850 q 386 901 447 901 q 281 863 321 901 q 240 756 240 824 l 240 653 q 240 627 240 642 q 238 597 239 613 q 233 567 236 582 z "},"Ⴙ":{"ha":951,"x_min":136,"x_max":829,"o":"m 136 0 l 136 992 l 261 992 l 261 622 l 829 622 l 829 0 l 704 0 l 704 514 l 261 514 l 261 0 l 136 0 z "},"Წ":{"ha":885,"x_min":115,"x_max":825,"o":"m 450 -14 q 202 78 289 -14 q 115 347 115 169 l 115 783 q 147 908 115 860 q 230 981 178 957 q 343 1006 282 1006 q 445 984 393 1006 q 525 903 497 963 l 529 903 q 600 983 556 961 q 689 1006 644 1006 q 763 997 728 1006 q 825 976 799 989 l 788 882 q 742 896 765 890 q 692 901 719 901 q 620 875 651 901 q 589 800 589 849 l 589 760 l 465 760 l 465 800 q 436 876 465 849 q 358 904 407 904 q 297 890 324 904 q 256 848 271 875 q 240 782 240 821 l 240 686 q 238 636 240 663 q 232 594 235 610 l 240 594 q 297 647 264 624 q 375 685 331 671 q 476 700 419 700 q 708 609 621 700 q 796 347 796 518 q 753 149 796 229 q 632 27 710 68 q 450 -14 554 -14 m 450 92 q 612 159 560 92 q 664 344 664 226 q 612 525 664 456 q 457 594 560 594 q 326 561 374 594 q 259 472 279 528 q 239 347 239 415 l 239 326 q 260 203 239 257 q 328 121 282 150 q 450 92 375 92 z "},"Ⴜ":{"ha":842,"x_min":136,"x_max":771,"o":"m 136 0 l 136 992 l 399 992 q 678 921 585 992 q 771 710 771 850 q 725 544 771 613 q 591 441 679 476 q 375 406 503 406 l 261 406 l 261 289 l 590 289 l 590 69 l 471 69 l 471 182 l 261 182 l 261 0 l 136 0 m 261 513 l 361 513 q 522 533 460 513 q 613 595 583 553 q 642 704 642 638 q 580 840 642 794 q 388 885 518 885 l 261 885 l 261 513 z "},"Დ":{"ha":1283,"x_min":85,"x_max":1199,"o":"m 800 0 q 762 64 792 36 q 688 110 732 92 q 593 139 644 129 q 490 149 542 149 q 372 136 429 149 q 269 99 314 124 l 224 188 q 290 215 253 203 q 388 231 328 228 l 388 235 q 225 331 293 269 q 121 476 157 392 q 85 664 85 561 q 117 838 85 761 q 213 960 149 915 q 372 1006 278 1006 q 479 989 432 1006 q 560 940 526 972 q 608 858 593 907 l 615 858 q 673 938 635 906 q 762 988 711 971 q 869 1006 813 1006 q 1044 964 969 1006 q 1158 846 1118 922 q 1199 667 1199 769 q 1174 527 1199 589 q 1106 422 1150 465 q 1001 354 1061 378 q 871 331 942 331 q 735 353 796 331 q 631 421 674 376 q 565 527 588 465 q 542 665 542 589 l 542 710 q 522 814 542 772 q 465 876 501 856 q 379 897 428 897 q 291 869 328 897 q 235 790 254 842 q 215 665 215 738 q 250 490 215 561 q 342 374 285 419 q 470 299 399 328 q 614 250 542 271 q 723 214 671 233 q 817 166 775 194 q 885 97 858 138 q 918 0 913 57 l 800 0 m 868 438 q 980 467 936 438 q 1045 549 1024 497 q 1067 667 1067 600 q 1046 785 1067 733 q 981 867 1025 838 q 869 896 938 896 q 759 867 803 896 q 694 785 715 838 q 674 667 674 733 q 694 549 674 601 q 758 467 715 497 q 868 438 801 438 z "},"Ⴃ":{"ha":1060,"x_min":85,"x_max":975,"o":"m 528 -14 q 291 35 390 -14 q 138 176 192 85 q 85 390 85 267 q 131 592 85 506 q 264 732 178 679 q 468 794 350 785 l 468 882 l 131 882 l 131 992 l 929 992 l 929 882 l 593 882 l 593 794 q 799 733 714 785 q 930 594 885 682 q 975 390 975 507 q 922 174 975 264 q 769 35 869 83 q 528 -14 669 -14 m 528 96 q 699 130 629 96 q 806 230 769 164 q 843 392 843 296 q 806 553 843 488 q 700 654 769 619 q 529 689 631 689 q 360 655 429 689 q 253 555 290 621 q 217 392 217 489 q 253 230 217 296 q 358 130 289 164 q 528 96 428 96 z "},"Ჸ":{"ha":868,"x_min":115,"x_max":783,"o":"m 447 -14 q 266 26 340 -14 q 153 140 192 65 q 115 322 115 215 l 115 992 l 240 992 l 240 796 q 266 676 240 725 q 342 600 292 626 q 467 574 393 574 q 565 598 524 574 q 628 667 606 622 q 650 775 650 713 q 637 894 650 846 q 603 992 624 943 l 731 992 q 768 892 754 947 q 782 774 782 836 q 747 606 782 675 q 644 502 711 538 q 485 467 578 467 q 342 496 407 467 q 240 576 276 525 l 235 576 q 238 541 238 560 q 240 503 239 522 q 240 468 240 485 l 240 326 q 261 204 240 257 q 328 123 282 151 q 447 94 374 94 q 599 146 544 94 q 653 293 653 197 q 650 338 653 314 q 640 388 647 361 l 767 388 q 779 333 775 360 q 783 279 783 306 q 741 127 783 193 q 623 24 699 61 q 447 -14 547 -14 z "},"Ე":{"ha":864,"x_min":76,"x_max":749,"o":"m 413 -12 q 237 26 313 -12 q 119 132 161 64 q 76 292 76 200 q 82 358 76 328 q 96 411 88 389 l 218 411 q 209 360 213 390 q 206 303 206 329 q 228 197 206 243 q 298 123 251 150 q 413 96 344 96 q 534 124 488 96 q 602 202 581 151 q 624 321 624 253 l 624 710 q 573 847 624 797 q 436 897 522 897 q 338 879 381 897 q 271 825 294 861 q 247 732 247 789 q 250 684 247 708 q 257 636 253 660 l 132 636 q 124 681 128 654 q 119 735 119 708 q 162 886 119 826 q 276 976 204 946 q 436 1006 347 1006 q 597 971 526 1006 q 708 872 668 936 q 749 714 749 807 l 749 315 q 709 138 749 211 q 594 26 669 64 q 413 -12 519 -12 z "},"Ⴄ":{"ha":892,"x_min":106,"x_max":756,"o":"m 631 0 l 631 883 l 231 883 l 231 542 l 106 542 l 106 992 l 756 992 l 756 0 l 631 0 z "},"Ჶ":{"ha":1143,"x_min":85,"x_max":1058,"o":"m 633 1006 l 633 883 q 888 831 794 881 q 1019 698 981 781 q 1058 514 1058 615 q 1038 381 1058 447 q 969 262 1018 315 q 839 175 921 208 q 633 139 757 142 l 633 -14 l 510 -14 l 510 139 q 301 176 383 142 q 171 265 218 210 q 104 385 124 319 q 85 514 85 450 q 106 653 85 588 q 177 770 128 719 q 308 851 226 821 q 510 883 390 882 l 510 1006 l 633 1006 m 510 778 q 333 742 399 775 q 239 651 267 708 q 211 515 211 593 q 242 373 211 433 q 340 279 274 313 q 510 242 406 246 l 510 778 m 633 778 l 633 242 q 806 281 740 246 q 902 376 872 315 q 932 515 932 436 q 904 652 932 594 q 811 742 876 710 q 633 778 746 775 z "},"Გ":{"ha":854,"x_min":76,"x_max":778,"o":"m 425 -12 q 294 12 357 -12 q 182 81 231 36 q 105 192 133 126 q 76 338 76 257 q 119 522 76 447 q 238 637 163 596 q 407 686 313 678 q 526 722 489 693 q 564 801 564 751 q 526 877 564 849 q 428 906 489 906 q 326 875 364 906 q 289 793 289 844 q 290 776 289 785 q 293 756 292 767 l 167 756 q 162 784 164 771 q 160 811 160 797 q 195 913 160 869 q 291 981 231 957 q 428 1006 351 1006 q 564 981 504 1006 q 658 910 624 956 q 693 803 693 864 q 665 705 693 747 q 576 642 638 663 l 576 638 q 719 540 660 614 q 778 338 778 465 q 751 192 778 257 q 675 81 724 126 q 563 12 626 36 q 425 -12 499 -12 m 428 96 q 542 127 493 96 q 618 213 590 158 q 646 338 646 267 q 618 469 646 415 q 541 551 590 524 q 426 579 492 579 q 312 551 361 579 q 235 469 263 522 q 208 338 208 415 q 235 213 208 268 q 313 127 263 158 q 428 96 363 96 z "},"Ⴂ":{"ha":1029,"x_min":106,"x_max":1015,"o":"m 631 0 l 631 883 l 231 883 l 231 542 l 106 542 l 106 992 l 756 992 l 756 108 l 1015 108 l 1015 0 l 631 0 z "},"Ჹ":{"ha":854,"x_min":76,"x_max":778,"o":"m 429 1004 q 561 980 499 1004 q 672 910 624 956 q 749 801 721 865 q 778 654 778 736 q 735 470 778 544 q 617 356 692 396 q 447 306 543 315 q 328 269 365 299 q 290 190 290 240 q 328 115 290 143 q 426 86 365 86 q 528 117 492 86 q 565 199 565 147 q 565 217 565 207 q 561 236 564 226 l 688 236 q 692 208 690 222 q 694 181 694 194 q 659 78 694 122 q 563 10 624 35 q 426 -14 503 -14 q 290 11 350 -14 q 196 82 231 36 q 161 189 161 128 q 189 288 161 246 q 278 350 217 329 l 278 354 q 135 453 194 378 q 76 654 76 528 q 103 801 76 736 q 179 910 131 865 q 292 980 228 956 q 429 1004 356 1004 m 426 896 q 313 865 363 896 q 236 780 264 835 q 208 654 208 725 q 236 522 208 576 q 313 440 264 468 q 428 413 363 413 q 542 441 493 413 q 619 524 592 469 q 646 654 646 578 q 619 779 646 725 q 542 865 592 833 q 426 896 493 896 z "},"Ღ":{"ha":1175,"x_min":85,"x_max":1090,"o":"m 744 0 q 693 97 735 60 q 591 151 651 133 q 463 169 531 169 q 344 157 401 169 q 242 119 286 144 l 196 208 q 263 236 225 224 q 360 251 300 249 l 360 256 q 210 346 271 290 q 117 479 149 401 q 85 656 85 557 q 117 836 85 758 q 215 958 150 914 q 376 1001 281 1001 q 510 968 458 1001 q 583 876 561 935 l 590 876 q 669 969 615 938 q 797 1001 722 1001 q 959 958 894 1001 q 1057 836 1024 914 q 1090 656 1090 758 q 1071 501 1090 575 q 1011 358 1051 428 l 900 400 q 947 523 933 463 q 960 656 960 583 q 940 785 960 732 q 881 867 919 839 q 786 896 843 896 q 712 876 743 896 q 665 821 681 857 q 649 733 649 785 l 649 531 l 525 531 l 525 733 q 510 817 525 781 q 465 875 496 854 q 386 896 435 896 q 260 836 304 896 q 215 661 215 776 q 246 492 215 558 q 328 385 276 425 q 447 319 381 344 q 586 271 514 293 q 715 215 656 250 q 815 128 775 181 q 863 0 856 75 l 744 0 z "},"Ⴖ":{"ha":1022,"x_min":129,"x_max":893,"o":"m 129 0 l 129 642 q 176 837 129 756 q 308 962 222 918 q 515 1006 394 1006 q 794 908 696 1006 q 893 639 893 810 l 893 0 l 768 0 l 768 643 q 702 832 768 767 q 508 897 636 897 q 369 868 426 897 q 283 782 313 839 q 253 642 253 725 l 253 0 l 129 0 z "},"Ჰ":{"ha":831,"x_min":74,"x_max":746,"o":"m 410 -14 q 227 21 303 -14 q 113 110 151 56 q 74 228 74 165 q 76 256 74 242 q 81 285 78 271 l 203 285 q 201 267 201 278 q 200 247 200 256 q 221 171 200 207 q 288 113 242 135 q 408 92 333 92 q 565 127 517 92 q 614 208 614 163 q 572 294 614 258 q 422 329 529 329 l 346 329 l 346 435 l 467 435 q 562 453 525 435 q 599 518 599 471 q 561 581 599 563 q 467 599 524 599 l 346 599 l 346 703 l 465 703 q 550 724 531 703 q 569 767 569 744 q 537 812 569 797 q 461 840 504 826 q 392 869 426 851 q 337 915 358 886 q 317 992 315 944 l 444 992 q 478 949 447 965 q 560 915 508 933 q 627 888 594 904 q 681 844 660 871 q 703 775 703 818 q 692 722 703 747 q 654 680 681 697 q 583 657 628 663 l 583 653 q 651 636 618 651 q 708 592 685 621 q 731 518 731 564 q 687 418 731 447 q 585 382 643 389 l 585 378 q 669 348 633 371 q 726 289 706 325 q 746 204 746 253 q 702 92 746 142 q 583 15 658 43 q 410 -14 507 -14 z "},"Ⴠ":{"ha":1324,"x_min":106,"x_max":1246,"o":"m 910 -14 q 731 29 806 -14 q 615 153 656 72 q 575 350 575 235 l 575 883 l 231 883 l 231 542 l 106 542 l 106 992 l 700 992 l 700 350 q 755 158 700 222 q 911 94 810 94 q 1024 126 978 94 q 1092 211 1069 158 q 1115 325 1115 264 q 1103 417 1115 369 q 1063 508 1090 465 l 1169 553 q 1227 443 1208 499 q 1246 322 1246 388 q 1206 151 1246 228 q 1090 31 1165 75 q 910 -14 1014 -14 z "},"Ჴ":{"ha":825,"x_min":76,"x_max":749,"o":"m 413 -14 q 230 21 306 -14 q 115 110 154 56 q 76 228 76 165 q 78 256 76 242 q 83 285 81 271 l 206 285 q 203 267 204 278 q 203 247 203 256 q 224 171 203 207 q 290 113 244 135 q 411 92 336 92 q 568 127 519 92 q 617 208 617 163 q 574 294 617 258 q 425 329 532 329 l 349 329 l 349 435 l 469 435 q 565 452 528 435 q 601 513 601 469 q 578 563 601 544 q 519 594 556 582 q 439 619 482 607 q 355 647 397 632 q 277 686 313 663 q 220 745 242 710 q 199 833 199 781 q 231 924 199 885 q 319 984 263 963 q 450 1006 376 1006 q 554 993 503 1006 q 657 949 606 981 l 613 853 q 532 889 572 876 q 451 901 492 901 q 356 883 392 901 q 321 833 321 864 q 342 783 321 801 q 401 753 363 765 q 489 725 439 740 q 575 698 532 713 q 654 661 618 683 q 712 605 690 639 q 733 521 733 571 q 690 424 733 457 q 588 382 647 392 l 588 378 q 672 348 636 371 q 728 289 708 325 q 749 204 749 253 q 705 92 749 142 q 585 15 661 43 q 413 -14 510 -14 z "},"Ⴤ":{"ha":972,"x_min":104,"x_max":868,"o":"m 424 0 l 424 336 q 187 449 269 353 q 104 700 104 544 l 104 992 l 229 992 l 229 696 q 294 508 229 574 q 489 442 358 442 q 678 508 613 442 q 744 697 744 575 l 744 992 l 868 992 l 868 697 q 831 519 868 596 q 722 397 793 443 q 549 338 651 350 l 549 0 l 424 0 z "},"Ჾ":{"ha":869,"x_min":85,"x_max":785,"o":"m 126 992 q 286 967 208 988 q 435 913 364 946 q 584 967 506 946 q 743 992 663 988 l 743 883 q 646 872 694 882 q 550 844 597 863 l 550 842 q 674 719 621 789 q 756 561 726 649 q 785 371 785 474 q 738 158 785 244 q 611 29 690 72 q 435 -14 532 -14 q 258 29 338 -14 q 132 158 179 72 q 85 371 85 244 q 115 561 85 474 q 197 719 144 649 q 319 842 250 789 l 319 844 q 224 872 272 863 q 126 883 175 882 l 126 992 m 435 792 q 323 688 372 750 q 245 546 274 625 q 217 371 217 467 q 277 165 217 236 q 435 94 338 94 q 593 165 533 94 q 653 371 653 236 q 624 546 653 467 q 547 688 596 625 q 435 792 499 750 z "},"Ჱ":{"ha":976,"x_min":85,"x_max":892,"o":"m 538 -14 q 283 49 383 -14 q 133 231 182 111 q 85 521 85 350 q 101 689 85 604 q 144 851 117 774 q 206 992 171 929 l 333 992 q 272 850 300 928 q 228 688 244 772 q 213 522 213 604 q 244 291 213 388 q 348 143 276 194 q 539 92 419 92 q 699 124 639 92 q 760 210 760 156 q 720 294 760 258 q 583 331 681 331 l 492 331 l 492 433 l 599 433 q 671 440 638 433 q 725 465 704 446 q 746 518 746 483 q 706 578 746 558 q 585 597 667 597 l 492 597 l 492 701 l 610 701 q 698 722 679 701 q 717 764 717 742 q 697 811 717 794 q 649 843 676 828 q 599 876 624 858 q 561 921 575 893 q 550 992 547 949 l 678 992 q 688 958 678 972 q 714 932 697 943 q 749 910 731 921 q 817 860 785 890 q 849 771 849 829 q 822 697 849 726 q 731 656 796 668 l 731 653 q 799 635 765 651 q 855 589 832 618 q 878 518 878 560 q 834 417 878 450 q 731 376 790 383 l 731 374 q 817 344 782 365 q 872 289 853 324 q 892 204 892 254 q 848 92 892 142 q 725 15 804 43 q 538 -14 646 -14 z "},"Ⴡ":{"ha":964,"x_min":136,"x_max":936,"o":"m 136 0 l 136 992 l 261 992 l 261 739 q 260 697 261 721 q 256 642 258 672 l 263 642 q 327 706 292 681 q 406 745 363 732 q 497 758 449 758 q 706 681 633 758 q 778 458 778 603 l 936 458 l 936 350 l 653 350 l 653 461 q 613 602 653 554 q 481 650 572 650 q 359 622 408 650 q 285 538 310 593 q 261 397 261 482 l 261 0 l 136 0 z "},"Ჲ":{"ha":869,"x_min":85,"x_max":785,"o":"m 126 0 l 126 108 q 224 120 175 111 q 319 147 272 129 l 319 150 q 197 274 250 203 q 115 431 144 344 q 85 621 85 518 q 132 834 85 749 q 258 963 179 919 q 435 1006 338 1006 q 611 963 532 1006 q 738 834 690 919 q 785 621 785 749 q 756 431 785 518 q 674 274 726 344 q 550 150 621 203 l 550 147 q 646 120 597 129 q 743 108 694 111 l 743 0 q 584 25 663 4 q 435 79 506 46 q 286 25 364 46 q 126 0 208 4 m 435 200 q 547 305 499 243 q 624 447 596 367 q 653 621 653 526 q 593 827 653 757 q 435 897 533 897 q 277 827 338 897 q 217 621 217 757 q 245 447 217 526 q 323 305 274 367 q 435 200 372 243 z "},"Ⴢ":{"ha":854,"x_min":58,"x_max":769,"o":"m 314 -14 q 178 -5 238 -14 q 58 26 118 4 l 58 135 q 184 106 124 115 q 304 96 244 96 q 481 137 406 96 q 597 253 556 178 q 638 433 638 329 q 615 576 638 514 q 548 680 592 638 q 440 744 504 722 q 294 765 376 765 l 111 765 l 111 992 l 231 992 l 231 875 l 314 875 q 508 846 424 875 q 651 760 593 817 q 740 622 710 704 q 769 433 769 540 q 713 196 769 296 q 555 41 657 96 q 314 -14 453 -14 z "},"Ჵ":{"ha":976,"x_min":85,"x_max":906,"o":"m 414 -14 q 172 48 260 -14 q 85 221 85 110 q 123 341 85 292 q 233 417 161 390 q 404 443 304 443 l 617 443 l 617 572 l 379 572 q 175 627 246 572 q 104 783 104 682 q 189 946 104 886 q 424 1006 274 1006 q 601 974 529 1006 q 708 883 672 943 q 744 736 744 824 l 744 678 l 906 678 l 906 572 l 744 572 l 744 443 l 906 443 l 906 339 l 744 339 l 744 272 q 708 115 744 179 q 597 19 671 51 q 414 -14 524 -14 m 419 92 q 540 116 497 92 q 600 183 583 140 q 617 278 617 225 l 617 339 l 393 339 q 298 325 338 339 q 238 285 258 311 q 217 221 217 260 q 269 126 217 161 q 419 92 321 92 m 389 678 l 617 678 l 617 738 q 574 856 617 811 q 421 900 532 900 q 283 871 332 900 q 235 785 235 842 q 252 725 235 749 q 304 690 269 701 q 389 678 339 678 z "},"Ⴥ":{"ha":1168,"x_min":69,"x_max":1099,"o":"m 329 -14 q 138 43 206 -14 q 69 208 69 100 q 140 372 69 314 q 354 429 211 429 l 464 429 l 464 719 q 502 872 464 808 q 612 971 540 936 q 782 1006 683 1006 q 1015 943 932 1006 q 1099 767 1099 881 q 1015 596 1099 656 q 778 536 931 536 l 589 536 l 589 429 l 981 429 l 981 158 l 861 158 l 861 321 l 589 321 l 589 267 q 520 63 589 139 q 329 -14 451 -14 m 333 94 q 430 140 396 94 q 464 267 464 186 l 464 321 l 363 321 q 240 294 279 321 q 201 207 201 267 q 235 121 201 147 q 333 94 268 94 m 589 644 l 768 644 q 918 675 869 644 q 967 768 967 706 q 919 863 967 829 q 776 897 872 897 q 637 853 685 897 q 589 724 589 810 l 589 644 z "},"Ი":{"ha":883,"x_min":92,"x_max":792,"o":"m 181 0 q 134 150 154 72 q 103 324 114 228 q 92 544 92 421 q 139 811 92 710 q 265 959 186 913 q 442 1006 344 1006 q 618 959 539 1006 q 744 811 697 913 q 792 544 792 710 q 781 324 792 421 q 750 150 769 228 q 703 0 731 72 l 575 0 q 622 153 603 76 q 650 323 640 231 q 660 538 660 415 q 633 749 660 669 q 556 863 606 828 q 442 897 507 897 q 327 863 376 897 q 251 749 278 828 q 224 538 224 669 q 233 323 224 415 q 262 153 243 231 q 308 0 281 76 l 181 0 z "},"Ⴈ":{"ha":669,"x_min":7,"x_max":533,"o":"m 408 0 l 408 883 l 7 883 l 7 992 l 533 992 l 533 0 l 408 0 z "},"Ჯ":{"ha":829,"x_min":76,"x_max":753,"o":"m 411 -14 q 237 24 313 -14 q 119 127 161 61 q 76 279 76 193 q 81 333 76 306 q 93 388 85 360 l 219 388 q 210 338 214 361 q 207 293 207 314 q 261 146 207 197 q 411 94 315 94 q 518 113 471 94 q 593 167 565 132 q 621 249 621 201 q 603 330 621 294 q 558 396 586 365 q 494 453 529 426 q 415 531 447 492 q 367 611 383 569 q 351 697 351 653 l 351 743 l 90 782 l 90 886 l 351 847 l 351 992 l 479 992 l 479 824 l 738 785 l 738 681 l 478 719 l 478 701 q 497 627 478 661 q 548 563 517 593 q 615 501 579 532 q 683 436 651 472 q 733 356 714 400 q 753 256 753 311 q 710 113 753 174 q 590 19 667 51 q 411 -14 514 -14 z "},"Ⴟ":{"ha":904,"x_min":21,"x_max":890,"o":"m 50 0 l 397 513 l 154 883 l 21 883 l 21 992 l 801 992 l 801 896 l 540 515 l 890 0 l 751 0 l 467 426 l 182 0 l 50 0 m 471 599 l 664 883 l 290 883 l 471 599 z "},"Ძ":{"ha":883,"x_min":85,"x_max":768,"o":"m 429 -14 q 251 27 329 -14 q 129 149 174 68 q 85 350 85 231 q 126 552 85 471 q 240 674 168 633 q 403 715 311 715 q 506 701 460 715 q 586 664 551 688 q 643 611 621 640 l 651 611 q 647 665 650 629 q 643 721 643 700 l 643 992 l 768 992 l 768 349 q 678 78 768 169 q 429 -14 589 -14 m 429 94 q 552 124 504 94 q 623 207 600 154 q 646 328 646 260 l 646 349 q 628 478 646 418 q 563 574 611 538 q 422 610 514 610 q 312 578 358 610 q 241 487 265 546 q 217 347 217 428 q 272 163 217 231 q 429 94 326 94 z "},"Ⴛ":{"ha":1233,"x_min":85,"x_max":1111,"o":"m 424 -14 q 242 28 318 -14 q 126 147 167 71 q 85 324 85 222 q 126 504 85 428 q 245 622 167 581 q 436 663 324 663 l 629 663 l 629 992 l 754 992 l 754 663 l 1111 663 l 1111 0 l 992 0 l 992 554 l 754 554 l 754 344 q 715 148 754 228 q 603 27 676 68 q 424 -14 529 -14 m 417 94 q 576 153 524 94 q 629 336 629 213 l 629 554 l 440 554 q 266 497 324 554 q 208 324 208 439 q 263 156 208 218 q 417 94 318 94 z "},"Კ":{"ha":826,"x_min":69,"x_max":750,"o":"m 404 -14 q 230 24 306 -14 q 112 127 154 61 q 69 279 69 193 q 74 333 69 306 q 86 388 78 360 l 213 388 q 203 338 207 361 q 200 293 200 314 q 254 146 200 197 q 404 94 308 94 q 525 121 478 94 q 596 194 572 147 q 619 297 619 240 q 597 406 619 358 q 527 482 574 454 q 408 510 481 510 l 351 510 l 351 615 l 418 615 q 524 637 485 615 q 578 692 563 658 q 594 760 594 725 q 578 831 594 799 q 527 883 561 864 q 440 903 493 903 l 440 1007 q 588 976 525 1007 q 687 892 651 944 q 722 778 722 840 q 676 641 722 696 q 557 568 631 586 l 557 563 q 651 522 607 554 q 723 431 696 489 q 750 290 750 374 q 708 131 750 199 q 588 24 665 63 q 404 -14 510 -14 z "},"Ⴉ":{"ha":976,"x_min":125,"x_max":865,"o":"m 740 0 l 740 161 q 743 220 740 189 q 747 281 746 251 l 739 281 q 624 174 690 208 q 469 139 558 139 q 285 185 363 139 q 167 313 208 231 q 125 503 125 394 l 125 992 l 250 992 l 250 844 q 248 806 250 836 q 243 725 246 776 l 251 725 q 368 835 304 803 q 521 867 432 867 q 706 819 629 867 q 824 690 783 772 q 865 503 865 608 l 865 0 l 740 0 m 488 247 q 624 278 568 247 q 710 366 681 308 q 740 503 740 424 q 712 642 740 585 q 631 728 683 699 q 503 758 578 758 q 367 728 424 758 q 280 640 310 697 q 250 503 250 583 q 278 366 250 424 q 359 278 306 308 q 488 247 413 247 z "},"Ქ":{"ha":858,"x_min":76,"x_max":743,"o":"m 413 -14 q 237 24 313 -14 q 119 127 161 61 q 76 279 76 193 q 81 333 76 306 q 93 388 85 360 l 219 388 q 210 338 214 361 q 207 293 207 314 q 261 146 207 197 q 413 94 315 94 q 532 123 486 94 q 599 204 578 151 q 619 326 619 257 l 619 494 q 602 620 619 563 q 542 714 585 678 q 421 750 499 750 q 333 733 372 750 q 272 681 294 715 q 249 597 249 647 q 250 567 249 582 q 253 539 251 551 l 125 539 q 120 568 122 553 q 118 601 118 583 q 158 742 118 685 q 263 828 199 799 q 399 857 326 857 q 492 844 450 857 q 565 809 533 831 q 619 760 597 788 l 625 760 q 621 808 624 775 q 618 865 618 840 l 618 992 l 743 992 l 743 322 q 705 140 743 215 q 593 26 667 65 q 413 -14 519 -14 z "},"Ⴕ":{"ha":856,"x_min":71,"x_max":771,"o":"m 358 0 l 358 554 l 71 554 l 71 663 l 358 663 l 358 992 l 483 992 l 483 663 l 771 663 l 771 554 l 483 554 l 483 0 l 358 0 z "},"Ჿ":{"ha":911,"x_min":92,"x_max":819,"o":"m 456 -14 q 185 115 279 -14 q 92 496 92 244 q 134 778 92 665 q 258 949 176 892 q 456 1006 339 1006 q 726 877 633 1006 q 819 496 819 749 q 777 213 819 326 q 654 43 735 100 q 456 -14 574 -14 m 456 94 q 629 193 571 94 q 688 496 688 292 q 661 723 688 635 q 583 854 635 811 q 456 897 532 897 q 282 799 340 897 q 224 496 224 700 q 250 269 224 358 q 328 138 276 181 q 456 94 381 94 z "},"Ლ":{"ha":1588,"x_min":85,"x_max":1503,"o":"m 1008 0 q 977 69 1003 39 q 911 123 951 100 q 821 161 871 146 q 717 184 771 176 q 614 192 664 192 q 447 172 519 192 q 314 121 375 151 l 264 211 q 319 237 290 225 q 378 256 347 249 q 443 265 410 264 l 443 269 q 299 318 365 286 q 185 400 233 350 q 111 520 138 450 q 85 682 85 590 q 117 851 85 779 q 214 965 150 924 q 371 1006 278 1006 q 503 967 453 1006 q 576 864 554 929 l 583 864 q 663 969 608 933 q 793 1006 717 1006 q 929 967 878 1006 q 1003 864 981 929 l 1010 864 q 1086 967 1033 929 q 1217 1006 1139 1006 q 1374 962 1310 1006 q 1470 840 1438 918 q 1503 660 1503 763 q 1484 506 1503 578 q 1428 364 1465 433 l 1313 404 q 1360 535 1347 474 q 1372 668 1372 597 q 1328 838 1372 779 q 1207 897 1285 897 q 1133 873 1164 897 q 1085 806 1101 849 q 1068 704 1068 763 l 1068 535 l 946 535 l 946 707 q 929 805 946 763 q 879 872 913 847 q 793 897 846 897 q 712 874 746 897 q 660 809 678 851 q 642 707 642 767 l 642 535 l 519 535 l 519 704 q 505 801 519 757 q 460 871 490 844 q 381 897 429 897 q 260 845 304 897 q 215 681 215 793 q 249 517 215 585 q 346 406 283 450 q 494 337 408 363 q 682 299 579 311 q 836 267 761 289 q 974 210 911 246 q 1079 123 1038 175 q 1131 0 1121 71 l 1008 0 z "},"Ⴊ":{"ha":1393,"x_min":106,"x_max":1315,"o":"m 938 -14 q 744 33 825 -14 q 619 166 663 79 q 575 371 575 253 l 575 883 l 231 883 l 231 542 l 106 542 l 106 992 l 700 992 l 700 736 q 699 715 700 731 q 697 676 699 700 q 693 617 696 651 l 701 617 q 818 726 754 694 q 971 758 882 758 q 1158 708 1082 758 q 1275 570 1235 657 q 1315 374 1315 483 q 1269 167 1315 254 q 1138 33 1222 79 q 938 -14 1053 -14 m 936 94 q 1071 128 1015 94 q 1156 224 1126 161 q 1186 374 1186 286 q 1158 524 1186 463 q 1078 617 1131 585 q 951 650 1026 650 q 816 617 872 650 q 730 521 760 583 q 700 371 700 458 q 762 168 700 242 q 936 94 824 94 z "},"Მ":{"ha":881,"x_min":85,"x_max":765,"o":"m 431 -14 q 249 27 326 -14 q 128 149 171 68 q 85 347 85 229 q 173 608 85 517 q 404 700 261 700 q 506 685 463 700 q 583 647 550 671 q 640 594 617 624 l 649 594 q 644 636 647 610 q 640 686 640 663 l 640 746 q 618 826 640 792 q 551 881 596 861 q 438 901 507 901 q 342 887 386 901 q 273 844 299 872 q 247 774 247 815 q 247 767 247 769 q 247 761 247 765 l 125 761 q 124 778 124 772 q 124 790 124 783 q 168 904 124 856 q 285 979 213 953 q 439 1006 357 1006 q 613 972 540 1006 q 726 876 686 938 q 765 733 765 815 l 765 347 q 678 78 765 169 q 431 -14 592 -14 m 431 92 q 553 121 507 92 q 620 203 599 150 q 642 326 642 257 l 642 347 q 624 472 642 415 q 559 561 606 528 q 424 594 513 594 q 269 525 322 594 q 217 344 217 456 q 269 159 217 226 q 431 92 321 92 z "},"Ⴋ":{"ha":1042,"x_min":85,"x_max":981,"o":"m 440 -14 q 255 25 335 -14 q 130 140 175 64 q 85 324 85 215 q 128 508 85 432 q 250 623 171 583 q 439 663 329 663 l 674 663 l 674 883 l 161 883 l 161 992 l 799 992 l 799 663 l 981 663 l 981 554 l 799 554 l 799 344 q 758 154 799 235 q 639 30 718 74 q 440 -14 560 -14 m 433 94 q 617 158 561 94 q 674 336 674 222 l 674 554 l 446 554 q 271 497 331 554 q 211 324 211 439 q 273 151 211 208 q 433 94 335 94 z "},"\u0000":{"ha":0,"x_min":0,"x_max":0,"o":""},"Ნ":{"ha":881,"x_min":115,"x_max":796,"o":"m 450 -14 q 202 78 289 -14 q 115 347 115 169 l 115 733 q 135 852 115 803 q 189 932 154 901 q 269 977 224 963 q 368 992 315 992 l 724 992 l 724 883 l 385 883 q 279 851 318 883 q 240 740 240 818 l 240 685 q 238 635 240 661 q 232 593 235 608 l 240 593 q 297 647 264 622 q 375 686 331 671 q 476 701 419 701 q 644 660 572 701 q 756 540 717 619 q 796 347 796 461 q 753 149 796 229 q 632 27 710 68 q 450 -14 554 -14 m 450 92 q 571 122 524 92 q 641 210 618 153 q 664 344 664 267 q 640 476 664 419 q 571 564 617 532 q 457 596 525 596 q 328 563 376 596 q 260 473 281 529 q 239 347 239 417 l 239 326 q 260 203 239 257 q 328 121 282 150 q 450 92 375 92 z "},"Ⴌ":{"ha":986,"x_min":136,"x_max":857,"o":"m 136 0 l 136 992 l 818 992 l 818 883 l 261 883 l 261 656 q 260 617 261 647 q 254 536 258 588 l 263 536 q 338 616 296 585 q 431 663 379 647 q 543 678 482 678 q 712 638 642 678 q 819 517 782 597 q 857 318 857 438 l 857 0 l 732 0 l 732 319 q 677 508 732 447 q 519 569 622 569 q 329 499 397 569 q 261 306 261 428 l 261 0 l 136 0 z "},"Ო":{"ha":1250,"x_min":92,"x_max":1158,"o":"m 204 0 q 157 128 178 64 q 122 259 136 192 q 99 403 107 326 q 92 572 92 481 q 136 826 92 731 q 251 963 181 921 q 397 1006 321 1006 q 486 992 442 1006 q 567 947 531 979 q 624 856 604 914 l 628 856 q 683 947 647 914 q 762 992 718 979 q 850 1006 806 1006 q 1000 963 929 1006 q 1115 826 1071 921 q 1158 572 1158 731 q 1144 351 1158 449 q 1106 170 1131 254 q 1046 0 1081 86 l 915 0 q 976 176 951 90 q 1013 356 1000 261 q 1026 565 1026 450 q 1000 762 1026 689 q 932 866 974 835 q 843 897 890 897 q 764 873 799 897 q 710 797 729 849 q 690 663 690 746 l 690 292 l 560 292 l 560 663 q 540 798 560 746 q 485 874 519 850 q 404 897 450 897 q 318 867 360 897 q 250 763 276 836 q 224 565 224 690 q 236 359 224 454 q 274 177 249 264 q 335 0 299 90 l 204 0 z "},"Ⴍ":{"ha":1200,"x_min":85,"x_max":1186,"o":"m 543 -14 q 340 23 426 -14 q 197 127 254 60 q 113 289 140 194 q 85 499 85 383 q 135 764 85 650 q 287 942 185 878 q 544 1006 389 1006 q 794 942 693 1006 q 948 765 896 879 q 1000 497 1000 651 q 971 289 1000 383 q 883 128 942 194 q 938 92 911 104 q 994 79 964 79 q 1053 106 1035 79 q 1072 190 1072 133 l 1186 190 q 1167 84 1186 131 q 1110 12 1149 38 q 1007 -14 1071 -14 q 910 10 956 -14 q 826 72 865 33 q 701 8 772 31 q 543 -14 629 -14 m 543 94 q 727 143 656 94 q 833 282 799 192 q 868 497 868 372 q 790 790 868 683 q 544 896 713 896 q 359 848 432 896 q 251 711 286 800 q 217 497 217 622 q 251 282 217 372 q 359 143 286 192 q 543 94 432 94 z "},"Პ":{"ha":843,"x_min":76,"x_max":758,"o":"m 417 -14 q 238 24 315 -14 q 119 127 161 61 q 76 279 76 193 q 81 333 76 306 q 93 388 85 360 l 219 388 q 210 338 214 361 q 207 293 207 314 q 262 146 207 197 q 417 94 317 94 q 534 122 488 94 q 603 194 581 149 q 626 294 626 239 q 613 370 626 335 q 570 432 599 406 q 498 474 542 458 q 396 489 454 489 l 329 489 l 329 596 l 424 596 q 521 609 483 596 q 576 644 558 622 q 593 696 593 667 q 576 756 593 733 q 532 792 558 778 q 476 818 506 806 q 406 858 439 836 q 353 911 372 879 q 335 992 333 943 l 463 992 q 496 938 463 960 q 581 892 529 915 q 648 853 615 876 q 702 795 681 831 q 724 708 724 760 q 703 629 724 661 q 646 578 682 597 q 563 547 610 558 l 563 542 q 632 515 597 535 q 695 464 667 496 q 741 386 724 432 q 758 281 758 340 q 716 128 758 194 q 597 24 674 61 q 417 -14 521 -14 z "},"Ⴎ":{"ha":1185,"x_min":7,"x_max":1056,"o":"m 678 -14 q 394 83 497 -14 q 292 350 292 179 l 292 883 l 7 883 l 7 992 l 415 992 l 415 350 q 481 161 415 228 q 671 94 547 94 q 816 124 758 94 q 902 211 874 154 q 931 349 931 268 l 931 992 l 1056 992 l 1056 353 q 1011 157 1056 239 q 883 31 967 75 q 678 -14 799 -14 z "},"Ფ":{"ha":1269,"x_min":85,"x_max":1185,"o":"m 772 -12 q 565 15 654 -12 q 427 97 476 43 q 378 224 378 150 q 379 249 378 236 q 383 275 381 261 l 504 275 q 502 257 503 267 q 501 240 501 247 q 535 158 501 190 q 629 109 568 125 q 772 93 690 93 q 913 117 857 93 q 997 183 969 142 q 1025 272 1025 224 q 1007 346 1025 311 q 951 403 989 381 q 849 425 913 425 l 815 425 l 815 531 l 878 531 q 967 554 926 531 q 1031 621 1007 578 q 1054 722 1054 664 q 1038 815 1054 776 q 988 876 1021 854 q 904 897 954 897 q 820 876 857 897 q 763 815 783 856 q 742 717 742 775 l 742 672 q 719 541 742 600 q 653 440 696 482 q 549 374 610 397 q 413 351 488 351 q 282 374 342 351 q 178 440 222 397 q 109 542 133 483 q 85 674 85 601 q 126 848 85 774 q 240 964 167 922 q 414 1006 314 1006 q 522 988 471 1006 q 610 938 572 971 q 668 858 649 906 l 675 858 q 724 940 692 907 q 804 989 757 972 q 911 1006 851 1006 q 1060 968 999 1006 q 1153 870 1121 931 q 1185 740 1185 810 q 1132 561 1185 622 q 1004 482 1079 500 l 1004 476 q 1088 435 1054 464 q 1140 365 1122 407 q 1157 267 1157 322 q 1110 124 1157 188 q 976 24 1063 61 q 772 -12 890 -12 m 415 458 q 525 488 482 458 q 589 566 568 517 q 610 674 610 615 q 589 788 610 738 q 525 867 568 838 q 414 896 482 896 q 302 867 346 896 q 238 788 258 838 q 217 674 217 738 q 238 565 217 614 q 303 488 260 517 q 415 458 347 458 z "},"Ⴔ":{"ha":1143,"x_min":85,"x_max":1058,"o":"m 510 0 l 510 247 q 286 292 382 247 q 138 420 190 336 q 85 622 85 504 q 117 787 85 715 q 211 907 149 858 q 365 981 274 956 q 575 1006 457 1006 q 785 981 694 1006 q 935 909 875 957 q 1027 789 996 861 q 1058 622 1058 717 q 1005 417 1058 501 q 856 290 951 333 q 633 247 760 247 l 633 0 l 510 0 m 510 350 l 510 900 q 348 865 415 899 q 246 771 281 832 q 211 624 211 710 q 246 475 211 536 q 347 382 281 414 q 510 350 414 350 m 633 350 q 796 382 729 350 q 897 475 863 414 q 932 624 932 536 q 897 772 932 711 q 796 865 863 832 q 633 900 729 899 l 633 350 z "},"Ყ":{"ha":868,"x_min":85,"x_max":753,"o":"m 421 -14 q 245 24 321 -14 q 127 127 169 61 q 85 279 85 193 q 89 333 85 306 q 101 388 93 360 l 228 388 q 219 338 222 361 q 215 293 215 314 q 269 146 215 197 q 421 94 324 94 q 540 123 494 94 q 607 204 586 151 q 628 326 628 257 l 628 468 q 628 503 628 485 q 631 541 629 522 q 633 576 632 560 l 628 576 q 526 496 592 525 q 383 467 461 467 q 224 502 290 467 q 122 606 157 538 q 86 774 86 675 q 101 892 86 836 q 138 992 115 947 l 265 992 q 231 894 244 943 q 218 775 218 846 q 240 667 218 713 q 303 598 263 622 q 401 574 344 574 q 526 600 476 574 q 602 676 576 626 q 628 796 628 725 l 628 992 l 753 992 l 753 322 q 715 140 753 215 q 602 26 676 65 q 421 -14 528 -14 z "},"Ⴗ":{"ha":943,"x_min":78,"x_max":807,"o":"m 681 0 l 681 336 q 683 369 681 344 q 688 433 685 394 l 681 433 q 563 335 640 372 q 397 299 486 299 q 224 340 296 299 q 115 461 153 382 q 78 653 78 540 q 103 825 78 740 q 181 992 129 910 l 326 992 q 267 899 293 954 q 225 779 240 843 q 210 651 210 715 q 232 520 210 575 q 300 436 254 465 q 417 407 346 407 q 567 438 508 407 q 653 534 625 468 q 682 704 682 600 l 682 992 l 807 992 l 807 0 l 681 0 z "},"Რ":{"ha":1174,"x_min":85,"x_max":1089,"o":"m 157 0 q 113 131 129 71 q 91 256 97 190 q 85 411 85 322 q 108 625 85 532 q 177 784 131 718 q 294 892 224 850 q 460 953 364 935 q 569 973 514 964 q 679 990 624 982 q 790 1006 735 999 l 811 894 q 715 883 761 889 q 626 870 668 876 q 549 858 585 864 q 483 847 513 853 q 370 813 425 836 q 272 747 315 790 q 204 629 229 703 l 208 629 q 266 682 236 664 q 327 706 296 700 q 388 713 358 713 q 512 678 461 713 q 585 578 563 643 l 589 578 q 667 678 611 643 q 804 713 724 713 q 964 667 901 713 q 1058 543 1026 622 q 1089 360 1089 464 q 1080 234 1089 293 q 1054 118 1071 175 q 1014 0 1038 61 l 883 0 q 939 178 919 94 q 958 361 958 263 q 940 496 958 442 q 886 578 922 550 q 794 607 850 607 q 717 586 751 607 q 665 523 683 565 q 646 418 646 481 l 646 222 l 524 222 l 524 418 q 506 523 524 481 q 456 586 489 565 q 375 607 422 607 q 253 545 293 607 q 213 360 213 483 q 232 174 213 258 q 286 0 251 90 l 157 0 z "},"Ⴐ":{"ha":1272,"x_min":78,"x_max":1211,"o":"m 414 -14 q 234 31 310 -14 q 118 151 158 75 q 78 322 78 228 q 97 443 78 388 q 154 553 115 499 l 261 508 q 222 417 235 465 q 208 325 208 369 q 232 211 208 264 q 301 126 256 158 q 413 94 346 94 q 569 158 515 94 q 624 350 624 222 l 624 992 l 749 992 l 749 764 q 747 726 749 756 q 742 644 746 696 l 750 644 q 846 733 790 707 q 961 758 901 758 q 1097 721 1042 758 q 1182 622 1153 683 q 1211 489 1211 560 q 1198 398 1211 444 q 1160 310 1185 351 l 1050 344 q 1076 410 1068 376 q 1085 476 1085 444 q 1067 563 1085 524 q 1013 626 1049 601 q 924 650 976 650 q 831 626 871 650 q 770 560 792 603 q 749 456 749 517 l 749 350 q 708 153 749 235 q 593 29 668 72 q 414 -14 518 -14 z "},"Ს":{"ha":883,"x_min":115,"x_max":799,"o":"m 456 -14 q 202 77 289 -14 q 115 340 115 168 l 115 992 l 240 992 l 240 328 q 292 158 240 222 q 456 94 343 94 q 574 122 528 94 q 644 197 621 150 q 667 297 667 243 q 647 394 667 356 q 599 467 626 432 q 533 569 563 514 q 510 701 504 624 l 639 701 q 663 599 638 642 q 722 511 689 556 q 776 419 754 469 q 799 294 799 368 q 756 133 799 203 q 635 25 713 64 q 456 -14 558 -14 z "},"Ⴑ":{"ha":878,"x_min":129,"x_max":800,"o":"m 464 -14 q 285 29 360 -14 q 169 153 210 72 q 129 350 129 235 l 129 992 l 254 992 l 254 350 q 309 158 254 222 q 465 94 364 94 q 578 126 532 94 q 647 211 624 158 q 669 325 669 264 q 657 417 669 369 q 617 508 644 465 l 724 553 q 781 443 763 499 q 800 322 800 388 q 760 151 800 228 q 644 31 719 75 q 464 -14 568 -14 z "},"Შ":{"ha":885,"x_min":60,"x_max":769,"o":"m 435 -14 q 253 27 331 -14 q 132 149 175 68 q 89 347 89 229 q 177 609 89 518 q 408 700 265 700 q 510 685 467 700 q 588 647 554 671 q 644 594 621 624 l 653 594 q 648 636 651 610 q 644 686 644 663 l 644 782 q 629 848 644 821 q 588 890 614 875 q 526 904 561 904 q 449 876 479 904 q 419 800 419 849 l 419 760 l 296 760 l 296 800 q 265 875 296 849 q 193 901 233 901 q 142 896 165 901 q 97 882 119 890 l 60 976 q 122 997 88 989 q 196 1006 157 1006 q 285 983 240 1006 q 356 903 329 961 l 360 903 q 440 984 388 963 q 542 1006 492 1006 q 655 981 603 1006 q 738 908 707 957 q 769 783 769 860 l 769 347 q 683 78 769 169 q 435 -14 596 -14 m 435 92 q 557 121 511 92 q 624 203 603 150 q 646 326 646 257 l 646 347 q 628 472 646 415 q 563 561 610 528 q 428 594 517 594 q 274 525 326 594 q 221 344 221 456 q 273 159 221 226 q 435 92 325 92 z "},"Ⴘ":{"ha":972,"x_min":129,"x_max":836,"o":"m 488 -14 q 311 23 388 -14 q 192 124 235 60 q 149 268 149 188 q 156 326 149 300 q 178 381 163 353 l 289 344 q 281 310 283 326 q 278 276 278 293 q 302 180 278 221 q 373 117 326 139 q 486 94 419 94 q 607 124 557 94 q 684 207 657 153 q 711 336 711 261 l 711 453 q 712 491 711 468 q 715 540 713 514 q 718 594 717 567 l 710 594 q 592 487 658 521 q 443 453 525 453 q 276 495 347 453 q 167 618 206 538 q 129 813 129 699 l 129 992 l 254 992 l 254 811 q 309 624 254 686 q 467 561 364 561 q 644 632 578 561 q 711 825 711 703 l 711 992 l 836 992 l 836 336 q 793 150 836 229 q 672 28 750 71 q 488 -14 594 -14 z "},"Თ":{"ha":1351,"x_min":92,"x_max":1260,"o":"m 957 1006 q 1106 963 1038 1006 q 1217 826 1175 921 q 1260 572 1260 731 q 1246 351 1260 449 q 1207 170 1232 254 q 1147 0 1182 86 l 1017 0 q 1077 176 1053 90 q 1115 356 1101 261 q 1128 565 1128 450 q 1103 762 1128 689 q 1038 866 1079 835 q 946 897 997 897 q 856 872 893 897 q 801 803 819 847 q 782 699 782 758 q 785 627 782 663 q 790 559 788 592 q 792 496 792 526 q 753 213 792 326 q 636 43 714 100 q 442 -14 558 -14 q 247 44 325 -14 q 131 215 169 101 q 92 496 92 328 q 131 778 92 665 q 247 949 169 892 q 442 1006 325 1006 q 556 988 506 1006 q 645 936 607 971 q 707 849 683 901 l 711 849 q 770 939 732 904 q 857 990 808 974 q 957 1006 906 1006 m 442 94 q 566 138 518 94 q 637 271 614 182 q 660 496 660 360 q 637 723 660 635 q 565 854 614 811 q 442 897 517 897 q 317 853 365 897 q 247 721 269 810 q 224 496 224 632 q 247 269 224 358 q 319 138 271 181 q 442 94 367 94 z "},"Ⴇ":{"ha":1269,"x_min":85,"x_max":1208,"o":"m 879 579 l 1208 579 l 1208 242 l 1089 242 l 1089 471 l 879 471 l 879 0 l 574 0 q 213 128 340 0 q 85 486 85 257 q 145 763 85 650 q 321 933 206 875 q 603 992 436 992 l 879 992 l 879 579 m 754 107 l 754 885 l 619 885 q 317 785 418 885 q 217 490 217 686 q 311 204 217 301 q 592 107 406 107 l 754 107 z "},"Ტ":{"ha":1125,"x_min":85,"x_max":1040,"o":"m 563 -14 q 360 21 449 -14 q 209 121 271 56 q 116 278 147 186 q 85 482 85 369 q 194 819 85 690 q 501 967 303 947 q 499 995 500 981 q 497 1024 497 1010 l 497 1044 l 628 1044 l 628 1024 q 627 995 628 1010 q 624 968 626 981 q 931 820 822 949 q 1040 481 1040 692 q 1009 285 1040 375 q 917 128 978 194 q 768 24 857 61 q 563 -14 679 -14 m 561 94 q 751 142 674 94 q 867 276 828 189 q 907 482 907 363 q 835 747 907 650 q 621 864 763 844 q 625 817 624 846 q 626 754 626 788 l 626 468 l 499 468 l 499 756 q 500 813 499 788 q 504 861 501 839 q 288 744 360 843 q 217 482 217 646 q 257 276 217 364 q 374 142 297 189 q 561 94 451 94 z "},"Ⴒ":{"ha":856,"x_min":136,"x_max":771,"o":"m 136 0 l 136 992 l 399 992 q 678 919 585 992 q 771 700 771 846 q 744 565 771 624 q 667 467 718 507 q 543 406 617 426 q 375 386 469 386 l 261 386 l 261 108 l 732 108 l 732 0 l 136 0 m 261 493 l 361 493 q 522 514 460 493 q 613 579 583 535 q 642 694 642 624 q 580 838 642 790 q 388 885 518 885 l 261 885 l 261 493 z "},"Უ":{"ha":868,"x_min":63,"x_max":753,"o":"m 417 -12 q 241 26 317 -12 q 123 132 165 64 q 81 292 81 200 q 86 358 81 328 q 100 411 92 389 l 222 411 q 213 360 217 390 q 210 303 210 329 q 233 197 210 243 q 302 123 256 150 q 417 96 349 96 q 538 124 492 96 q 606 202 585 151 q 628 321 628 253 l 628 767 q 615 841 628 811 q 576 887 601 871 q 511 903 550 903 q 426 868 456 903 q 396 768 396 833 l 396 608 l 274 608 l 274 768 q 244 863 274 832 q 160 893 214 893 l 63 893 l 63 1000 l 156 1000 q 260 978 210 1000 q 335 889 311 957 l 339 889 q 383 957 356 931 q 447 995 410 983 q 526 1007 483 1007 q 649 978 599 1007 q 726 900 699 950 q 753 785 753 850 l 753 315 q 713 138 753 211 q 599 26 674 64 q 417 -12 524 -12 z "},"Ⴓ":{"ha":1083,"x_min":85,"x_max":1056,"o":"m 826 -236 q 801 -234 815 -236 q 768 -231 786 -232 l 768 -122 q 795 -126 781 -124 q 826 -128 810 -128 q 906 -99 879 -128 q 933 -24 933 -71 q 906 44 933 17 q 838 82 878 72 q 705 10 778 35 q 543 -14 632 -14 q 349 20 433 -14 q 205 120 264 54 q 115 281 146 186 q 85 499 85 376 q 138 773 85 660 q 294 946 192 886 q 544 1006 397 1006 q 790 945 689 1006 q 946 771 892 885 q 1000 497 1000 657 q 977 317 1000 400 q 901 153 954 233 q 983 120 949 143 q 1036 62 1017 97 q 1056 -24 1056 26 q 993 -178 1056 -119 q 826 -236 931 -236 m 543 94 q 722 140 650 94 q 831 275 794 185 q 868 497 868 365 q 786 796 868 696 q 544 896 704 896 q 364 851 438 896 q 253 717 290 806 q 217 497 217 628 q 253 276 217 367 q 363 140 290 186 q 543 94 436 94 z "},"Ვ":{"ha":849,"x_min":76,"x_max":772,"o":"m 426 -14 q 241 24 319 -14 q 119 127 163 61 q 76 279 76 193 q 81 333 76 306 q 93 388 85 360 l 219 388 q 210 338 214 361 q 207 293 207 314 q 263 146 207 197 q 426 94 319 94 q 546 122 499 94 q 617 194 593 149 q 640 296 640 240 q 616 390 640 349 q 545 456 592 432 q 429 481 499 481 l 358 481 l 358 588 l 439 588 q 572 636 529 588 q 615 750 615 685 q 594 826 615 793 q 532 879 572 860 q 435 899 492 899 q 335 881 376 899 q 272 830 293 863 q 250 753 250 797 q 252 717 250 735 q 258 681 254 700 l 132 681 q 124 722 126 701 q 121 763 121 742 q 160 887 121 832 q 271 974 200 942 q 435 1006 342 1006 q 597 973 528 1006 q 706 884 667 940 q 746 754 746 828 q 699 613 746 669 q 572 538 653 556 l 572 533 q 670 495 625 525 q 744 414 715 465 q 772 289 772 363 q 730 130 772 199 q 610 24 688 61 q 426 -14 532 -14 z "},"Ⴅ":{"ha":1146,"x_min":106,"x_max":1085,"o":"m 631 0 l 631 883 l 231 883 l 231 542 l 106 542 l 106 992 l 756 992 l 756 579 l 1085 579 l 1085 242 l 965 242 l 965 471 l 756 471 l 756 0 l 631 0 z "},"Ჳ":{"ha":849,"x_min":76,"x_max":772,"o":"m 426 -14 q 241 24 319 -14 q 119 127 163 61 q 76 279 76 193 q 81 333 76 306 q 93 388 85 360 l 219 388 q 210 338 214 361 q 207 293 207 314 q 263 146 207 197 q 426 94 319 94 q 546 122 499 94 q 617 194 593 149 q 640 296 640 240 q 610 411 640 365 q 529 481 581 457 q 410 504 478 504 l 325 504 l 325 599 l 583 885 l 140 885 l 140 992 l 735 992 l 735 893 l 469 603 q 615 560 546 596 q 728 457 683 524 q 772 289 772 390 q 730 130 772 199 q 610 24 688 61 q 426 -14 532 -14 z "},"Ⴣ":{"ha":929,"x_min":78,"x_max":793,"o":"m 667 0 l 667 294 q 669 328 667 303 q 674 392 671 353 l 667 392 q 551 294 626 331 q 397 257 475 257 q 231 292 303 257 q 118 397 158 328 q 78 565 78 465 q 97 686 78 631 q 154 796 115 742 l 261 751 q 222 662 235 708 q 210 576 210 615 q 232 464 210 511 q 299 391 254 417 q 410 365 343 365 q 554 395 497 365 q 640 491 611 425 q 668 663 668 557 l 668 992 l 793 992 l 793 0 l 667 0 z "},"Ხ":{"ha":883,"x_min":115,"x_max":799,"o":"m 454 -14 q 205 78 294 -14 q 115 349 115 169 l 115 992 l 240 992 l 240 718 q 238 662 240 697 q 232 608 235 626 l 240 608 q 297 662 264 638 q 374 701 329 686 q 475 715 419 715 q 642 674 569 715 q 757 552 715 633 q 799 350 799 471 q 754 149 799 231 q 632 27 710 68 q 454 -14 554 -14 m 454 94 q 612 163 557 94 q 667 347 667 231 q 642 487 667 428 q 572 578 618 546 q 461 610 526 610 q 322 574 369 610 q 256 478 274 538 q 238 349 238 418 l 238 328 q 260 207 238 260 q 332 124 283 154 q 454 94 381 94 z "},"Ⴞ":{"ha":965,"x_min":136,"x_max":829,"o":"m 136 992 l 261 992 l 261 506 l 704 506 l 704 992 l 829 992 l 829 397 l 261 397 l 261 108 l 801 108 l 801 0 l 136 0 l 136 992 z "},"Ჷ":{"ha":810,"x_min":76,"x_max":733,"o":"m 404 -12 q 237 22 311 -12 q 119 117 163 56 q 76 263 76 179 q 101 383 76 333 q 166 466 125 432 q 257 523 207 500 q 357 565 307 546 q 464 610 414 588 q 545 664 514 632 q 576 747 576 696 q 528 860 576 822 q 406 899 479 899 q 273 860 315 899 q 231 756 231 821 q 231 740 231 749 q 233 724 232 731 l 108 724 q 106 743 107 733 q 104 763 104 753 q 140 888 104 833 q 243 974 175 943 q 406 1006 311 1006 q 562 975 494 1006 q 668 887 629 944 q 707 747 707 829 q 682 636 707 682 q 615 560 657 590 q 522 506 572 529 q 421 464 471 483 q 314 415 363 442 q 237 351 265 388 q 208 261 208 314 q 262 139 208 185 q 404 93 315 93 q 506 111 461 93 q 576 167 550 129 q 601 261 601 204 q 601 290 601 276 q 597 314 600 303 l 726 314 q 731 288 729 301 q 733 258 733 274 q 691 107 733 167 q 574 17 649 47 q 404 -12 500 -12 z "},"Ⴧ":{"ha":800,"x_min":81,"x_max":738,"o":"m 408 -14 q 166 60 251 -14 q 81 261 81 135 q 112 392 81 340 q 203 482 143 444 q 351 551 264 519 q 469 603 421 578 q 542 662 517 628 q 568 751 568 696 q 520 858 568 819 q 390 896 472 896 q 303 879 339 896 q 248 833 267 863 q 229 765 229 804 q 230 749 229 757 q 232 733 231 740 l 107 733 q 105 749 106 740 q 104 767 104 758 q 137 892 104 839 q 233 976 169 946 q 388 1006 297 1006 q 547 974 478 1006 q 656 887 617 943 q 694 753 694 831 q 680 657 694 700 q 635 578 665 614 q 557 513 606 543 q 439 458 508 483 q 315 406 367 432 q 234 344 263 379 q 206 254 206 310 q 254 137 206 179 q 407 94 303 94 q 562 137 511 94 q 613 251 613 179 q 610 290 613 272 q 603 325 608 308 l 728 325 q 735 288 732 307 q 738 249 738 269 q 651 56 738 126 q 408 -14 565 -14 z "},"Ზ":{"ha":904,"x_min":46,"x_max":819,"o":"m 474 -14 q 336 10 399 -14 q 228 80 274 35 q 156 189 182 125 q 131 333 131 253 q 151 468 131 408 q 214 571 171 528 l 214 575 q 126 617 164 588 q 67 690 88 646 q 46 786 46 733 q 74 892 46 842 q 158 974 103 942 q 290 1006 213 1006 q 422 977 367 1006 q 506 901 476 949 q 536 800 536 854 q 528 741 536 769 q 503 692 519 713 l 503 688 q 510 688 506 688 q 521 686 514 688 q 677 635 610 678 q 782 518 744 592 q 819 343 819 444 q 794 193 819 260 q 724 81 769 126 q 615 10 678 35 q 474 -14 551 -14 m 476 94 q 597 125 550 94 q 665 212 643 156 q 688 343 688 268 q 665 473 688 418 q 597 558 643 528 q 475 588 550 588 q 314 521 364 588 q 264 343 264 454 q 285 213 264 268 q 354 126 307 157 q 476 94 401 94 m 290 653 q 380 688 349 653 q 411 778 411 722 q 381 866 411 829 q 290 903 351 903 q 200 866 229 903 q 171 778 171 829 q 200 691 171 729 q 290 653 229 653 z "},"Ⴆ":{"ha":1110,"x_min":7,"x_max":1032,"o":"m 654 -14 q 459 33 540 -14 q 335 167 378 81 q 292 371 292 253 l 292 883 l 7 883 l 7 992 l 417 992 l 417 736 q 416 703 417 724 q 414 660 415 683 q 410 617 413 638 l 418 617 q 535 726 471 694 q 688 758 599 758 q 874 709 797 758 q 991 573 950 660 q 1032 374 1032 486 q 987 168 1032 256 q 858 33 942 81 q 654 -14 774 -14 m 653 94 q 788 128 732 94 q 873 224 843 161 q 903 374 903 286 q 875 524 903 463 q 795 617 847 585 q 668 650 743 650 q 531 616 588 650 q 446 519 475 582 q 417 371 417 457 q 479 168 417 242 q 653 94 542 94 z "},"Ჟ":{"ha":906,"x_min":71,"x_max":783,"o":"m 451 -14 q 276 24 351 -14 q 158 127 200 61 q 115 279 115 193 q 119 333 115 306 q 132 388 124 360 l 258 388 q 249 338 253 361 q 246 293 246 314 q 300 146 246 197 q 451 94 354 94 q 572 122 526 94 q 638 201 617 150 q 658 319 658 251 l 658 889 q 539 854 599 867 q 422 835 479 842 l 422 833 q 486 779 463 817 q 510 693 510 742 q 481 599 510 640 q 401 533 451 557 q 285 508 350 508 q 174 532 222 508 q 98 595 125 556 q 71 682 71 635 q 72 706 71 693 q 78 729 74 718 l 186 729 q 184 713 185 719 q 183 699 183 706 q 210 633 183 658 q 285 608 238 608 q 364 635 335 608 q 393 704 393 663 q 365 785 393 757 q 275 814 336 813 l 275 904 q 483 937 379 917 q 671 992 588 957 l 783 992 l 783 315 q 745 138 783 213 q 633 25 707 64 q 451 -14 558 -14 z "},"Ⴏ":{"ha":1026,"x_min":14,"x_max":890,"o":"m 764 0 l 764 297 q 766 369 764 338 q 771 433 768 400 l 764 433 q 647 336 724 374 q 481 299 571 299 q 314 339 386 299 q 201 453 242 379 q 161 626 161 528 q 194 779 161 717 q 278 879 226 842 l 278 883 l 14 883 l 14 992 l 451 992 l 451 883 q 353 825 388 865 q 306 738 318 785 q 293 651 293 692 q 347 468 293 529 q 506 407 400 407 q 652 438 594 407 q 738 535 710 469 q 765 704 765 601 l 765 992 l 890 992 l 890 0 l 764 0 z "},"́":{"ha":0,"x_min":-451,"x_max":-172,"o":"m -172 1050 q -208 1003 -185 1031 q -260 945 -232 975 q -317 888 -289 915 q -371 842 -346 861 l -451 842 l -451 858 q -406 921 -431 885 q -358 995 -382 957 q -319 1064 -335 1033 l -172 1064 l -172 1050 z "},"ჽ":{"ha":768,"x_min":69,"x_max":699,"o":"m 388 -14 q 223 18 294 -14 q 110 114 151 50 q 69 275 69 178 q 73 331 69 307 q 83 374 76 354 l 211 374 q 201 334 206 360 q 196 276 196 308 q 251 134 196 179 q 388 89 307 89 q 522 140 471 89 q 572 276 572 190 q 545 392 572 350 q 472 460 518 433 q 369 517 426 488 q 217 607 278 564 q 125 703 156 650 q 94 828 94 756 q 128 956 94 901 q 227 1040 163 1010 q 383 1069 292 1069 q 540 1040 475 1069 q 638 957 604 1011 q 672 829 672 903 q 672 810 672 819 q 668 790 671 801 l 547 790 q 551 807 550 799 q 551 822 551 815 q 511 931 551 896 q 383 967 471 967 q 260 930 301 967 q 219 826 219 893 q 238 745 219 778 q 298 685 257 713 q 406 624 339 657 q 522 563 468 593 q 615 494 575 532 q 676 403 654 456 q 699 276 699 351 q 660 124 699 189 q 551 22 621 58 q 388 -14 482 -14 z "},"ⴭ":{"ha":653,"x_min":54,"x_max":599,"o":"m 599 0 l 54 0 l 54 81 l 454 650 l 78 650 l 78 744 l 589 744 l 589 653 l 194 94 l 599 94 l 599 0 z "},"ჺ":{"ha":675,"x_min":76,"x_max":621,"o":"m 160 -150 l 160 -40 l 296 13 l 296 17 q 180 82 229 36 q 103 199 131 128 q 76 368 76 271 q 122 592 76 506 q 247 718 168 678 q 425 758 325 758 q 535 747 482 758 q 621 718 588 735 l 583 617 q 506 640 550 629 q 422 651 461 651 q 299 619 347 651 q 226 525 250 588 q 203 369 203 463 q 226 218 203 281 q 297 124 250 156 q 415 92 344 92 q 523 104 476 92 q 608 135 569 117 l 608 18 l 160 -150 z "},"ა":{"ha":763,"x_min":69,"x_max":686,"o":"m 378 -14 q 222 18 292 -14 q 110 113 151 50 q 69 268 69 175 q 76 327 69 299 q 88 372 82 356 l 204 372 q 195 327 199 354 q 192 268 192 300 q 215 169 192 210 q 280 108 238 129 q 378 88 322 88 q 475 108 435 88 q 538 171 515 129 q 560 275 560 213 q 529 392 560 347 q 458 476 499 438 q 392 547 425 510 q 338 631 360 583 q 315 744 315 679 l 438 744 q 470 640 438 685 q 546 551 503 594 q 613 479 581 518 q 665 391 644 440 q 686 275 686 342 q 646 124 686 189 q 536 22 606 58 q 378 -14 467 -14 z "},"ⴀ":{"ha":963,"x_min":28,"x_max":858,"o":"m 511 0 q 349 24 411 0 q 258 100 286 49 q 229 231 229 151 l 229 547 q 207 622 229 600 q 142 643 185 643 l 28 643 l 28 744 l 210 744 q 290 723 256 744 q 346 643 325 701 l 353 643 q 415 708 378 682 q 496 746 451 733 q 588 758 540 758 q 790 694 721 758 q 858 485 858 629 l 858 347 l 736 347 l 736 476 q 696 611 736 567 q 569 656 656 656 q 440 624 488 656 q 372 533 392 593 q 351 386 351 474 l 351 243 q 390 131 351 164 q 521 99 428 99 l 810 99 l 810 0 l 511 0 z "},"ბ":{"ha":842,"x_min":76,"x_max":765,"o":"m 500 751 q 639 687 579 736 q 732 559 699 638 q 765 374 765 481 q 741 209 765 281 q 672 88 717 138 q 562 12 626 38 q 418 -14 497 -14 q 282 12 344 -14 q 174 88 219 38 q 102 209 128 138 q 76 374 76 281 q 113 572 76 489 q 219 701 150 654 q 383 757 289 749 q 395 787 390 769 q 400 826 400 804 q 387 870 400 853 q 354 903 374 888 q 297 959 325 926 q 269 1056 269 992 l 392 1056 q 407 1001 392 1024 q 444 960 422 979 q 496 908 472 936 q 519 835 519 879 q 515 790 519 810 q 500 751 510 769 m 421 88 q 544 122 496 88 q 616 222 593 157 q 639 374 639 286 q 615 525 639 463 q 544 622 592 588 q 419 656 496 656 q 254 581 306 656 q 203 374 203 506 q 226 222 203 286 q 297 122 249 157 q 421 88 346 88 z "},"ⴁ":{"ha":903,"x_min":114,"x_max":861,"o":"m 486 -347 q 367 -342 422 -347 q 265 -326 311 -337 q 181 -300 218 -315 l 181 -186 q 308 -229 233 -212 q 464 -246 382 -246 q 614 -227 553 -246 q 707 -172 675 -208 q 739 -83 739 -135 q 728 -19 739 -46 q 703 28 718 7 q 671 78 685 53 q 650 136 657 104 l 644 136 q 577 50 617 83 q 489 1 538 17 q 383 -14 440 -14 q 234 15 294 -14 q 144 103 174 43 q 114 257 114 163 l 114 744 l 236 744 l 236 265 q 276 131 236 175 q 401 88 317 88 q 569 151 517 88 q 621 357 621 215 l 621 744 l 743 744 l 743 222 q 758 153 743 183 q 793 96 772 124 q 841 18 821 60 q 861 -92 861 -24 q 817 -228 861 -171 q 688 -316 772 -285 q 486 -347 604 -347 z "},"ც":{"ha":919,"x_min":76,"x_max":850,"o":"m 483 -347 q 298 -309 375 -347 q 172 -198 221 -271 q 100 -19 124 -125 q 76 219 76 86 q 92 415 76 319 q 137 595 108 511 q 201 744 165 679 l 324 744 q 259 594 288 679 q 215 415 231 510 q 199 222 199 319 q 226 -27 199 78 q 316 -188 253 -132 q 485 -244 379 -244 q 662 -186 600 -244 q 724 -10 724 -128 q 701 99 724 49 q 628 180 678 149 q 500 211 579 211 l 438 211 l 438 313 l 529 313 q 625 328 589 313 q 678 370 661 343 q 696 435 696 397 q 677 514 696 483 q 631 564 658 544 q 554 634 588 596 q 521 744 521 672 l 643 744 q 671 682 646 708 q 729 629 696 656 q 795 558 768 599 q 822 449 822 518 q 770 324 822 364 q 640 264 718 283 l 640 258 q 741 216 693 249 q 819 124 789 183 q 850 -25 850 65 q 807 -191 850 -118 q 682 -306 764 -264 q 483 -347 600 -347 z "},"ⴚ":{"ha":857,"x_min":118,"x_max":746,"o":"m 429 -347 q 196 -267 274 -347 q 118 -26 118 -186 l 118 744 l 217 744 l 235 643 l 242 643 q 301 706 265 681 q 381 745 336 732 q 476 758 426 758 q 679 692 613 758 q 746 485 746 625 l 746 0 l 625 0 l 625 476 q 585 611 625 567 q 458 656 544 656 q 292 592 344 656 q 240 386 240 529 l 240 -42 q 290 -197 240 -147 q 439 -246 340 -246 q 588 -230 517 -246 q 708 -187 658 -214 l 708 -300 q 586 -335 656 -324 q 429 -347 517 -347 z "},"ჭ":{"ha":814,"x_min":69,"x_max":738,"o":"m 415 -347 q 285 -324 344 -347 q 183 -259 226 -301 q 117 -159 140 -217 q 94 -32 94 -101 q 102 44 94 8 q 119 103 110 79 l 236 103 q 223 45 229 81 q 217 -21 217 10 q 238 -133 217 -82 q 304 -215 260 -185 q 415 -246 349 -246 q 530 -212 488 -246 q 592 -126 572 -179 q 611 -12 611 -72 q 596 93 611 49 q 557 178 581 138 q 506 278 531 224 q 471 394 482 333 l 467 394 q 385 331 432 350 q 281 311 339 311 q 184 335 233 311 q 102 407 135 358 q 69 528 69 456 q 103 651 69 603 q 192 722 138 699 q 307 744 247 744 l 449 744 l 449 1056 l 568 1056 l 568 744 l 738 744 l 738 643 l 568 643 l 568 496 q 597 356 568 415 q 663 235 626 296 q 716 122 694 183 q 738 -18 738 60 q 699 -187 738 -112 q 590 -304 661 -261 q 415 -347 518 -347 m 317 411 q 417 453 386 411 q 449 546 449 494 l 449 643 l 321 643 q 224 611 256 643 q 192 528 192 579 q 226 442 192 472 q 317 411 261 411 z "},"ⴝ":{"ha":851,"x_min":118,"x_max":747,"o":"m 404 -347 q 242 -335 313 -347 q 119 -300 172 -324 l 119 -187 q 244 -231 172 -215 q 394 -246 315 -246 q 569 -209 517 -246 q 621 -117 621 -172 q 598 -43 621 -68 q 539 -9 575 -18 q 461 0 503 0 l 118 0 l 118 744 l 217 744 l 235 643 l 242 643 q 303 708 267 682 q 385 746 340 733 q 476 758 429 758 q 678 694 610 758 q 747 485 747 629 l 747 347 l 625 347 l 625 476 q 585 611 625 567 q 458 656 544 656 q 328 624 376 656 q 260 533 281 593 q 240 386 240 474 l 240 99 l 474 99 q 605 78 543 99 q 705 12 667 58 q 743 -117 743 -35 q 707 -231 743 -178 q 597 -315 671 -283 q 404 -347 522 -347 z "},"ჩ":{"ha":826,"x_min":104,"x_max":750,"o":"m 104 0 l 104 814 q 135 945 104 888 q 222 1036 165 1003 q 358 1069 279 1069 q 485 1042 429 1069 q 573 966 540 1014 q 606 856 606 918 q 586 767 606 808 q 521 693 567 725 l 521 689 q 688 579 625 665 q 750 357 750 493 q 738 221 750 290 q 710 94 726 151 q 676 0 693 36 l 551 0 q 585 99 568 43 q 613 218 601 154 q 624 347 624 282 q 599 485 624 429 q 531 571 574 542 q 431 600 488 600 q 322 572 368 600 q 251 489 276 544 q 226 349 226 433 l 226 0 l 104 0 m 219 589 l 228 589 q 274 641 246 618 q 349 686 301 664 q 418 725 389 706 q 463 772 447 744 q 478 843 478 800 q 444 931 478 899 q 354 964 411 964 q 263 927 300 964 q 226 821 226 890 l 226 679 q 226 651 226 667 q 224 619 225 635 q 219 589 222 604 z "},"ⴙ":{"ha":857,"x_min":118,"x_max":746,"o":"m 118 -333 l 118 1056 l 240 1056 l 240 746 q 238 690 240 715 q 233 642 236 664 l 242 642 q 299 703 264 678 q 378 743 333 729 q 474 757 422 757 q 624 728 564 757 q 715 640 685 700 q 746 485 746 581 l 746 0 l 625 0 l 625 476 q 585 611 625 567 q 458 656 544 656 q 335 628 383 656 q 263 541 286 600 q 240 385 240 482 l 240 -333 l 118 -333 z "},"წ":{"ha":840,"x_min":104,"x_max":786,"o":"m 433 -14 q 254 28 328 -14 q 142 153 181 71 q 104 357 104 236 l 104 838 q 135 968 104 917 q 216 1044 165 1019 q 326 1069 267 1069 q 424 1050 375 1069 q 499 968 472 1031 l 503 968 q 571 1050 529 1031 q 656 1069 613 1069 q 728 1061 696 1069 q 786 1042 760 1053 l 756 949 q 708 963 733 956 q 657 969 683 969 q 590 945 619 969 q 560 874 560 921 l 560 807 l 442 807 l 442 874 q 413 945 442 918 q 336 972 383 972 q 278 956 303 972 q 240 910 253 940 q 226 835 226 879 l 226 701 q 224 651 226 679 q 218 607 221 622 l 226 607 q 281 663 250 638 q 356 702 313 688 q 457 717 400 717 q 619 674 550 717 q 726 551 688 632 q 764 357 764 471 q 722 153 764 236 q 606 28 681 71 q 433 -14 532 -14 m 433 88 q 548 120 503 88 q 615 213 593 153 q 638 354 638 272 q 616 488 638 429 q 551 581 594 547 q 440 615 507 615 q 311 583 358 615 q 244 493 264 551 q 225 356 225 435 l 225 333 q 272 157 225 226 q 433 88 319 88 z "},"ⴜ":{"ha":1297,"x_min":118,"x_max":1186,"o":"m 118 -333 l 118 744 l 217 744 l 235 643 l 242 643 q 297 705 264 679 q 372 744 329 731 q 461 758 414 758 q 606 727 549 758 q 689 633 663 696 l 696 633 q 794 726 732 693 q 935 758 856 758 q 1124 693 1061 758 q 1186 485 1186 628 l 1186 0 l 1065 0 l 1065 479 q 1028 612 1065 568 q 914 656 990 656 q 762 595 811 656 q 713 411 713 535 l 713 0 l 592 0 l 592 479 q 576 578 592 539 q 526 636 560 617 q 439 656 492 656 q 326 628 371 656 q 261 542 282 601 q 240 386 240 482 l 240 -333 l 118 -333 z "},"̂":{"ha":0,"x_min":-232,"x_max":238,"o":"m 64 1064 q 112 995 81 1033 q 177 920 143 957 q 238 857 211 883 l 238 842 l 151 842 q 76 897 115 864 q 0 967 38 929 q -75 897 -37 929 q -149 842 -112 865 l -232 842 l -232 857 q -173 921 -206 885 q -110 995 -140 957 q -61 1064 -79 1033 l 64 1064 z "},"̈":{"ha":0,"x_min":-196,"x_max":194,"o":"m -196 946 q -176 998 -196 982 q -131 1014 -157 1014 q -85 998 -104 1014 q -65 946 -65 982 q -85 894 -65 911 q -131 876 -104 876 q -176 894 -157 876 q -196 946 -196 911 m 65 946 q 84 998 65 982 q 129 1014 103 1014 q 175 998 156 1014 q 194 946 194 982 q 175 894 194 911 q 129 876 156 876 q 84 894 103 876 q 65 946 65 911 z "},"დ":{"ha":1224,"x_min":76,"x_max":1147,"o":"m 761 -347 q 677 -246 731 -289 q 563 -180 624 -203 q 449 -157 503 -157 q 343 -169 390 -157 q 239 -208 296 -182 l 197 -122 q 271 -94 229 -107 q 376 -79 313 -82 l 376 -75 q 215 36 282 -29 q 112 191 147 101 q 76 394 76 281 q 108 581 76 499 q 201 711 139 664 q 353 758 263 758 q 458 741 413 758 q 535 689 503 724 q 582 601 567 654 l 589 601 q 685 719 618 681 q 831 758 753 758 q 998 714 926 758 q 1108 585 1069 669 q 1147 381 1147 500 q 1123 219 1147 290 q 1056 100 1099 149 q 956 26 1014 51 q 832 0 899 0 q 701 26 760 0 q 601 100 643 51 q 537 219 560 149 q 514 381 514 290 l 514 449 q 471 606 514 556 q 357 657 428 657 q 274 626 310 657 q 220 538 239 596 q 201 397 201 481 q 226 227 201 299 q 292 105 250 156 q 390 19 335 54 q 504 -42 444 -15 q 651 -109 585 -76 q 769 -185 718 -142 q 854 -297 819 -229 l 761 -347 m 829 101 q 938 136 896 101 q 1001 233 981 171 q 1021 381 1021 296 q 975 582 1021 508 q 831 656 929 656 q 687 582 733 656 q 640 381 640 508 q 660 233 640 296 q 723 136 681 171 q 829 101 765 101 z "},"ⴃ":{"ha":842,"x_min":76,"x_max":765,"o":"m 418 -14 q 238 28 315 -14 q 119 152 161 71 q 76 347 76 233 q 97 477 76 418 q 158 584 118 536 q 255 668 197 632 q 388 729 313 704 q 356 823 365 772 q 347 925 347 874 l 347 954 l 115 954 l 115 1056 l 726 1056 l 726 954 l 469 954 l 469 925 q 478 829 469 869 q 512 755 486 789 q 588 682 538 721 q 689 583 650 635 q 747 472 728 531 q 765 342 765 413 q 723 149 765 228 q 603 28 681 69 q 418 -14 525 -14 m 418 88 q 582 149 525 88 q 639 340 639 210 q 624 439 639 393 q 581 524 610 485 q 507 597 551 564 q 473 626 489 613 q 446 650 457 639 q 340 603 386 632 q 265 538 294 575 q 219 452 235 500 q 204 344 204 404 q 263 157 204 226 q 418 88 321 88 z "},"ჸ":{"ha":828,"x_min":104,"x_max":751,"o":"m 426 -347 q 253 -306 325 -347 q 142 -184 181 -264 q 104 8 104 -104 l 104 744 l 226 744 l 226 510 q 251 391 226 439 q 324 319 275 343 q 444 294 372 294 q 543 317 503 294 q 604 388 583 340 q 625 507 625 435 q 610 638 625 585 q 575 744 596 690 l 697 744 q 735 639 719 697 q 751 510 751 581 q 717 332 751 403 q 619 227 683 261 q 460 193 554 193 q 326 222 388 193 q 228 308 264 251 l 219 308 q 224 276 222 293 q 226 241 225 258 q 226 204 226 224 l 226 14 q 247 -124 226 -65 q 311 -214 267 -182 q 426 -246 356 -246 q 537 -219 493 -246 q 603 -147 581 -192 q 625 -49 625 -103 q 621 10 625 -18 q 610 61 617 39 l 726 61 q 742 9 736 38 q 747 -60 747 -19 q 724 -177 747 -124 q 658 -268 701 -231 q 556 -326 615 -306 q 426 -347 497 -347 z "},"ე":{"ha":817,"x_min":69,"x_max":713,"o":"m 390 -347 q 260 -324 319 -347 q 158 -258 201 -301 q 92 -153 115 -214 q 69 -18 69 -93 q 77 58 69 22 q 94 117 85 93 l 211 117 q 198 59 204 94 q 192 -7 192 24 q 213 -129 192 -75 q 279 -215 235 -183 q 390 -246 324 -246 q 506 -214 463 -246 q 570 -124 550 -182 q 590 14 590 -65 l 590 436 q 547 599 590 542 q 414 657 504 657 q 319 636 360 657 q 255 576 278 615 q 232 476 232 536 q 235 419 232 446 q 244 372 239 392 l 128 372 q 116 417 122 389 q 110 476 110 446 q 151 632 110 569 q 260 726 192 694 q 414 758 329 758 q 572 721 504 758 q 676 613 639 683 q 713 442 713 543 l 713 8 q 674 -184 713 -104 q 565 -306 636 -264 q 390 -347 493 -347 z "},"ⴄ":{"ha":858,"x_min":118,"x_max":747,"o":"m 476 758 q 678 694 610 758 q 747 485 747 629 l 747 -333 l 625 -333 l 625 476 q 585 611 625 567 q 458 656 544 656 q 288 586 335 656 q 240 386 240 517 l 240 0 l 118 0 l 118 744 l 217 744 l 235 643 l 242 643 q 303 708 267 682 q 385 746 340 733 q 476 758 429 758 z "},"ჶ":{"ha":1286,"x_min":76,"x_max":1210,"o":"m 521 -347 q 465 -341 490 -347 q 424 -325 439 -335 l 424 -232 q 456 -242 435 -237 q 496 -247 478 -247 q 560 -222 539 -247 q 582 -114 582 -196 l 582 -14 q 585 44 582 10 q 590 96 588 78 l 582 96 q 524 35 557 60 q 452 -2 492 10 q 365 -14 413 -14 q 153 88 229 -14 q 76 374 76 190 q 152 658 76 557 q 364 758 228 758 q 452 746 413 758 q 524 708 492 733 q 582 644 557 682 l 588 644 q 584 697 586 669 q 582 758 582 724 l 582 838 q 607 979 582 929 q 674 1049 632 1029 q 765 1069 717 1069 q 822 1063 796 1069 q 863 1047 849 1057 l 863 954 q 831 965 851 960 q 790 969 810 969 q 726 944 747 969 q 704 836 704 918 l 704 758 q 703 697 704 724 q 699 644 701 669 l 704 644 q 762 708 729 682 q 835 746 794 733 q 922 758 875 758 q 1134 658 1058 758 q 1210 374 1210 557 q 1133 88 1210 190 q 921 -14 1057 -14 q 835 -2 875 -14 q 763 35 796 10 q 704 96 731 60 l 696 96 q 701 44 699 78 q 704 -14 704 10 l 704 -115 q 679 -256 704 -206 q 613 -327 654 -307 q 521 -347 571 -347 m 385 88 q 535 153 488 88 q 583 375 583 219 l 583 397 q 536 597 583 536 q 386 657 489 657 q 250 586 297 657 q 203 376 203 515 q 250 163 203 238 q 385 88 297 88 m 901 88 q 1036 163 989 88 q 1083 376 1083 238 q 1037 586 1083 515 q 900 657 990 657 q 751 597 799 657 q 703 397 703 536 l 703 375 q 751 153 703 219 q 901 88 799 88 z "},"გ":{"ha":828,"x_min":69,"x_max":758,"o":"m 411 -347 q 275 -322 338 -347 q 167 -248 213 -296 q 95 -131 121 -200 q 69 26 69 -61 q 109 222 69 143 q 221 344 149 300 q 393 401 293 389 q 508 449 474 413 q 543 539 543 485 q 508 627 543 593 q 410 661 474 661 q 313 629 346 661 q 279 542 279 597 q 281 520 279 532 q 285 496 283 508 l 165 496 q 159 529 161 513 q 157 561 157 546 q 188 664 157 619 q 276 733 219 708 q 410 758 333 758 q 542 732 485 758 q 633 658 600 706 q 665 550 665 611 q 633 438 665 486 q 533 369 601 390 l 533 365 q 662 292 613 343 q 735 173 711 242 q 758 26 758 104 q 734 -131 758 -61 q 665 -248 710 -200 q 556 -322 619 -296 q 411 -347 492 -347 m 414 -246 q 538 -212 489 -246 q 609 -116 586 -178 q 632 26 632 -54 q 608 168 632 108 q 537 261 585 228 q 413 294 489 294 q 247 222 299 294 q 196 26 196 149 q 219 -116 196 -54 q 290 -212 242 -178 q 414 -246 339 -246 z "},"ⴂ":{"ha":906,"x_min":118,"x_max":864,"o":"m 489 -347 q 369 -342 425 -347 q 267 -326 314 -337 q 183 -300 221 -315 l 183 -186 q 310 -229 236 -212 q 467 -246 385 -246 q 617 -227 556 -246 q 710 -172 678 -208 q 742 -83 742 -135 q 729 -16 742 -43 q 697 36 717 11 q 648 117 671 72 q 625 231 625 161 l 625 476 q 585 611 625 567 q 458 656 544 656 q 288 586 335 656 q 240 386 240 517 l 240 0 l 118 0 l 118 744 l 217 744 l 235 643 l 242 643 q 303 708 267 682 q 385 746 340 733 q 476 758 429 758 q 678 694 610 758 q 746 485 746 629 l 746 236 q 763 153 746 186 q 806 83 779 119 q 847 11 829 53 q 864 -92 864 -31 q 819 -228 864 -171 q 691 -316 775 -285 q 489 -347 607 -347 z "},"ღ":{"ha":1117,"x_min":76,"x_max":1040,"o":"m 719 -347 q 642 -246 689 -289 q 542 -180 596 -203 q 435 -157 489 -157 q 329 -169 376 -157 q 225 -208 282 -182 l 183 -122 q 258 -94 215 -107 q 365 -79 300 -82 l 365 -75 q 149 106 221 -7 q 76 381 76 219 q 108 579 76 494 q 203 711 140 664 q 358 758 265 758 q 484 723 436 758 q 554 626 532 688 l 561 626 q 635 723 585 688 q 758 758 685 758 q 914 711 851 758 q 1008 580 976 664 q 1040 383 1040 496 q 1022 218 1040 294 q 964 68 1003 142 l 858 107 q 903 240 890 175 q 915 385 915 304 q 896 535 915 475 q 840 626 876 596 q 749 657 803 657 q 651 610 686 657 q 617 476 617 563 l 617 253 l 500 253 l 500 476 q 468 606 500 554 q 367 657 436 657 q 244 588 288 657 q 201 383 201 519 q 224 222 201 290 q 285 103 246 153 q 378 19 325 54 q 490 -42 431 -15 q 631 -109 571 -76 q 734 -185 690 -142 q 813 -297 778 -229 l 719 -347 z "},"ⴖ":{"ha":858,"x_min":118,"x_max":747,"o":"m 476 758 q 678 694 610 758 q 747 485 747 629 l 747 0 l 625 0 l 625 476 q 585 611 625 567 q 458 656 544 656 q 288 586 335 656 q 240 386 240 517 l 240 0 l 118 0 l 118 744 l 217 744 l 235 643 l 242 643 q 303 708 267 682 q 385 746 340 733 q 476 758 429 758 z "},"ჰ":{"ha":788,"x_min":67,"x_max":711,"o":"m 389 -14 q 214 23 286 -14 q 104 118 142 60 q 67 243 67 176 q 69 274 67 258 q 75 304 71 289 l 192 304 q 189 284 190 294 q 188 263 188 274 q 208 176 188 217 q 272 112 228 136 q 389 88 317 88 q 501 106 458 88 q 565 155 544 125 q 585 219 585 185 q 546 316 585 276 q 403 356 507 356 l 326 356 l 326 457 l 432 457 q 535 478 500 457 q 571 551 571 499 q 533 620 571 597 q 417 643 496 643 l 326 643 l 326 744 l 432 744 q 522 767 500 744 q 543 817 543 790 q 515 869 543 851 q 449 900 486 886 q 379 929 414 913 q 322 975 344 946 q 299 1056 299 1004 l 421 1056 q 456 1007 424 1025 q 531 974 488 989 q 596 944 564 961 q 649 899 628 926 q 669 825 669 871 q 631 748 669 782 q 529 701 592 714 l 529 696 q 600 678 561 693 q 668 632 639 663 q 697 551 697 601 q 671 463 697 494 q 606 419 644 432 q 529 400 567 406 l 529 394 q 624 364 583 386 q 688 306 665 342 q 711 217 711 269 q 669 100 711 153 q 553 17 626 47 q 389 -14 481 -14 z "},"ⴠ":{"ha":1308,"x_min":118,"x_max":1190,"o":"m 846 -14 q 706 15 763 -14 q 622 103 650 43 q 593 257 593 163 l 593 476 q 556 611 593 567 q 440 656 519 656 q 326 628 371 656 q 261 541 282 600 q 240 386 240 482 l 240 0 l 118 0 l 118 744 l 218 744 l 235 643 l 242 643 q 297 705 264 679 q 372 744 331 731 q 461 758 414 758 q 652 692 589 758 q 715 485 715 625 l 715 265 q 753 131 715 175 q 867 88 790 88 q 1019 151 971 88 q 1068 357 1068 215 l 1068 744 l 1190 744 l 1190 0 l 1090 0 l 1072 99 l 1067 99 q 1013 38 1046 64 q 939 -1 981 13 q 846 -14 897 -14 z "},"ჴ":{"ha":793,"x_min":69,"x_max":724,"o":"m 392 -347 q 226 -315 299 -347 q 111 -221 153 -283 q 69 -65 69 -158 q 76 -6 69 -35 q 88 39 82 22 l 204 39 q 195 -6 199 21 q 192 -65 192 -33 q 215 -164 192 -124 q 284 -225 239 -204 q 392 -246 329 -246 q 507 -215 461 -246 q 575 -133 553 -185 q 597 -19 597 -81 q 574 90 597 39 q 502 172 551 140 q 374 203 453 203 l 311 203 l 311 304 l 389 304 q 485 324 449 304 q 538 378 521 343 q 556 458 556 413 q 535 531 556 501 q 482 581 515 560 q 410 618 449 601 q 303 672 357 642 q 215 749 250 703 q 179 865 179 794 q 208 975 179 929 q 288 1045 236 1021 q 410 1069 339 1069 q 512 1056 463 1069 q 607 1018 561 1043 l 565 921 q 485 956 522 944 q 411 968 447 968 q 325 943 354 968 q 296 872 296 918 q 319 803 296 831 q 378 755 342 775 q 457 715 415 735 q 562 663 510 692 q 648 587 614 633 q 682 464 682 540 q 630 323 682 371 q 500 256 578 275 l 500 250 q 604 208 553 240 q 690 116 656 175 q 724 -33 724 57 q 683 -199 724 -128 q 567 -308 642 -269 q 392 -347 493 -347 z "},"ⴤ":{"ha":826,"x_min":113,"x_max":715,"o":"m 353 -333 l 353 -6 q 176 78 239 7 q 113 268 113 150 l 113 744 l 235 744 l 235 265 q 279 135 235 181 q 415 89 324 89 q 547 135 501 89 q 593 265 593 181 l 593 744 l 715 744 l 715 265 q 652 81 715 151 q 475 -6 589 10 l 475 -333 l 353 -333 z "},"ჾ":{"ha":811,"x_min":76,"x_max":735,"o":"m 90 744 q 262 729 186 744 q 406 678 338 714 q 549 729 474 714 q 721 744 625 744 l 721 644 q 619 640 665 644 q 511 625 572 635 l 511 621 q 635 536 585 589 q 710 420 685 483 q 735 292 735 357 q 714 177 735 232 q 651 79 693 122 q 549 11 610 36 q 406 -14 488 -14 q 263 11 325 -14 q 160 79 201 36 q 97 177 118 122 q 76 292 76 232 q 101 420 76 357 q 176 536 126 483 q 300 621 226 589 l 300 625 q 193 640 240 635 q 90 644 146 644 l 90 744 m 406 585 q 299 515 344 556 q 227 419 253 474 q 201 290 201 364 q 225 190 201 236 q 294 115 249 143 q 406 88 339 88 q 517 115 472 88 q 586 190 563 143 q 610 290 610 236 q 584 419 610 364 q 513 515 558 474 q 406 585 467 556 z "},"ჱ":{"ha":926,"x_min":76,"x_max":850,"o":"m 511 -14 q 258 53 353 -14 q 119 248 163 121 q 76 553 76 375 q 92 733 76 642 q 137 907 108 824 q 201 1056 165 990 l 324 1056 q 259 906 288 990 q 215 732 231 822 q 199 556 199 642 q 227 306 199 411 q 324 144 256 200 q 513 88 393 88 q 665 124 607 88 q 724 219 724 160 q 685 316 724 276 q 542 356 646 356 l 465 356 l 465 457 l 571 457 q 674 478 639 457 q 710 551 710 499 q 672 620 710 597 q 556 643 635 643 l 465 643 l 465 744 l 571 744 q 640 758 617 744 q 673 789 664 771 q 682 822 682 807 q 663 877 682 858 q 617 910 643 896 q 567 940 592 924 q 524 985 542 957 q 507 1056 507 1013 l 629 1056 q 653 1006 629 1025 q 707 972 676 988 q 776 923 744 954 q 808 826 808 892 q 769 744 808 775 q 668 701 731 714 l 668 696 q 739 678 700 693 q 807 632 778 663 q 836 551 836 601 q 810 463 836 494 q 744 419 783 432 q 668 400 706 406 l 668 394 q 763 364 722 386 q 827 306 804 342 q 850 217 850 269 q 808 98 850 150 q 690 16 765 46 q 511 -14 614 -14 z "},"ⴡ":{"ha":804,"x_min":118,"x_max":776,"o":"m 118 -333 l 118 1056 l 240 1056 l 240 664 l 247 664 q 287 715 261 694 q 349 747 313 736 q 426 758 385 758 q 562 713 513 758 q 611 588 611 668 q 632 497 611 521 q 707 472 653 472 l 776 472 l 776 369 l 671 369 q 574 390 615 369 q 510 445 532 410 q 488 528 488 481 q 463 624 488 593 q 382 656 438 656 q 306 635 338 656 q 257 573 274 614 q 240 469 240 532 l 240 -333 l 118 -333 z "},"ჲ":{"ha":811,"x_min":76,"x_max":735,"o":"m 90 0 l 90 100 q 193 105 146 100 q 300 119 240 110 l 300 124 q 176 209 226 157 q 101 325 126 261 q 76 453 76 389 q 97 567 76 513 q 160 665 118 622 q 263 733 201 708 q 406 758 325 758 q 549 733 488 758 q 651 665 610 708 q 714 567 693 622 q 735 453 735 513 q 710 325 735 389 q 635 209 685 261 q 511 124 585 157 l 511 119 q 619 105 572 110 q 721 100 665 100 l 721 0 q 549 16 625 0 q 406 67 474 32 q 262 16 338 32 q 90 0 186 0 m 406 160 q 513 230 467 189 q 584 326 558 271 q 610 454 610 382 q 586 556 610 510 q 517 629 563 601 q 406 657 472 657 q 294 629 339 657 q 225 556 249 601 q 201 454 201 510 q 227 326 201 382 q 299 230 253 271 q 406 160 344 189 z "},"ⴢ":{"ha":838,"x_min":76,"x_max":761,"o":"m 408 -14 q 234 25 308 -14 q 118 130 160 64 q 76 276 76 196 q 79 315 76 296 q 88 356 82 335 l 211 356 q 205 321 207 338 q 203 289 203 304 q 260 144 203 200 q 408 89 318 89 q 531 122 481 89 q 608 219 582 156 q 635 372 635 282 q 570 575 635 507 q 378 643 506 643 l 113 643 l 113 744 l 375 744 q 588 703 503 744 q 717 581 674 663 q 761 375 761 499 q 718 167 761 254 q 596 33 675 79 q 408 -14 517 -14 z "},"ჵ":{"ha":919,"x_min":76,"x_max":865,"o":"m 393 -14 q 160 52 243 -14 q 76 236 76 118 q 157 409 76 347 q 386 471 238 471 l 588 471 l 588 611 l 358 611 q 163 669 231 611 q 96 835 96 728 q 177 1006 96 943 q 403 1069 258 1069 q 572 1036 504 1069 q 675 938 640 1003 q 710 781 710 874 l 710 714 l 865 714 l 865 611 l 710 611 l 710 471 l 865 471 l 865 368 l 710 368 l 710 293 q 630 64 710 142 q 393 -14 550 -14 m 399 89 q 542 141 497 89 q 588 300 588 193 l 588 368 l 372 368 q 247 334 292 368 q 203 235 203 300 q 253 128 203 167 q 399 89 303 89 m 368 714 l 588 714 l 588 783 q 541 922 588 878 q 400 967 494 967 q 269 934 315 967 q 222 836 222 901 q 259 744 222 775 q 368 714 296 714 z "},"ⴥ":{"ha":1289,"x_min":76,"x_max":1178,"o":"m 922 757 q 1064 728 1007 757 q 1149 640 1121 700 q 1178 485 1178 581 l 1178 0 l 1057 0 l 1057 476 q 1020 611 1057 567 q 904 656 983 656 q 752 592 800 656 q 704 385 704 529 l 704 0 l 606 0 l 588 100 l 582 100 q 524 38 557 63 q 452 -1 492 13 q 364 -14 413 -14 q 152 87 228 -14 q 76 371 76 188 q 153 656 76 554 q 365 758 229 758 q 452 747 413 758 q 524 710 492 735 q 582 649 557 686 l 590 649 q 585 702 588 668 q 582 758 582 736 l 582 783 q 653 987 582 918 q 875 1056 724 1056 l 1142 1056 l 1142 953 l 885 953 q 747 912 789 953 q 704 783 704 871 l 704 746 q 702 690 704 715 q 697 642 700 664 l 706 642 q 763 706 729 681 q 837 744 796 731 q 922 757 878 757 m 583 347 l 583 369 q 535 591 583 525 q 385 657 488 657 q 250 582 297 657 q 203 368 203 507 q 250 158 203 229 q 386 88 297 88 q 536 148 489 88 q 583 347 583 208 z "},"-":{"ha":447,"x_min":56,"x_max":392,"o":"m 56 318 l 56 426 l 392 426 l 392 318 l 56 318 z "},"‐":{"ha":447,"x_min":56,"x_max":392,"o":"m 56 318 l 56 426 l 392 426 l 392 318 l 56 318 z "},"ი":{"ha":797,"x_min":76,"x_max":721,"o":"m 161 0 q 114 125 133 65 q 85 248 94 185 q 76 383 76 311 q 113 581 76 497 q 222 712 150 665 q 399 758 294 758 q 577 712 506 758 q 685 581 649 665 q 721 383 721 497 q 712 248 721 311 q 684 125 703 185 q 636 0 665 65 l 511 0 q 576 187 556 99 q 596 385 596 275 q 572 535 596 475 q 505 626 549 596 q 399 657 461 657 q 292 626 336 657 q 225 535 249 596 q 201 385 201 475 q 210 249 201 311 q 238 126 219 186 q 286 0 257 65 l 161 0 z "},"ⴈ":{"ha":617,"x_min":28,"x_max":506,"o":"m 383 0 l 383 506 q 347 608 383 574 q 235 643 310 643 l 28 643 l 28 744 l 256 744 q 394 718 339 744 q 478 639 450 692 q 506 506 506 586 l 506 0 l 383 0 z "},"ჯ":{"ha":788,"x_min":69,"x_max":718,"o":"m 456 447 q 474 360 456 400 q 523 284 493 319 q 586 213 553 249 q 649 137 619 176 q 699 50 679 97 q 718 -57 718 3 q 676 -212 718 -147 q 561 -312 635 -278 q 390 -347 488 -347 q 260 -326 319 -347 q 158 -268 201 -306 q 92 -177 115 -231 q 69 -60 69 -124 q 75 9 69 -19 q 90 61 81 38 l 207 61 q 196 10 200 39 q 192 -49 192 -18 q 213 -147 192 -103 q 279 -219 235 -192 q 390 -246 324 -246 q 492 -224 447 -246 q 565 -162 538 -203 q 592 -65 592 -122 q 575 24 592 -15 q 532 99 558 64 q 475 165 506 133 q 409 244 442 203 q 355 333 376 285 q 333 439 333 382 l 333 490 l 83 535 l 83 636 l 333 592 l 333 757 l 456 757 l 456 569 l 704 525 l 704 424 l 456 468 l 456 447 z "},"ⴟ":{"ha":775,"x_min":-87,"x_max":750,"o":"m -87 -333 l 364 339 l 147 650 l 33 650 l 33 744 l 729 744 l 729 653 l 508 339 l 750 0 l 611 0 l 438 256 l 50 -333 l -87 -333 m 438 422 l 593 650 l 282 650 l 438 422 z "},"ძ":{"ha":840,"x_min":76,"x_max":736,"o":"m 407 -14 q 235 29 310 -14 q 118 158 160 72 q 76 371 76 243 q 160 660 76 563 q 383 758 244 758 q 485 744 442 758 q 560 704 528 729 q 614 649 592 679 l 622 649 q 617 702 621 667 q 614 758 614 738 l 614 1056 l 736 1056 l 736 371 q 651 83 736 179 q 407 -14 567 -14 m 407 88 q 568 158 521 88 q 615 347 615 229 l 615 369 q 569 583 615 508 q 400 657 524 657 q 252 578 301 657 q 203 368 203 500 q 253 161 203 235 q 407 88 303 88 z "},"ⴛ":{"ha":1289,"x_min":76,"x_max":1178,"o":"m 364 -14 q 152 87 228 -14 q 76 371 76 188 q 153 656 76 554 q 365 758 229 758 q 452 747 413 758 q 524 710 492 735 q 582 649 557 686 l 590 649 q 585 702 588 668 q 582 758 582 736 l 582 1056 l 704 1056 l 704 746 q 702 690 704 715 q 697 642 700 664 l 706 642 q 763 706 729 681 q 837 744 796 731 q 922 757 878 757 q 1064 728 1007 757 q 1149 640 1121 700 q 1178 485 1178 581 l 1178 0 l 1057 0 l 1057 476 q 1020 611 1057 567 q 904 656 983 656 q 752 592 800 656 q 704 385 704 529 l 704 0 l 606 0 l 588 100 l 582 100 q 524 38 557 63 q 452 -1 492 13 q 364 -14 413 -14 m 386 88 q 536 148 489 88 q 583 347 583 208 l 583 369 q 535 591 583 525 q 385 657 488 657 q 250 582 297 657 q 203 368 203 507 q 250 158 203 229 q 386 88 297 88 z "},"კ":{"ha":786,"x_min":63,"x_max":717,"o":"m 383 -347 q 216 -308 289 -347 q 103 -200 143 -268 q 63 -46 63 -132 q 70 30 63 -6 q 88 89 78 65 l 204 89 q 191 31 197 67 q 185 -35 185 -4 q 206 -137 185 -89 q 272 -215 228 -185 q 383 -246 317 -246 q 500 -215 454 -246 q 568 -131 546 -183 q 590 -14 590 -78 q 565 110 590 56 q 492 198 540 165 q 372 231 443 231 l 318 231 l 318 332 l 382 332 q 489 356 449 332 q 548 418 529 381 q 567 494 567 456 q 547 576 567 539 q 492 635 528 613 q 406 657 456 657 l 406 758 q 550 724 486 758 q 651 634 614 690 q 689 511 689 578 q 635 365 689 425 q 494 285 582 304 l 494 279 q 603 235 553 271 q 685 137 654 200 q 717 -19 717 74 q 675 -192 717 -118 q 559 -307 633 -267 q 383 -347 485 -347 z "},"ⴉ":{"ha":879,"x_min":113,"x_max":768,"o":"m 646 -333 l 646 -56 q 648 17 646 -21 q 653 97 650 56 l 646 97 q 551 14 608 42 q 415 -14 493 -14 q 191 88 269 -14 q 113 371 113 189 l 113 1056 l 235 1056 l 235 799 q 233 726 235 764 q 228 646 231 688 l 235 646 q 331 729 272 701 q 465 757 389 757 q 690 655 611 757 q 768 371 768 553 l 768 -333 l 646 -333 m 436 88 q 553 114 507 88 q 623 197 600 140 q 646 344 646 254 l 646 374 q 623 529 646 467 q 555 624 600 592 q 444 656 510 656 q 327 629 374 656 q 258 547 281 603 q 235 399 235 490 l 235 369 q 287 159 235 231 q 436 88 339 88 z "},"ქ":{"ha":817,"x_min":69,"x_max":713,"o":"m 390 -347 q 260 -324 319 -347 q 158 -258 201 -301 q 92 -153 115 -214 q 69 -18 69 -93 q 77 58 69 22 q 94 117 85 93 l 211 117 q 198 59 204 94 q 192 -7 192 24 q 213 -129 192 -75 q 279 -215 235 -183 q 390 -246 324 -246 q 506 -214 463 -246 q 570 -124 550 -182 q 590 14 590 -65 l 590 369 q 548 583 590 508 q 399 657 506 657 q 315 636 353 657 q 254 576 276 615 q 232 476 232 536 q 235 419 232 446 q 244 372 239 392 l 128 372 q 116 417 122 389 q 110 476 110 446 q 149 632 110 569 q 250 726 188 694 q 382 758 313 758 q 467 744 429 758 q 537 704 506 729 q 590 649 568 679 l 599 649 q 594 702 597 667 q 590 758 590 738 l 590 1056 l 713 1056 l 713 8 q 674 -184 713 -104 q 565 -306 636 -264 q 390 -347 493 -347 z "},"ⴕ":{"ha":660,"x_min":28,"x_max":632,"o":"m 268 -333 l 268 642 l 28 642 l 28 744 l 268 744 l 268 1056 l 390 1056 l 390 744 l 632 744 l 632 642 l 390 642 l 390 -333 l 268 -333 z "},"ჿ":{"ha":842,"x_min":76,"x_max":765,"o":"m 765 374 q 741 209 765 281 q 672 88 717 138 q 562 12 626 38 q 418 -14 497 -14 q 282 12 344 -14 q 174 88 219 38 q 102 209 128 138 q 76 374 76 281 q 118 583 76 497 q 238 713 160 668 q 422 758 315 758 q 601 713 524 758 q 722 583 678 668 q 765 374 765 497 m 203 374 q 226 222 203 286 q 297 122 249 157 q 421 88 346 88 q 544 122 496 88 q 616 222 593 157 q 639 374 639 286 q 615 525 639 463 q 544 622 592 588 q 419 656 496 656 q 254 581 306 656 q 203 374 203 506 z "},"₾":{"ha":1071,"x_min":90,"x_max":988,"o":"m 157 0 l 157 89 l 297 103 l 297 107 q 181 212 226 150 q 113 350 135 274 q 90 513 90 426 q 142 754 90 650 q 295 917 194 858 q 540 976 396 976 q 781 917 681 976 q 934 747 881 857 q 988 483 988 636 l 858 483 q 826 693 858 604 q 723 831 793 782 q 540 879 653 879 q 360 833 431 879 q 254 702 289 786 q 219 503 219 618 q 261 297 219 386 q 381 156 303 207 q 567 106 460 106 l 925 106 l 925 0 l 157 0 m 394 485 l 394 1069 l 483 1069 l 483 485 l 394 485 m 597 485 l 597 1069 l 686 1069 l 686 485 l 597 485 z "},"ლ":{"ha":1513,"x_min":76,"x_max":1436,"o":"m 969 -347 q 892 -255 938 -294 q 794 -189 847 -215 q 681 -149 740 -162 q 558 -135 621 -135 q 425 -153 490 -135 q 299 -207 360 -172 l 250 -118 q 310 -92 279 -104 q 375 -73 342 -81 q 440 -64 408 -65 l 440 -60 q 299 3 365 -36 q 183 99 233 42 q 105 232 133 156 q 76 408 76 308 q 108 592 76 514 q 201 715 139 671 q 351 758 263 758 q 477 723 429 758 q 547 626 525 688 l 554 626 q 628 723 578 688 q 756 758 679 758 q 886 723 838 758 q 957 626 935 688 l 964 626 q 1038 723 988 688 q 1161 758 1088 758 q 1313 711 1251 758 q 1405 580 1374 664 q 1436 383 1436 496 q 1417 218 1436 294 q 1360 68 1399 142 l 1254 107 q 1299 240 1286 175 q 1311 385 1311 304 q 1269 588 1311 519 q 1151 657 1226 657 q 1054 610 1089 657 q 1019 476 1019 563 l 1019 253 l 903 253 l 903 476 q 869 606 903 554 q 756 657 835 657 q 647 610 683 657 q 610 476 610 563 l 610 253 l 493 253 l 493 476 q 461 606 493 554 q 360 657 429 657 q 244 596 286 657 q 201 408 201 535 q 233 240 201 311 q 318 118 264 168 q 441 37 372 68 q 585 -11 510 6 q 773 -65 679 -31 q 944 -155 867 -99 q 1063 -297 1021 -211 l 969 -347 z "},"ⴊ":{"ha":1297,"x_min":118,"x_max":1186,"o":"m 843 -14 q 703 15 760 -14 q 619 103 647 43 q 592 257 592 163 l 592 479 q 576 578 592 539 q 526 636 560 617 q 439 656 492 656 q 326 628 371 656 q 261 542 282 601 q 240 386 240 482 l 240 0 l 118 0 l 118 744 l 217 744 l 235 643 l 242 643 q 297 705 264 679 q 372 744 329 731 q 461 758 414 758 q 606 727 549 758 q 689 633 663 696 l 696 633 q 794 726 732 693 q 935 758 856 758 q 1124 693 1061 758 q 1186 485 1186 628 l 1186 0 l 1089 0 l 1069 99 l 1064 99 q 1010 38 1043 63 q 935 -1 976 13 q 843 -14 893 -14 m 864 88 q 1016 151 968 88 q 1064 357 1064 214 l 1064 479 q 1028 612 1064 568 q 914 656 992 656 q 762 595 811 656 q 713 411 713 535 l 713 265 q 749 131 713 175 q 864 88 786 88 z "},"̄":{"ha":0,"x_min":-206,"x_max":207,"o":"m 207 940 l 207 842 l -206 842 l -206 940 l 207 940 z "},"მ":{"ha":840,"x_min":76,"x_max":736,"o":"m 407 -14 q 235 29 310 -14 q 118 158 160 72 q 76 371 76 243 q 160 649 76 553 q 383 744 244 744 q 485 730 442 744 q 560 690 528 715 q 614 635 592 665 l 622 635 q 617 678 621 650 q 614 729 614 707 l 614 793 q 594 885 614 844 q 533 949 575 925 q 422 972 490 972 q 329 956 369 972 q 266 912 289 940 q 243 846 243 883 q 244 829 243 838 q 246 813 244 821 l 128 813 q 122 839 124 826 q 121 863 121 851 q 161 970 121 924 q 270 1043 201 1017 q 422 1069 339 1069 q 591 1033 521 1069 q 699 933 661 997 q 736 782 736 868 l 736 371 q 651 83 736 179 q 407 -14 567 -14 m 407 88 q 568 158 521 88 q 615 347 615 229 l 615 369 q 569 570 615 497 q 400 643 524 643 q 252 567 301 643 q 203 368 203 490 q 253 161 203 235 q 407 88 303 88 z "},"ⴋ":{"ha":847,"x_min":76,"x_max":736,"o":"m 407 -14 q 225 30 299 -14 q 114 158 151 74 q 76 365 76 243 q 160 654 76 564 q 429 744 244 744 l 614 744 l 614 817 q 597 892 614 863 q 548 938 581 922 q 465 953 515 953 l 175 953 l 175 1056 l 486 1056 q 625 1029 569 1056 q 708 950 681 1003 q 736 817 736 897 l 736 365 q 652 82 736 178 q 407 -14 568 -14 m 407 88 q 564 156 514 88 q 614 364 614 225 l 614 642 l 431 642 q 290 614 339 642 q 222 526 240 586 q 203 367 203 465 q 254 158 203 228 q 407 88 306 88 z "},"ნ":{"ha":840,"x_min":104,"x_max":764,"o":"m 433 -14 q 189 83 274 -14 q 104 371 104 179 l 104 803 q 138 949 104 893 q 227 1030 171 1004 q 354 1056 283 1056 l 682 1056 l 682 953 l 371 953 q 265 920 304 953 q 226 807 226 888 l 226 758 q 224 702 226 738 q 218 649 221 667 l 226 649 q 281 704 250 679 q 356 744 313 729 q 457 758 400 758 q 680 660 596 758 q 764 371 764 563 q 722 158 764 243 q 606 29 681 72 q 433 -14 532 -14 m 433 88 q 588 161 538 88 q 638 368 638 235 q 588 578 638 500 q 440 657 539 657 q 311 624 358 657 q 244 531 264 592 q 225 386 225 471 l 225 347 q 272 158 225 229 q 433 88 319 88 z "},"ⴌ":{"ha":851,"x_min":113,"x_max":740,"o":"m 113 0 l 113 758 q 144 927 113 861 q 240 1024 175 993 q 406 1056 306 1056 l 714 1056 l 714 953 l 415 953 q 274 912 314 953 q 235 772 235 871 l 235 746 q 233 690 235 715 q 228 642 231 664 l 236 642 q 293 703 258 678 q 372 743 328 729 q 468 757 417 757 q 619 728 558 757 q 710 640 679 700 q 740 485 740 581 l 740 0 l 619 0 l 619 476 q 579 611 619 567 q 453 656 539 656 q 329 628 378 656 q 258 541 281 600 q 235 385 235 482 l 235 0 l 113 0 z "},"ჼ":{"ha":492,"x_min":56,"x_max":450,"o":"m 250 565 q 106 622 157 565 q 56 785 56 679 l 56 1017 q 78 1108 56 1074 q 136 1157 100 1142 q 214 1172 172 1172 l 410 1172 l 410 1092 l 225 1092 q 177 1077 194 1092 q 160 1029 160 1063 l 160 1008 q 158 974 160 994 q 154 938 157 953 l 158 938 q 206 985 175 968 q 285 1003 238 1003 q 404 949 358 1003 q 450 788 450 896 q 397 624 450 682 q 250 565 344 565 m 250 651 q 321 688 299 651 q 343 785 343 725 q 319 885 343 851 q 251 919 294 919 q 175 887 197 919 q 153 794 153 854 l 153 775 q 177 684 153 717 q 250 651 201 651 z "}," ":{"ha":361,"x_min":0,"x_max":0,"o":""},"ო":{"ha":1117,"x_min":76,"x_max":1040,"o":"m 161 0 q 114 125 133 65 q 85 248 94 185 q 76 383 76 311 q 108 580 76 496 q 203 711 140 664 q 358 758 265 758 q 484 723 436 758 q 554 626 532 688 l 561 626 q 635 723 585 688 q 758 758 685 758 q 914 711 851 758 q 1008 580 976 664 q 1040 383 1040 496 q 1031 248 1040 311 q 1003 125 1022 185 q 956 0 985 65 l 831 0 q 895 187 875 99 q 915 385 915 275 q 896 535 915 475 q 840 626 876 596 q 749 657 803 657 q 651 610 686 657 q 617 476 617 563 l 617 253 l 500 253 l 500 476 q 468 606 500 554 q 367 657 436 657 q 244 588 288 657 q 201 385 201 519 q 210 249 201 311 q 238 126 219 186 q 286 0 257 65 l 161 0 z "},"ⴍ":{"ha":1299,"x_min":113,"x_max":1181,"o":"m 364 -14 q 175 51 238 -14 q 113 260 113 117 l 113 744 l 233 744 l 233 265 q 271 133 233 176 q 385 89 308 89 q 537 148 488 89 q 586 333 586 207 l 586 744 l 707 744 l 707 265 q 723 167 707 207 q 773 108 739 128 q 860 89 807 89 q 973 117 929 89 q 1038 204 1017 144 q 1058 358 1058 264 l 1058 744 l 1181 744 l 1181 0 l 1082 0 l 1064 101 l 1057 101 q 1001 38 1035 64 q 926 -1 968 13 q 838 -14 885 -14 q 693 17 750 -14 q 610 111 636 49 l 603 111 q 505 19 567 51 q 364 -14 443 -14 z "},"პ":{"ha":800,"x_min":69,"x_max":724,"o":"m 392 -14 q 226 18 299 -14 q 111 113 153 50 q 69 268 69 175 q 76 327 69 299 q 88 372 82 356 l 204 372 q 195 327 199 354 q 192 268 192 300 q 215 169 192 210 q 284 108 239 129 q 392 88 329 88 q 507 118 461 88 q 575 201 553 149 q 597 314 597 253 q 574 423 597 372 q 502 505 551 474 q 374 536 453 536 l 311 536 l 311 638 l 389 638 q 485 652 449 638 q 538 694 521 667 q 556 757 556 721 q 524 840 556 811 q 451 892 492 869 q 385 932 418 911 q 332 985 353 953 q 311 1069 311 1018 l 433 1069 q 466 1010 433 1033 q 542 963 499 986 q 608 920 576 944 q 661 861 640 896 q 682 774 682 826 q 630 649 682 689 q 500 589 578 608 l 500 583 q 604 541 553 574 q 690 449 656 508 q 724 300 724 390 q 683 138 724 208 q 567 26 642 67 q 392 -14 492 -14 z "},"ⴎ":{"ha":976,"x_min":28,"x_max":858,"o":"m 736 744 l 858 744 l 858 0 l 758 0 l 740 99 l 735 99 q 678 39 713 64 q 598 0 643 14 q 499 -14 553 -14 q 349 15 410 -14 q 258 103 289 43 q 228 257 228 163 l 228 547 q 206 622 228 600 q 142 643 185 643 l 28 643 l 28 744 l 183 744 q 281 722 244 744 q 335 660 318 700 q 351 567 351 619 l 351 265 q 392 131 351 175 q 517 88 432 88 q 684 151 632 88 q 736 357 736 214 l 736 744 z "},"჻":{"ha":740,"x_min":100,"x_max":654,"o":"m 568 278 q 506 301 529 278 q 482 372 482 325 q 505 443 482 419 q 568 467 528 467 q 632 442 610 467 q 654 372 654 418 q 631 303 654 328 q 568 278 608 278 m 186 -19 q 122 6 144 -19 q 100 75 100 31 q 122 144 100 119 q 186 169 143 169 q 249 145 226 169 q 272 75 272 121 q 249 6 272 31 q 186 -19 226 -19 m 186 575 q 122 600 144 575 q 100 669 100 625 q 122 740 100 717 q 186 764 143 764 q 251 739 229 764 q 272 669 272 714 q 249 600 272 625 q 186 575 226 575 z "},"։":{"ha":372,"x_min":100,"x_max":272,"o":"m 100 75 q 125 147 100 126 q 185 168 150 168 q 247 147 221 168 q 272 75 272 126 q 247 3 272 25 q 185 -19 221 -19 q 125 3 150 -19 q 100 75 100 25 m 100 669 q 125 743 100 722 q 185 764 150 764 q 247 743 221 764 q 272 669 272 722 q 247 597 272 619 q 185 575 221 575 q 125 597 150 575 q 100 669 100 619 z "},"ფ":{"ha":1193,"x_min":76,"x_max":1117,"o":"m 722 -347 q 524 -317 610 -347 q 391 -229 439 -286 q 343 -92 343 -172 q 344 -64 343 -78 q 349 -36 346 -50 l 464 -36 q 462 -56 463 -46 q 461 -76 461 -67 q 493 -172 461 -135 q 584 -228 525 -210 q 722 -246 643 -246 q 856 -219 803 -246 q 935 -145 908 -192 q 963 -42 963 -99 q 946 42 963 3 q 892 108 929 82 q 794 133 856 133 l 760 133 l 760 235 l 824 235 q 908 262 869 235 q 971 338 947 289 q 994 454 994 388 q 977 562 994 517 q 928 632 960 607 q 850 657 896 657 q 735 606 779 657 q 690 449 690 556 l 690 415 q 668 275 690 339 q 605 165 646 211 q 508 94 564 119 q 382 69 451 69 q 258 94 314 69 q 160 165 201 119 q 98 275 119 211 q 76 415 76 339 q 115 595 76 518 q 222 715 153 672 q 383 758 292 758 q 524 719 457 758 q 621 601 592 681 l 629 601 q 709 716 653 674 q 854 758 765 758 q 997 717 938 758 q 1086 611 1056 676 q 1117 469 1117 546 q 1092 326 1117 385 q 1024 234 1068 268 q 922 188 981 200 l 922 182 q 1014 138 976 168 q 1070 60 1051 107 q 1089 -47 1089 14 q 1043 -200 1089 -132 q 915 -308 997 -268 q 722 -347 833 -347 m 385 171 q 486 204 446 171 q 547 293 526 238 q 567 415 567 349 q 547 538 567 483 q 486 624 526 592 q 383 656 446 656 q 281 624 321 656 q 220 538 240 592 q 200 415 200 483 q 220 293 200 349 q 281 204 240 238 q 385 171 322 171 z "},"ⴔ":{"ha":1286,"x_min":76,"x_max":1210,"o":"m 582 -333 l 582 -14 q 585 44 582 10 q 590 96 588 78 l 582 96 q 524 35 557 60 q 452 -2 492 10 q 365 -14 413 -14 q 153 88 229 -14 q 76 374 76 190 q 152 658 76 557 q 364 758 228 758 q 452 746 413 758 q 524 708 492 733 q 582 644 557 682 l 588 644 l 606 744 l 681 744 l 699 644 l 704 644 q 762 708 729 682 q 835 746 794 733 q 922 758 875 758 q 1134 658 1058 758 q 1210 374 1210 557 q 1133 88 1210 190 q 921 -14 1057 -14 q 835 -2 875 -14 q 763 35 796 10 q 704 96 731 60 l 696 96 q 701 44 699 78 q 704 -14 704 10 l 704 -333 l 582 -333 m 385 88 q 535 153 488 88 q 583 375 583 219 l 583 397 q 536 597 583 536 q 386 657 489 657 q 250 586 297 657 q 203 376 203 515 q 250 163 203 238 q 385 88 297 88 m 901 88 q 1036 163 989 88 q 1083 376 1083 238 q 1037 586 1083 515 q 900 657 990 657 q 751 597 799 657 q 703 397 703 536 l 703 375 q 751 153 703 219 q 901 88 799 88 z "},"ყ":{"ha":828,"x_min":76,"x_max":724,"o":"m 401 -347 q 272 -326 331 -347 q 169 -268 213 -306 q 103 -177 126 -231 q 81 -60 81 -124 q 86 9 81 -19 q 101 61 92 38 l 218 61 q 207 10 211 39 q 203 -49 203 -18 q 224 -147 203 -103 q 290 -219 246 -192 q 401 -246 335 -246 q 517 -214 474 -246 q 581 -124 561 -182 q 601 14 601 -65 l 601 204 q 602 241 601 224 q 605 276 603 258 q 608 308 607 293 l 600 308 q 503 222 565 251 q 368 193 442 193 q 210 227 275 193 q 110 332 144 261 q 76 510 76 403 q 92 639 76 581 q 131 744 108 697 l 253 744 q 217 638 232 690 q 203 507 203 585 q 224 388 203 435 q 285 317 244 340 q 383 294 326 294 q 505 319 457 294 q 577 391 553 343 q 601 510 601 439 l 601 744 l 724 744 l 724 8 q 685 -184 724 -104 q 576 -306 647 -264 q 401 -347 504 -347 z "},"ⴗ":{"ha":861,"x_min":113,"x_max":743,"o":"m 621 -333 l 621 -40 q 622 32 621 1 q 629 99 624 63 l 619 99 q 563 38 597 64 q 483 -1 528 13 q 383 -14 438 -14 q 234 15 294 -14 q 143 103 174 43 q 113 257 113 163 l 113 744 l 236 744 l 236 265 q 276 131 236 175 q 401 88 317 88 q 569 151 517 88 q 621 357 621 215 l 621 744 l 743 744 l 743 -333 l 621 -333 z "},"რ":{"ha":1114,"x_min":76,"x_max":1038,"o":"m 158 0 q 112 125 131 65 q 85 248 93 185 q 76 383 76 311 l 76 436 q 117 727 76 608 q 239 916 157 846 q 444 1013 321 986 q 600 1043 522 1029 q 753 1069 678 1057 l 774 963 q 695 951 738 957 q 611 938 653 944 q 533 924 569 931 q 468 911 496 918 q 357 873 411 899 q 260 799 303 847 q 192 665 218 750 l 196 665 q 251 724 224 704 q 306 751 278 744 q 364 758 335 758 q 482 723 435 758 q 551 626 529 688 l 558 626 q 632 723 582 688 q 756 758 682 758 q 911 711 849 758 q 1006 580 974 664 q 1038 383 1038 496 q 1028 248 1038 311 q 1001 125 1019 185 q 953 0 982 65 l 828 0 q 892 187 872 99 q 913 385 913 275 q 893 535 913 475 q 837 626 874 596 q 746 657 800 657 q 649 610 683 657 q 614 476 614 563 l 614 253 l 497 253 l 497 476 q 465 606 497 554 q 364 657 433 657 q 242 588 285 657 q 199 385 199 519 q 208 249 199 311 q 235 126 217 186 q 283 0 254 65 l 158 0 z "},"ⴐ":{"ha":1296,"x_min":113,"x_max":1185,"o":"m 365 -14 q 226 15 282 -14 q 141 103 169 43 q 113 257 113 163 l 113 744 l 235 744 l 235 265 q 273 132 235 176 q 388 88 311 88 q 539 151 490 88 q 588 357 588 214 l 588 1056 l 710 1056 l 710 747 q 708 691 710 717 q 703 643 706 665 l 711 643 q 765 705 732 679 q 842 744 799 731 q 933 758 885 758 q 1072 730 1017 758 q 1156 641 1128 701 q 1185 485 1185 581 l 1185 0 l 1063 0 l 1063 476 q 1026 611 1063 567 q 911 656 989 656 q 758 591 807 656 q 710 386 710 526 l 710 0 l 611 0 l 592 99 l 586 99 q 534 39 567 64 q 459 0 501 14 q 365 -14 417 -14 z "},"ს":{"ha":840,"x_min":104,"x_max":764,"o":"m 433 -14 q 189 81 274 -14 q 104 360 104 176 l 104 1056 l 226 1056 l 226 347 q 275 158 226 229 q 433 88 324 88 q 548 119 503 88 q 615 203 593 150 q 638 321 638 256 q 619 419 638 378 q 572 500 600 461 q 510 604 539 549 q 482 744 482 660 l 604 744 q 629 635 604 682 q 688 542 654 589 q 742 444 719 497 q 764 317 764 390 q 722 142 764 217 q 606 27 681 68 q 433 -14 532 -14 z "},"ⴑ":{"ha":861,"x_min":113,"x_max":743,"o":"m 383 -14 q 234 15 294 -14 q 143 103 174 43 q 113 257 113 163 l 113 1056 l 236 1056 l 236 265 q 276 131 236 175 q 401 88 317 88 q 526 115 478 88 q 598 203 575 143 q 621 357 621 263 l 621 744 l 743 744 l 743 0 l 643 0 l 625 99 l 619 99 q 563 38 597 64 q 483 -1 528 13 q 383 -14 438 -14 z "},"შ":{"ha":840,"x_min":54,"x_max":736,"o":"m 407 -14 q 235 28 310 -14 q 118 153 160 71 q 76 357 76 236 q 115 551 76 471 q 222 674 153 632 q 383 717 292 717 q 485 702 442 717 q 560 663 528 688 q 614 607 592 638 l 622 607 q 617 651 621 622 q 614 701 614 679 l 614 835 q 601 910 614 879 q 563 956 588 940 q 504 972 539 972 q 428 944 457 972 q 399 865 399 917 l 399 807 l 281 807 l 281 865 q 251 944 281 918 q 183 969 221 969 q 133 963 157 969 q 85 949 108 956 l 54 1042 q 113 1061 81 1053 q 185 1069 146 1069 q 269 1050 228 1069 q 338 968 311 1031 l 342 968 q 418 1050 369 1031 q 514 1069 467 1069 q 624 1044 574 1069 q 706 968 675 1019 q 736 838 736 917 l 736 357 q 698 153 736 236 q 587 28 660 71 q 407 -14 514 -14 m 407 88 q 568 157 521 88 q 615 333 615 226 l 615 356 q 596 493 615 435 q 530 583 576 551 q 400 615 483 615 q 290 581 333 615 q 224 488 246 547 q 203 354 203 429 q 225 213 203 272 q 292 120 247 153 q 407 88 338 88 z "},"ⴘ":{"ha":861,"x_min":113,"x_max":743,"o":"m 410 -347 q 263 -335 331 -347 q 142 -300 196 -324 l 142 -187 q 265 -231 196 -217 q 417 -246 333 -246 q 568 -192 517 -246 q 619 -42 619 -139 l 619 0 q 621 46 619 21 q 625 99 622 71 l 619 99 q 563 38 597 64 q 483 -1 528 13 q 383 -14 438 -14 q 234 15 294 -14 q 143 103 174 43 q 113 257 113 163 l 113 744 l 236 744 l 236 265 q 276 131 236 175 q 401 88 317 88 q 569 151 517 88 q 621 357 621 215 l 621 744 l 743 744 l 743 -12 q 662 -265 743 -183 q 410 -347 581 -347 z "}," ":{"ha":361,"x_min":0,"x_max":0,"o":""},"თ":{"ha":1224,"x_min":76,"x_max":1147,"o":"m 392 -14 q 267 12 325 -14 q 167 88 210 38 q 101 209 125 138 q 76 374 76 281 q 116 583 76 497 q 226 713 156 668 q 393 758 297 758 q 540 719 471 758 q 638 601 608 681 l 646 601 q 693 689 663 654 q 769 741 724 724 q 878 758 815 758 q 1025 712 965 758 q 1116 584 1085 665 q 1147 397 1147 503 q 1138 252 1147 318 q 1110 126 1129 186 q 1063 0 1092 65 l 938 0 q 1002 187 982 99 q 1022 385 1022 275 q 1003 535 1022 475 q 950 626 985 596 q 867 657 915 657 q 753 606 796 657 q 710 449 710 556 l 710 374 q 687 209 710 281 q 622 88 664 138 q 522 12 581 38 q 392 -14 464 -14 m 394 88 q 501 122 460 88 q 563 222 543 157 q 583 374 583 286 q 538 581 583 506 q 393 656 492 656 q 249 581 294 656 q 203 374 203 506 q 223 222 203 286 q 286 122 243 157 q 394 88 329 88 z "},"ⴇ":{"ha":1292,"x_min":113,"x_max":1181,"o":"m 364 -14 q 225 15 281 -14 q 141 103 169 43 q 113 257 113 163 l 113 744 l 211 744 l 229 643 l 236 643 q 291 705 258 679 q 366 744 324 731 q 456 758 408 758 q 600 727 543 758 q 683 633 657 696 l 690 633 q 788 726 726 693 q 929 758 850 758 q 1118 693 1056 758 q 1181 485 1181 628 l 1181 0 l 1060 0 l 1060 479 q 1022 612 1060 568 q 908 656 985 656 q 756 595 806 656 q 707 411 707 535 l 707 0 l 610 0 l 590 99 l 585 99 q 533 39 565 64 q 458 0 500 14 q 364 -14 415 -14 m 386 88 q 538 151 490 88 q 586 357 586 215 l 586 479 q 570 578 586 539 q 520 636 554 617 q 433 656 486 656 q 321 628 365 656 q 256 542 276 601 q 235 386 235 482 l 235 265 q 272 131 235 175 q 386 88 310 88 z "},"ტ":{"ha":1067,"x_min":76,"x_max":990,"o":"m 533 -347 q 338 -310 424 -347 q 194 -202 253 -274 q 106 -26 136 -131 q 76 215 76 79 q 124 490 76 374 q 263 674 172 606 q 479 754 353 742 q 474 808 476 782 q 472 851 472 833 l 472 917 l 594 917 l 594 854 q 592 809 594 836 q 588 756 590 782 q 805 675 715 743 q 942 490 894 607 q 990 214 990 374 q 960 -16 990 88 q 873 -194 931 -119 q 730 -308 815 -268 q 533 -347 644 -347 m 533 -246 q 714 -194 640 -246 q 826 -39 788 -142 q 864 214 864 64 q 833 442 864 349 q 741 590 803 536 q 588 658 679 644 q 592 599 590 629 q 594 540 594 569 l 594 253 l 472 253 l 472 543 q 474 600 472 571 q 479 657 476 629 q 326 589 388 643 q 233 441 264 535 q 203 214 203 347 q 241 -38 203 64 q 353 -193 279 -140 q 533 -246 428 -246 z "},"ⴒ":{"ha":854,"x_min":118,"x_max":778,"o":"m 472 758 q 697 653 617 758 q 778 371 778 549 q 697 88 778 189 q 471 -14 615 -14 q 337 14 394 -14 q 240 99 279 42 l 235 99 q 238 55 236 86 q 239 7 239 24 l 239 -36 q 294 -190 239 -133 q 444 -246 349 -246 q 596 -231 525 -246 q 719 -187 667 -215 l 719 -300 q 600 -335 667 -324 q 451 -347 533 -347 q 264 -311 338 -347 q 154 -203 190 -275 q 118 -26 118 -132 l 118 744 l 215 744 l 232 646 l 239 646 q 340 731 281 703 q 472 758 400 758 m 456 656 q 333 626 381 656 q 261 535 285 597 q 238 371 238 472 l 238 342 q 250 226 238 275 q 289 147 263 178 q 356 101 315 115 q 453 86 397 86 q 601 159 551 86 q 651 369 651 232 q 628 525 651 461 q 562 622 606 589 q 456 656 518 656 z "},"ჹ":{"ha":842,"x_min":76,"x_max":765,"o":"m 424 758 q 560 733 497 758 q 668 659 622 707 q 740 542 714 611 q 765 385 765 472 q 726 190 765 269 q 615 67 688 111 q 442 10 542 24 q 326 -37 361 0 q 292 -128 292 -74 q 326 -216 292 -182 q 425 -250 361 -250 q 523 -218 490 -250 q 556 -131 556 -186 q 554 -108 556 -119 q 550 -85 553 -97 l 669 -85 q 676 -118 674 -101 q 678 -150 678 -135 q 647 -252 678 -207 q 558 -322 615 -297 q 425 -347 501 -347 q 292 -321 350 -347 q 202 -247 235 -294 q 169 -139 169 -200 q 201 -27 169 -75 q 301 42 233 21 l 301 46 q 174 119 224 68 q 100 238 124 169 q 76 385 76 307 q 101 542 76 472 q 170 659 125 611 q 279 733 215 707 q 424 758 343 758 m 421 657 q 298 623 346 657 q 226 528 250 589 q 203 385 203 467 q 226 244 203 304 q 299 150 250 183 q 422 117 347 117 q 588 190 536 117 q 639 385 639 263 q 616 528 639 467 q 545 623 593 589 q 421 657 497 657 z "},"უ":{"ha":839,"x_min":57,"x_max":735,"o":"m 413 -347 q 274 -324 336 -347 q 169 -258 213 -301 q 101 -153 125 -214 q 78 -18 78 -93 q 85 58 78 22 q 103 117 93 93 l 219 117 q 206 59 213 94 q 200 -7 200 24 q 222 -129 200 -75 q 292 -215 244 -183 q 413 -246 339 -246 q 528 -214 485 -246 q 592 -124 572 -182 q 613 14 613 -65 l 613 504 q 585 617 613 578 q 501 657 558 657 q 420 617 449 657 q 392 507 392 578 l 392 328 l 275 328 l 275 504 q 246 614 275 578 q 161 650 217 650 l 57 650 l 57 751 l 157 751 q 269 723 225 751 q 332 629 313 694 l 338 629 q 406 726 361 694 q 517 758 451 758 q 633 728 585 758 q 708 646 682 699 q 735 525 735 593 l 735 8 q 697 -184 735 -104 q 587 -306 658 -264 q 413 -347 515 -347 z "},"ⴓ":{"ha":1299,"x_min":113,"x_max":1181,"o":"m 1058 -333 l 1058 -40 q 1059 3 1058 -15 q 1061 44 1060 21 q 1064 101 1063 67 l 1057 101 q 1001 38 1035 64 q 926 -1 968 13 q 838 -14 885 -14 q 693 17 750 -14 q 610 111 636 49 l 603 111 q 505 19 567 51 q 364 -14 443 -14 q 175 51 238 -14 q 113 260 113 117 l 113 744 l 233 744 l 233 265 q 271 133 233 176 q 385 89 308 89 q 537 148 488 89 q 586 333 586 207 l 586 744 l 707 744 l 707 265 q 723 167 707 207 q 773 108 739 128 q 860 89 807 89 q 973 117 929 89 q 1038 204 1017 144 q 1058 358 1058 264 l 1058 1056 l 1181 1056 l 1181 -333 l 1058 -333 z "},"ვ":{"ha":807,"x_min":69,"x_max":738,"o":"m 404 -347 q 266 -324 328 -347 q 160 -261 204 -301 q 93 -165 117 -221 q 69 -46 69 -110 q 77 30 69 -6 q 94 89 85 65 l 211 89 q 198 31 204 67 q 192 -35 192 -4 q 214 -137 192 -89 q 283 -215 236 -185 q 404 -246 331 -246 q 521 -215 475 -246 q 589 -131 567 -183 q 611 -14 611 -78 q 588 98 611 49 q 517 175 565 147 q 393 203 468 203 l 339 203 l 339 304 l 403 304 q 544 359 501 304 q 588 489 588 414 q 567 573 588 535 q 508 634 547 611 q 413 657 469 657 q 315 637 354 657 q 256 581 276 617 q 236 493 236 544 q 239 456 236 475 q 247 414 242 436 l 128 414 q 117 460 121 438 q 114 503 114 482 q 152 634 114 576 q 258 725 190 692 q 413 758 325 758 q 567 724 500 758 q 672 630 635 689 q 710 497 710 571 q 656 338 710 400 q 515 257 603 276 l 515 251 q 624 210 574 243 q 706 119 675 176 q 738 -19 738 63 q 696 -192 738 -118 q 580 -307 654 -267 q 404 -347 506 -347 z "},"ⴅ":{"ha":1297,"x_min":118,"x_max":1186,"o":"m 935 758 q 1124 694 1061 758 q 1186 485 1186 629 l 1186 0 l 1065 0 l 1065 479 q 1028 611 1065 567 q 914 656 992 656 q 759 593 806 656 q 713 411 713 531 l 713 -333 l 592 -333 l 592 479 q 575 577 592 538 q 525 636 558 617 q 439 656 492 656 q 321 624 364 656 q 259 533 278 593 q 240 386 240 474 l 240 0 l 118 0 l 118 744 l 217 744 l 235 643 l 242 643 q 299 708 265 682 q 375 746 333 733 q 461 758 417 758 q 605 728 547 758 q 689 633 663 697 l 696 633 q 798 728 733 697 q 935 758 863 758 z "},"ჳ":{"ha":807,"x_min":69,"x_max":738,"o":"m 404 -347 q 266 -324 328 -347 q 160 -261 204 -301 q 93 -165 117 -221 q 69 -46 69 -110 q 77 30 69 -6 q 94 89 85 65 l 211 89 q 198 31 204 67 q 192 -35 192 -4 q 214 -137 192 -89 q 283 -215 236 -185 q 404 -246 331 -246 q 521 -215 475 -246 q 589 -131 567 -183 q 611 -14 611 -78 q 548 161 611 103 q 390 219 485 219 l 308 219 l 308 304 l 557 642 l 132 642 l 132 744 l 700 744 l 700 656 l 443 317 q 583 274 515 311 q 694 164 650 236 q 738 -19 738 92 q 696 -192 738 -118 q 580 -307 654 -267 q 404 -347 506 -347 z "},"ⴣ":{"ha":861,"x_min":113,"x_max":743,"o":"m 621 -333 l 621 -40 q 622 32 621 1 q 629 99 624 63 l 619 99 q 563 38 597 64 q 483 -1 528 13 q 383 -14 438 -14 q 234 15 294 -14 q 143 103 174 43 q 113 257 113 163 l 113 744 l 236 744 l 236 265 q 276 131 236 175 q 401 88 317 88 q 569 151 517 88 q 621 357 621 215 l 621 1056 l 743 1056 l 743 -333 l 621 -333 z "},"ხ":{"ha":840,"x_min":104,"x_max":764,"o":"m 433 -14 q 189 83 274 -14 q 104 371 104 179 l 104 1056 l 226 1056 l 226 758 q 224 702 226 738 q 218 649 221 667 l 226 649 q 281 704 250 679 q 356 744 313 729 q 457 758 400 758 q 680 660 596 758 q 764 371 764 563 q 722 158 764 243 q 606 29 681 72 q 433 -14 532 -14 m 433 88 q 588 161 538 88 q 638 368 638 235 q 588 578 638 500 q 440 657 539 657 q 271 583 317 657 q 225 369 225 508 l 225 347 q 272 158 225 229 q 433 88 319 88 z "},"ⴞ":{"ha":857,"x_min":118,"x_max":746,"o":"m 429 -347 q 196 -267 274 -347 q 118 -26 118 -186 l 118 744 l 240 744 l 240 358 q 292 152 240 215 q 458 89 344 89 q 585 133 544 89 q 625 268 625 178 l 625 744 l 746 744 l 746 269 q 717 109 746 172 q 628 16 688 46 q 476 -14 569 -14 q 381 0 426 -14 q 301 40 336 14 q 242 101 265 65 l 233 101 q 239 26 238 63 q 240 -39 240 -11 q 289 -197 240 -147 q 439 -246 338 -246 q 585 -231 514 -246 q 708 -187 656 -215 l 708 -300 q 586 -335 656 -324 q 429 -347 517 -347 z "},"ჷ":{"ha":768,"x_min":69,"x_max":699,"o":"m 381 -347 q 217 -311 288 -347 q 108 -210 147 -275 q 69 -57 69 -144 q 108 110 69 43 q 213 224 147 176 q 363 313 279 272 q 470 373 429 346 q 530 433 511 400 q 549 515 549 467 q 508 619 549 582 q 385 656 467 656 q 257 620 297 656 q 217 511 217 585 q 218 496 217 504 q 221 479 219 488 l 100 479 q 97 499 99 490 q 96 518 96 508 q 130 646 96 592 q 228 729 164 700 q 385 758 293 758 q 541 728 476 758 q 640 644 606 699 q 674 517 674 590 q 643 391 674 444 q 552 294 613 338 q 399 206 492 250 q 294 145 340 178 q 222 65 249 113 q 196 -57 196 17 q 247 -194 196 -143 q 381 -244 297 -244 q 517 -199 463 -244 q 572 -57 572 -154 q 568 1 572 -25 q 557 40 564 26 l 685 40 q 695 -3 692 21 q 699 -58 699 -26 q 658 -219 699 -156 q 545 -315 617 -283 q 381 -347 474 -347 z "},"ⴧ":{"ha":740,"x_min":69,"x_max":671,"o":"m 367 -347 q 213 -311 281 -347 q 108 -210 146 -275 q 69 -57 69 -144 q 92 74 69 18 q 152 172 114 129 q 241 248 190 214 q 349 313 292 282 q 447 373 408 346 q 503 433 485 400 q 521 515 521 467 q 482 619 521 582 q 371 656 443 656 q 256 620 294 656 q 217 511 217 585 q 218 496 217 504 q 221 479 219 488 l 100 479 q 97 499 99 490 q 96 518 96 508 q 129 646 96 592 q 224 729 163 700 q 371 758 286 758 q 517 728 456 758 q 613 644 579 699 q 646 517 646 590 q 616 392 646 444 q 528 296 586 339 q 385 206 469 253 q 292 145 335 178 q 222 65 249 113 q 196 -57 196 17 q 245 -194 196 -143 q 367 -244 294 -244 q 491 -199 438 -244 q 544 -57 544 -154 q 540 1 544 -25 q 529 40 536 26 l 657 40 q 667 -3 664 21 q 671 -58 671 -26 q 631 -219 671 -156 q 522 -315 590 -283 q 367 -347 453 -347 z "},"ზ":{"ha":860,"x_min":42,"x_max":783,"o":"m 450 -14 q 319 12 379 -14 q 215 85 260 38 q 147 201 171 133 q 122 356 122 269 q 144 503 122 438 q 213 614 165 568 l 213 618 q 123 662 161 632 q 63 737 85 692 q 42 839 42 782 q 69 950 42 897 q 148 1036 96 1003 q 275 1069 200 1069 q 401 1040 349 1069 q 481 960 453 1010 q 508 853 508 911 q 500 787 508 815 q 476 739 492 758 l 476 735 q 483 735 479 735 q 490 733 486 735 q 609 699 556 726 q 701 626 663 672 q 762 514 740 579 q 783 365 783 449 q 759 206 783 276 q 691 86 735 135 q 586 12 647 38 q 450 -14 525 -14 m 453 88 q 569 122 524 88 q 635 219 614 157 q 657 365 657 282 q 635 508 657 447 q 569 601 614 568 q 451 635 524 635 q 297 562 344 635 q 249 365 249 489 q 270 219 249 282 q 337 122 292 157 q 453 88 382 88 m 275 694 q 362 733 332 694 q 392 836 392 771 q 363 938 392 897 q 275 979 335 979 q 187 938 215 979 q 158 836 158 897 q 186 738 158 781 q 275 694 214 694 z "},"ⴆ":{"ha":965,"x_min":28,"x_max":889,"o":"m 582 757 q 808 656 728 757 q 889 372 889 554 q 851 160 889 246 q 740 30 814 74 q 557 -14 665 -14 q 310 83 392 -14 q 229 374 229 179 l 229 858 q 207 933 229 911 q 142 954 185 954 l 28 954 l 28 1056 l 183 1056 q 281 1033 244 1056 q 335 971 318 1011 q 351 878 351 931 l 351 799 q 349 726 351 764 q 344 646 347 688 l 351 646 q 447 729 389 701 q 582 757 506 757 m 558 88 q 671 119 625 88 q 740 215 717 151 q 763 374 763 279 q 711 585 763 514 q 561 656 660 656 q 444 629 490 656 q 374 547 397 603 q 351 399 351 490 l 351 376 q 401 157 351 226 q 558 88 451 88 z "},"ჟ":{"ha":861,"x_min":64,"x_max":750,"o":"m 428 -347 q 298 -326 357 -347 q 196 -268 239 -306 q 130 -177 153 -231 q 107 -60 107 -124 q 113 9 107 -19 q 128 61 118 38 l 244 61 q 233 10 238 39 q 229 -49 229 -18 q 251 -147 229 -103 q 317 -219 272 -192 q 428 -246 361 -246 q 544 -214 500 -246 q 608 -124 588 -182 q 628 14 628 -65 l 628 643 q 514 603 575 619 q 389 578 453 586 l 389 574 q 458 517 429 556 q 486 425 486 479 q 458 323 486 367 q 380 255 429 279 q 269 231 331 231 q 122 283 179 231 q 64 411 64 335 q 65 437 64 424 q 71 463 67 450 l 175 463 q 172 443 174 453 q 171 425 171 433 q 198 353 171 381 q 269 325 225 325 q 345 355 318 325 q 372 429 372 385 q 342 523 372 492 q 260 561 313 554 l 260 649 q 461 684 364 663 q 638 744 558 706 l 750 744 l 750 8 q 712 -184 750 -104 q 602 -306 674 -264 q 428 -347 531 -347 z "},"ⴏ":{"ha":978,"x_min":28,"x_max":860,"o":"m 736 -333 l 736 -40 q 738 34 736 4 q 744 99 739 64 l 735 99 q 678 39 713 64 q 598 0 643 14 q 499 -14 553 -14 q 349 15 410 -14 q 258 103 289 43 q 228 257 228 163 l 228 547 q 206 622 228 600 q 142 643 185 643 l 28 643 l 28 744 l 183 744 q 281 722 244 744 q 335 660 318 700 q 351 567 351 619 l 351 265 q 392 131 351 175 q 517 88 432 88 q 684 151 632 88 q 736 357 736 214 l 736 744 l 860 744 l 860 -333 l 736 -333 z "},"A":{"ha":888,"x_min":0,"x_max":886,"o":"m 757 0 l 638 307 l 244 307 l 126 0 l 0 0 l 388 996 l 500 996 l 886 0 l 757 0 m 489 718 q 475 758 485 729 q 456 819 465 788 q 442 867 447 850 q 427 810 435 839 q 412 758 419 782 q 399 718 404 735 l 286 418 l 600 418 l 489 718 z "},"Æ":{"ha":1224,"x_min":-1,"x_max":1140,"o":"m 1140 0 l 624 0 l 624 307 l 276 307 l 128 0 l -1 0 l 469 992 l 1140 992 l 1140 882 l 749 882 l 749 572 l 1114 572 l 1114 464 l 749 464 l 749 110 l 1140 110 l 1140 0 m 325 418 l 624 418 l 624 881 l 543 881 l 325 418 z "},"Á":{"ha":888,"x_min":0,"x_max":886,"o":"m 757 0 l 638 307 l 244 307 l 126 0 l 0 0 l 388 996 l 500 996 l 886 0 l 757 0 m 489 718 q 475 758 485 729 q 456 819 465 788 q 442 867 447 850 q 427 810 435 839 q 412 758 419 782 q 399 718 404 735 l 286 418 l 600 418 l 489 718 m 647 1297 q 611 1250 635 1278 q 559 1192 588 1222 q 502 1135 531 1163 q 449 1089 474 1108 l 368 1089 l 368 1106 q 413 1168 389 1132 q 461 1242 438 1204 q 500 1311 485 1281 l 647 1311 l 647 1297 z "},"Ă":{"ha":888,"x_min":0,"x_max":886,"o":"m 757 0 l 638 307 l 244 307 l 126 0 l 0 0 l 388 996 l 500 996 l 886 0 l 757 0 m 489 718 q 475 758 485 729 q 456 819 465 788 q 442 867 447 850 q 427 810 435 839 q 412 758 419 782 q 399 718 404 735 l 286 418 l 600 418 l 489 718 m 657 1275 q 626 1178 653 1219 q 551 1113 599 1136 q 438 1089 504 1089 q 283 1140 335 1089 q 225 1275 231 1190 l 300 1275 q 342 1203 307 1218 q 440 1188 376 1188 q 534 1204 494 1188 q 581 1275 574 1221 l 657 1275 z "},"Â":{"ha":888,"x_min":0,"x_max":886,"o":"m 757 0 l 638 307 l 244 307 l 126 0 l 0 0 l 388 996 l 500 996 l 886 0 l 757 0 m 489 718 q 475 758 485 729 q 456 819 465 788 q 442 867 447 850 q 427 810 435 839 q 412 758 419 782 q 399 718 404 735 l 286 418 l 600 418 l 489 718 m 503 1311 q 551 1242 519 1281 q 616 1167 582 1204 q 676 1104 650 1131 l 676 1089 l 590 1089 q 515 1144 554 1111 q 439 1214 476 1176 q 364 1144 401 1176 q 290 1089 326 1113 l 207 1089 l 207 1104 q 266 1168 233 1132 q 329 1242 299 1204 q 378 1311 360 1281 l 503 1311 z "},"Ä":{"ha":888,"x_min":0,"x_max":886,"o":"m 757 0 l 638 307 l 244 307 l 126 0 l 0 0 l 388 996 l 500 996 l 886 0 l 757 0 m 489 718 q 475 758 485 729 q 456 819 465 788 q 442 867 447 850 q 427 810 435 839 q 412 758 419 782 q 399 718 404 735 l 286 418 l 600 418 l 489 718 m 247 1193 q 267 1245 247 1229 q 313 1261 286 1261 q 358 1245 339 1261 q 378 1193 378 1229 q 358 1141 378 1158 q 313 1124 339 1124 q 267 1141 286 1124 q 247 1193 247 1158 m 508 1193 q 527 1245 508 1229 q 572 1261 546 1261 q 618 1245 599 1261 q 638 1193 638 1229 q 618 1141 638 1158 q 572 1124 599 1124 q 527 1141 546 1124 q 508 1193 508 1158 z "},"À":{"ha":888,"x_min":0,"x_max":886,"o":"m 757 0 l 638 307 l 244 307 l 126 0 l 0 0 l 388 996 l 500 996 l 886 0 l 757 0 m 489 718 q 475 758 485 729 q 456 819 465 788 q 442 867 447 850 q 427 810 435 839 q 412 758 419 782 q 399 718 404 735 l 286 418 l 600 418 l 489 718 m 407 1311 q 445 1242 422 1281 q 494 1168 468 1204 q 540 1106 519 1132 l 540 1089 l 458 1089 q 406 1135 435 1108 q 348 1192 376 1163 q 297 1250 319 1222 q 261 1297 274 1278 l 261 1311 l 407 1311 z "},"Ā":{"ha":888,"x_min":0,"x_max":886,"o":"m 757 0 l 638 307 l 244 307 l 126 0 l 0 0 l 388 996 l 500 996 l 886 0 l 757 0 m 489 718 q 475 758 485 729 q 456 819 465 788 q 442 867 447 850 q 427 810 435 839 q 412 758 419 782 q 399 718 404 735 l 286 418 l 600 418 l 489 718 m 647 1188 l 647 1089 l 235 1089 l 235 1188 l 647 1188 z "},"Ą":{"ha":888,"x_min":0,"x_max":886,"o":"m 757 0 l 638 307 l 244 307 l 126 0 l 0 0 l 388 996 l 500 996 l 886 0 l 757 0 m 489 718 q 475 758 485 729 q 456 819 465 788 q 442 867 447 850 q 427 810 435 839 q 412 758 419 782 q 399 718 404 735 l 286 418 l 600 418 l 489 718 m 757 -161 q 774 -208 757 -192 q 819 -224 790 -224 q 859 -220 843 -224 q 886 -215 875 -217 l 886 -293 q 847 -302 867 -299 q 800 -306 828 -306 q 692 -271 726 -306 q 657 -175 657 -236 q 677 -97 657 -135 q 727 -29 697 -60 q 785 21 757 1 l 851 0 q 781 -81 804 -44 q 757 -161 757 -118 z "},"Å":{"ha":888,"x_min":0,"x_max":886,"o":"m 757 0 l 638 307 l 244 307 l 126 0 l 0 0 l 388 996 l 500 996 l 886 0 l 757 0 m 489 718 q 475 758 485 729 q 456 819 465 788 q 442 867 447 850 q 427 810 435 839 q 412 758 419 782 q 399 718 404 735 l 286 418 l 600 418 l 489 718 m 440 926 q 331 965 372 926 q 289 1074 289 1004 q 331 1181 289 1143 q 440 1219 372 1219 q 550 1181 506 1219 q 594 1075 594 1143 q 551 965 594 1004 q 440 926 507 926 m 440 996 q 497 1017 475 996 q 518 1074 518 1038 q 496 1131 518 1110 q 440 1151 474 1151 q 385 1131 407 1151 q 363 1074 363 1110 q 383 1017 363 1038 q 440 996 403 996 z "},"Ã":{"ha":888,"x_min":0,"x_max":886,"o":"m 757 0 l 638 307 l 244 307 l 126 0 l 0 0 l 388 996 l 500 996 l 886 0 l 757 0 m 489 718 q 475 758 485 729 q 456 819 465 788 q 442 867 447 850 q 427 810 435 839 q 412 758 419 782 q 399 718 404 735 l 286 418 l 600 418 l 489 718 m 188 1089 q 203 1163 192 1131 q 235 1219 215 1196 q 281 1254 254 1242 q 340 1267 307 1267 q 399 1255 371 1267 q 454 1227 428 1243 q 505 1199 481 1211 q 551 1188 529 1188 q 601 1208 583 1188 q 628 1268 618 1228 l 697 1268 q 650 1139 689 1188 q 546 1090 611 1090 q 489 1102 517 1090 q 434 1130 461 1114 q 383 1158 407 1146 q 335 1169 358 1169 q 285 1149 301 1169 q 258 1089 268 1129 l 188 1089 z "},"B":{"ha":903,"x_min":135,"x_max":828,"o":"m 418 992 q 699 937 604 992 q 794 746 794 882 q 773 642 794 688 q 709 567 751 597 q 606 526 667 538 l 606 519 q 719 483 668 510 q 799 408 769 457 q 828 282 828 360 q 786 128 828 192 q 667 33 744 65 q 483 0 590 0 l 135 0 l 135 992 l 418 992 m 443 569 q 618 610 571 569 q 665 732 665 651 q 608 849 665 814 q 424 885 550 885 l 260 885 l 260 569 l 443 569 m 260 465 l 260 106 l 460 106 q 643 157 592 106 q 694 292 694 208 q 672 383 694 344 q 595 444 649 422 q 450 465 542 465 l 260 465 z "},"C":{"ha":878,"x_min":85,"x_max":835,"o":"m 560 896 q 417 869 481 896 q 308 790 353 842 q 240 663 264 738 q 217 496 217 589 q 255 283 217 374 q 369 144 293 193 q 558 96 444 96 q 682 107 624 96 q 796 135 740 118 l 796 26 q 681 -4 740 6 q 540 -14 622 -14 q 288 49 389 -14 q 135 226 186 111 q 85 497 85 342 q 116 703 85 610 q 208 864 147 796 q 357 969 268 932 q 561 1006 446 1006 q 708 990 638 1006 q 835 947 779 975 l 785 842 q 683 879 739 863 q 560 896 626 896 z "},"Ć":{"ha":878,"x_min":85,"x_max":835,"o":"m 560 896 q 417 869 481 896 q 308 790 353 842 q 240 663 264 738 q 217 496 217 589 q 255 283 217 374 q 369 144 293 193 q 558 96 444 96 q 682 107 624 96 q 796 135 740 118 l 796 26 q 681 -4 740 6 q 540 -14 622 -14 q 288 49 389 -14 q 135 226 186 111 q 85 497 85 342 q 116 703 85 610 q 208 864 147 796 q 357 969 268 932 q 561 1006 446 1006 q 708 990 638 1006 q 835 947 779 975 l 785 842 q 683 879 739 863 q 560 896 626 896 m 733 1297 q 697 1250 721 1278 q 645 1192 674 1222 q 588 1135 617 1163 q 535 1089 560 1108 l 454 1089 l 454 1106 q 499 1168 475 1132 q 547 1242 524 1204 q 586 1311 571 1281 l 733 1311 l 733 1297 z "},"Č":{"ha":878,"x_min":85,"x_max":835,"o":"m 560 896 q 417 869 481 896 q 308 790 353 842 q 240 663 264 738 q 217 496 217 589 q 255 283 217 374 q 369 144 293 193 q 558 96 444 96 q 682 107 624 96 q 796 135 740 118 l 796 26 q 681 -4 740 6 q 540 -14 622 -14 q 288 49 389 -14 q 135 226 186 111 q 85 497 85 342 q 116 703 85 610 q 208 864 147 796 q 357 969 268 932 q 561 1006 446 1006 q 708 990 638 1006 q 835 947 779 975 l 785 842 q 683 879 739 863 q 560 896 626 896 m 464 1089 q 415 1158 446 1121 q 351 1231 385 1194 q 293 1293 318 1267 l 293 1311 l 376 1311 q 451 1254 413 1288 q 525 1183 490 1221 q 601 1254 563 1221 q 676 1311 640 1288 l 763 1311 l 763 1293 q 702 1231 736 1267 q 637 1158 668 1194 q 589 1089 606 1121 l 464 1089 z "},"Ç":{"ha":878,"x_min":85,"x_max":835,"o":"m 560 896 q 417 869 481 896 q 308 790 353 842 q 240 663 264 738 q 217 496 217 589 q 255 283 217 374 q 369 144 293 193 q 558 96 444 96 q 682 107 624 96 q 796 135 740 118 l 796 26 q 681 -4 740 6 q 540 -14 622 -14 q 288 49 389 -14 q 135 226 186 111 q 85 497 85 342 q 116 703 85 610 q 208 864 147 796 q 357 969 268 932 q 561 1006 446 1006 q 708 990 638 1006 q 835 947 779 975 l 785 842 q 683 879 739 863 q 560 896 626 896 m 657 -193 q 606 -297 657 -260 q 451 -333 554 -333 q 412 -331 431 -333 q 382 -326 393 -329 l 382 -250 q 415 -255 394 -253 q 456 -257 436 -257 q 532 -244 506 -257 q 558 -196 558 -231 q 522 -143 558 -160 q 432 -119 485 -126 l 492 0 l 572 0 l 536 -74 q 597 -95 569 -81 q 641 -133 625 -110 q 657 -193 657 -157 z "},"Ċ":{"ha":878,"x_min":85,"x_max":835,"o":"m 560 896 q 417 869 481 896 q 308 790 353 842 q 240 663 264 738 q 217 496 217 589 q 255 283 217 374 q 369 144 293 193 q 558 96 444 96 q 682 107 624 96 q 796 135 740 118 l 796 26 q 681 -4 740 6 q 540 -14 622 -14 q 288 49 389 -14 q 135 226 186 111 q 85 497 85 342 q 116 703 85 610 q 208 864 147 796 q 357 969 268 932 q 561 1006 446 1006 q 708 990 638 1006 q 835 947 779 975 l 785 842 q 683 879 739 863 q 560 896 626 896 m 529 1271 q 578 1252 557 1271 q 600 1193 600 1233 q 578 1135 600 1154 q 529 1115 557 1115 q 478 1135 499 1115 q 457 1193 457 1154 q 478 1252 457 1233 q 529 1271 499 1271 z "},"D":{"ha":1014,"x_min":135,"x_max":929,"o":"m 929 506 q 867 226 929 339 q 690 57 806 114 q 411 0 575 0 l 135 0 l 135 992 l 440 992 q 700 936 590 992 q 869 773 810 881 q 929 506 929 665 m 797 501 q 753 718 797 633 q 626 844 710 803 q 422 885 542 885 l 260 885 l 260 107 l 394 107 q 697 206 596 107 q 797 501 797 306 z "},"Ď":{"ha":1014,"x_min":135,"x_max":929,"o":"m 929 506 q 867 226 929 339 q 690 57 806 114 q 411 0 575 0 l 135 0 l 135 992 l 440 992 q 700 936 590 992 q 869 773 810 881 q 929 506 929 665 m 797 501 q 753 718 797 633 q 626 844 710 803 q 422 885 542 885 l 260 885 l 260 107 l 394 107 q 697 206 596 107 q 797 501 797 306 m 438 1089 q 389 1158 419 1121 q 325 1231 358 1194 q 267 1293 292 1267 l 267 1311 l 350 1311 q 425 1254 386 1288 q 499 1183 464 1221 q 575 1254 536 1221 q 650 1311 614 1288 l 736 1311 l 736 1293 q 676 1231 710 1267 q 610 1158 642 1194 q 563 1089 579 1121 l 438 1089 z "},"Đ":{"ha":1014,"x_min":42,"x_max":929,"o":"m 440 992 q 699 936 589 992 q 869 773 808 881 q 929 506 929 665 q 867 226 929 339 q 690 57 806 114 q 410 0 574 0 l 144 0 l 144 436 l 42 436 l 42 544 l 144 544 l 144 992 l 440 992 m 422 885 l 269 885 l 269 544 l 517 544 l 517 436 l 269 436 l 269 107 l 394 107 q 697 206 597 107 q 797 501 797 306 q 753 718 797 633 q 625 844 708 803 q 422 885 542 885 z "},"E":{"ha":772,"x_min":135,"x_max":689,"o":"m 689 0 l 135 0 l 135 992 l 689 992 l 689 882 l 260 882 l 260 572 l 664 572 l 664 464 l 260 464 l 260 110 l 689 110 l 689 0 z "},"É":{"ha":772,"x_min":135,"x_max":689,"o":"m 689 0 l 135 0 l 135 992 l 689 992 l 689 882 l 260 882 l 260 572 l 664 572 l 664 464 l 260 464 l 260 110 l 689 110 l 689 0 m 629 1297 q 593 1250 617 1278 q 541 1192 569 1222 q 484 1135 513 1163 q 431 1089 456 1108 l 350 1089 l 350 1106 q 395 1168 371 1132 q 443 1242 419 1204 q 482 1311 467 1281 l 629 1311 l 629 1297 z "},"Ě":{"ha":772,"x_min":135,"x_max":689,"o":"m 689 0 l 135 0 l 135 992 l 689 992 l 689 882 l 260 882 l 260 572 l 664 572 l 664 464 l 260 464 l 260 110 l 689 110 l 689 0 m 360 1089 q 311 1158 342 1121 q 247 1231 281 1194 q 189 1293 214 1267 l 189 1311 l 272 1311 q 347 1254 308 1288 q 421 1183 386 1221 q 497 1254 458 1221 q 572 1311 536 1288 l 658 1311 l 658 1293 q 598 1231 632 1267 q 533 1158 564 1194 q 485 1089 501 1121 l 360 1089 z "},"Ê":{"ha":772,"x_min":135,"x_max":689,"o":"m 689 0 l 135 0 l 135 992 l 689 992 l 689 882 l 260 882 l 260 572 l 664 572 l 664 464 l 260 464 l 260 110 l 689 110 l 689 0 m 485 1311 q 533 1242 501 1281 q 598 1167 564 1204 q 658 1104 632 1131 l 658 1089 l 572 1089 q 497 1144 536 1111 q 421 1214 458 1176 q 346 1144 383 1176 q 272 1089 308 1113 l 189 1089 l 189 1104 q 248 1168 215 1132 q 311 1242 281 1204 q 360 1311 342 1281 l 485 1311 z "},"Ë":{"ha":772,"x_min":135,"x_max":689,"o":"m 689 0 l 135 0 l 135 992 l 689 992 l 689 882 l 260 882 l 260 572 l 664 572 l 664 464 l 260 464 l 260 110 l 689 110 l 689 0 m 229 1193 q 249 1245 229 1229 q 294 1261 268 1261 q 340 1245 321 1261 q 360 1193 360 1229 q 340 1141 360 1158 q 294 1124 321 1124 q 249 1141 268 1124 q 229 1193 229 1158 m 490 1193 q 509 1245 490 1229 q 554 1261 528 1261 q 600 1245 581 1261 q 619 1193 619 1229 q 600 1141 619 1158 q 554 1124 581 1124 q 509 1141 528 1124 q 490 1193 490 1158 z "},"Ė":{"ha":772,"x_min":135,"x_max":689,"o":"m 689 0 l 135 0 l 135 992 l 689 992 l 689 882 l 260 882 l 260 572 l 664 572 l 664 464 l 260 464 l 260 110 l 689 110 l 689 0 m 425 1271 q 474 1252 453 1271 q 496 1193 496 1233 q 474 1135 496 1154 q 425 1115 453 1115 q 374 1135 394 1115 q 353 1193 353 1154 q 374 1252 353 1233 q 425 1271 394 1271 z "},"È":{"ha":772,"x_min":135,"x_max":689,"o":"m 689 0 l 135 0 l 135 992 l 689 992 l 689 882 l 260 882 l 260 572 l 664 572 l 664 464 l 260 464 l 260 110 l 689 110 l 689 0 m 389 1311 q 427 1242 404 1281 q 476 1168 450 1204 q 522 1106 501 1132 l 522 1089 l 440 1089 q 388 1135 417 1108 q 330 1192 358 1163 q 278 1250 301 1222 q 243 1297 256 1278 l 243 1311 l 389 1311 z "},"Ē":{"ha":772,"x_min":135,"x_max":689,"o":"m 689 0 l 135 0 l 135 992 l 689 992 l 689 882 l 260 882 l 260 572 l 664 572 l 664 464 l 260 464 l 260 110 l 689 110 l 689 0 m 629 1188 l 629 1089 l 217 1089 l 217 1188 l 629 1188 z "},"Ŋ":{"ha":1056,"x_min":135,"x_max":921,"o":"m 660 -264 q 599 -259 625 -264 q 554 -246 574 -254 l 554 -140 q 603 -150 576 -146 q 660 -154 629 -154 q 728 -141 696 -154 q 783 -94 761 -128 q 804 0 804 -60 l 244 824 l 239 824 q 244 749 242 797 q 248 644 246 700 q 250 538 250 589 l 250 0 l 135 0 l 135 992 l 279 992 l 808 197 l 814 197 q 809 273 811 228 q 806 371 807 318 q 804 475 804 424 l 804 992 l 921 992 l 921 8 q 889 -145 921 -85 q 799 -235 857 -206 q 660 -264 740 -264 z "},"Ę":{"ha":772,"x_min":135,"x_max":689,"o":"m 689 0 l 135 0 l 135 992 l 689 992 l 689 882 l 260 882 l 260 572 l 664 572 l 664 464 l 260 464 l 260 110 l 689 110 l 689 0 m 553 -161 q 569 -208 553 -192 q 615 -224 586 -224 q 655 -220 639 -224 q 682 -215 671 -217 l 682 -293 q 643 -302 663 -299 q 596 -306 624 -306 q 488 -271 522 -306 q 453 -175 453 -236 q 473 -97 453 -135 q 523 -29 493 -60 q 581 21 553 1 l 647 0 q 576 -81 600 -44 q 553 -161 553 -118 z "},"Ð":{"ha":1014,"x_min":42,"x_max":929,"o":"m 440 992 q 699 936 589 992 q 869 773 808 881 q 929 506 929 665 q 867 226 929 339 q 690 57 806 114 q 410 0 574 0 l 144 0 l 144 436 l 42 436 l 42 544 l 144 544 l 144 992 l 440 992 m 422 885 l 269 885 l 269 544 l 517 544 l 517 436 l 269 436 l 269 107 l 394 107 q 697 206 597 107 q 797 501 797 306 q 753 718 797 633 q 625 844 708 803 q 422 885 542 885 z "},"F":{"ha":721,"x_min":135,"x_max":689,"o":"m 260 0 l 135 0 l 135 992 l 689 992 l 689 882 l 260 882 l 260 531 l 663 531 l 663 421 l 260 421 l 260 0 z "},"G":{"ha":1011,"x_min":85,"x_max":908,"o":"m 565 524 l 908 524 l 908 38 q 746 -1 828 11 q 560 -14 664 -14 q 300 48 406 -14 q 140 224 194 110 q 85 496 85 339 q 146 765 85 651 q 322 942 207 879 q 599 1006 436 1006 q 756 990 682 1006 q 894 947 831 975 l 847 839 q 728 879 794 863 q 592 896 663 896 q 389 847 474 896 q 260 709 304 799 q 215 496 215 619 q 253 287 215 378 q 374 145 292 196 q 589 94 456 94 q 700 101 654 94 q 783 118 746 108 l 783 413 l 565 413 l 565 524 z "},"Ğ":{"ha":1011,"x_min":85,"x_max":908,"o":"m 565 524 l 908 524 l 908 38 q 746 -1 828 11 q 560 -14 664 -14 q 300 48 406 -14 q 140 224 194 110 q 85 496 85 339 q 146 765 85 651 q 322 942 207 879 q 599 1006 436 1006 q 756 990 682 1006 q 894 947 831 975 l 847 839 q 728 879 794 863 q 592 896 663 896 q 389 847 474 896 q 260 709 304 799 q 215 496 215 619 q 253 287 215 378 q 374 145 292 196 q 589 94 456 94 q 700 101 654 94 q 783 118 746 108 l 783 413 l 565 413 l 565 524 m 778 1275 q 747 1178 774 1219 q 672 1113 719 1136 q 558 1089 625 1089 q 403 1140 456 1089 q 346 1275 351 1190 l 421 1275 q 463 1203 428 1218 q 561 1188 497 1188 q 655 1204 615 1188 q 701 1275 694 1221 l 778 1275 z "},"Ģ":{"ha":1011,"x_min":85,"x_max":908,"o":"m 565 524 l 908 524 l 908 38 q 746 -1 828 11 q 560 -14 664 -14 q 300 48 406 -14 q 140 224 194 110 q 85 496 85 339 q 146 765 85 651 q 322 942 207 879 q 599 1006 436 1006 q 756 990 682 1006 q 894 947 831 975 l 847 839 q 728 879 794 863 q 592 896 663 896 q 389 847 474 896 q 260 709 304 799 q 215 496 215 619 q 253 287 215 378 q 374 145 292 196 q 589 94 456 94 q 700 101 654 94 q 783 118 746 108 l 783 413 l 565 413 l 565 524 m 647 -97 q 624 -160 642 -122 q 584 -237 607 -199 q 536 -307 561 -276 l 469 -307 l 469 -290 q 492 -230 481 -267 q 514 -153 504 -193 q 526 -85 524 -114 l 647 -85 l 647 -97 z "},"Ġ":{"ha":1011,"x_min":85,"x_max":908,"o":"m 565 524 l 908 524 l 908 38 q 746 -1 828 11 q 560 -14 664 -14 q 300 48 406 -14 q 140 224 194 110 q 85 496 85 339 q 146 765 85 651 q 322 942 207 879 q 599 1006 436 1006 q 756 990 682 1006 q 894 947 831 975 l 847 839 q 728 879 794 863 q 592 896 663 896 q 389 847 474 896 q 260 709 304 799 q 215 496 215 619 q 253 287 215 378 q 374 145 292 196 q 589 94 456 94 q 700 101 654 94 q 783 118 746 108 l 783 413 l 565 413 l 565 524 m 564 1271 q 613 1252 592 1271 q 635 1193 635 1233 q 613 1135 635 1154 q 564 1115 592 1115 q 513 1135 533 1115 q 492 1193 492 1154 q 513 1252 492 1233 q 564 1271 533 1271 z "},"ẞ":{"ha":985,"x_min":125,"x_max":936,"o":"m 500 1006 q 658 978 592 1006 q 767 901 724 951 q 832 781 810 850 l 635 571 q 790 534 722 568 q 897 438 858 500 q 936 286 936 375 q 900 131 936 199 q 788 25 864 64 q 590 -14 713 -14 q 453 -2 518 -14 q 332 40 389 10 l 332 154 q 456 106 389 124 q 585 89 524 89 q 754 141 703 89 q 806 288 806 193 q 746 423 806 376 q 567 469 686 469 l 481 469 l 481 560 l 697 788 q 653 848 681 824 q 586 885 625 872 q 493 897 547 897 q 354 865 408 897 q 274 774 300 832 q 249 642 249 717 l 249 0 l 125 0 l 125 642 q 165 827 125 744 q 289 958 206 910 q 500 1006 372 1006 z "},"H":{"ha":1029,"x_min":135,"x_max":893,"o":"m 893 0 l 768 0 l 768 463 l 260 463 l 260 0 l 135 0 l 135 992 l 260 992 l 260 572 l 768 572 l 768 992 l 893 992 l 893 0 z "},"Ħ":{"ha":1029,"x_min":0,"x_max":1028,"o":"m 135 0 l 135 726 l 0 726 l 0 826 l 135 826 l 135 992 l 260 992 l 260 826 l 768 826 l 768 992 l 893 992 l 893 826 l 1028 826 l 1028 726 l 893 726 l 893 0 l 768 0 l 768 463 l 260 463 l 260 0 l 135 0 m 260 572 l 768 572 l 768 726 l 260 726 l 260 572 z "},"I":{"ha":471,"x_min":56,"x_max":414,"o":"m 414 0 l 56 0 l 56 72 l 172 99 l 172 892 l 56 919 l 56 992 l 414 992 l 414 919 l 297 892 l 297 99 l 414 72 l 414 0 z "},"Í":{"ha":471,"x_min":56,"x_max":442,"o":"m 414 0 l 56 0 l 56 72 l 172 99 l 172 892 l 56 919 l 56 992 l 414 992 l 414 919 l 297 892 l 297 99 l 414 72 l 414 0 m 442 1297 q 406 1250 429 1278 q 353 1192 382 1222 q 297 1135 325 1163 q 243 1089 268 1108 l 163 1089 l 163 1106 q 208 1168 183 1132 q 256 1242 232 1204 q 294 1311 279 1281 l 442 1311 l 442 1297 z "},"Î":{"ha":471,"x_min":1,"x_max":471,"o":"m 414 0 l 56 0 l 56 72 l 172 99 l 172 892 l 56 919 l 56 992 l 414 992 l 414 919 l 297 892 l 297 99 l 414 72 l 414 0 m 297 1311 q 345 1242 314 1281 q 410 1167 376 1204 q 471 1104 444 1131 l 471 1089 l 385 1089 q 310 1144 349 1111 q 233 1214 271 1176 q 158 1144 196 1176 q 85 1089 121 1113 l 1 1089 l 1 1104 q 60 1168 28 1132 q 124 1242 93 1204 q 172 1311 154 1281 l 297 1311 z "},"Ï":{"ha":471,"x_min":42,"x_max":432,"o":"m 414 0 l 56 0 l 56 72 l 172 99 l 172 892 l 56 919 l 56 992 l 414 992 l 414 919 l 297 892 l 297 99 l 414 72 l 414 0 m 42 1193 q 61 1245 42 1229 q 107 1261 81 1261 q 153 1245 133 1261 q 172 1193 172 1229 q 153 1141 172 1158 q 107 1124 133 1124 q 61 1141 81 1124 q 42 1193 42 1158 m 303 1193 q 322 1245 303 1229 q 367 1261 340 1261 q 413 1245 393 1261 q 432 1193 432 1229 q 413 1141 432 1158 q 367 1124 393 1124 q 322 1141 340 1124 q 303 1193 303 1158 z "},"İ":{"ha":471,"x_min":56,"x_max":414,"o":"m 414 0 l 56 0 l 56 72 l 172 99 l 172 892 l 56 919 l 56 992 l 414 992 l 414 919 l 297 892 l 297 99 l 414 72 l 414 0 m 238 1271 q 287 1252 265 1271 q 308 1193 308 1233 q 287 1135 308 1154 q 238 1115 265 1115 q 186 1135 207 1115 q 165 1193 165 1154 q 186 1252 165 1233 q 238 1271 207 1271 z "},"Ì":{"ha":471,"x_min":56,"x_max":414,"o":"m 414 0 l 56 0 l 56 72 l 172 99 l 172 892 l 56 919 l 56 992 l 414 992 l 414 919 l 297 892 l 297 99 l 414 72 l 414 0 m 201 1311 q 240 1242 217 1281 q 288 1168 263 1204 q 335 1106 314 1132 l 335 1089 l 253 1089 q 200 1135 229 1108 q 142 1192 171 1163 q 91 1250 114 1222 q 56 1297 68 1278 l 56 1311 l 201 1311 z "},"Ī":{"ha":471,"x_min":29,"x_max":442,"o":"m 414 0 l 56 0 l 56 72 l 172 99 l 172 892 l 56 919 l 56 992 l 414 992 l 414 919 l 297 892 l 297 99 l 414 72 l 414 0 m 442 1188 l 442 1089 l 29 1089 l 29 1188 l 442 1188 z "},"Į":{"ha":471,"x_min":56,"x_max":414,"o":"m 414 0 l 56 0 l 56 72 l 172 99 l 172 892 l 56 919 l 56 992 l 414 992 l 414 919 l 297 892 l 297 99 l 414 72 l 414 0 m 283 -161 q 300 -208 283 -192 q 346 -224 317 -224 q 385 -220 369 -224 q 413 -215 401 -217 l 413 -293 q 374 -302 393 -299 q 326 -306 354 -306 q 218 -271 253 -306 q 183 -175 183 -236 q 203 -97 183 -135 q 253 -29 224 -60 q 311 21 283 1 l 378 0 q 307 -81 331 -44 q 283 -161 283 -118 z "},"J":{"ha":379,"x_min":-108,"x_max":253,"o":"m -6 -264 q -64 -259 -39 -264 q -108 -246 -89 -254 l -108 -140 q -61 -150 -86 -146 q -8 -154 -36 -154 q 58 -140 26 -154 q 108 -92 89 -126 q 128 6 128 -57 l 128 992 l 253 992 l 253 15 q 221 -142 253 -81 q 131 -234 189 -204 q -6 -264 72 -264 z "},"K":{"ha":860,"x_min":135,"x_max":860,"o":"m 860 0 l 713 0 l 361 474 l 260 385 l 260 0 l 135 0 l 135 992 l 260 992 l 260 503 q 344 597 301 550 q 431 692 388 644 l 699 992 l 844 992 l 451 560 l 860 0 z "},"Ķ":{"ha":860,"x_min":135,"x_max":860,"o":"m 860 0 l 713 0 l 361 474 l 260 385 l 260 0 l 135 0 l 135 992 l 260 992 l 260 503 q 344 597 301 550 q 431 692 388 644 l 699 992 l 844 992 l 451 560 l 860 0 m 547 -97 q 524 -160 542 -122 q 484 -237 507 -199 q 436 -307 461 -276 l 369 -307 l 369 -290 q 392 -230 381 -267 q 414 -153 404 -193 q 426 -85 424 -114 l 547 -85 l 547 -97 z "},"L":{"ha":728,"x_min":135,"x_max":693,"o":"m 135 0 l 135 992 l 260 992 l 260 111 l 693 111 l 693 0 l 135 0 z "},"Ĺ":{"ha":728,"x_min":121,"x_max":693,"o":"m 135 0 l 135 992 l 260 992 l 260 111 l 693 111 l 693 0 l 135 0 m 400 1297 q 364 1250 388 1278 q 312 1192 340 1222 q 255 1135 283 1163 q 201 1089 226 1108 l 121 1089 l 121 1106 q 166 1168 142 1132 q 214 1242 190 1204 q 253 1311 238 1281 l 400 1311 l 400 1297 z "},"Ľ":{"ha":728,"x_min":135,"x_max":693,"o":"m 135 0 l 135 992 l 260 992 l 260 111 l 693 111 l 693 0 l 135 0 m 693 979 q 672 917 688 954 q 635 840 656 879 q 593 769 614 800 l 526 769 l 526 786 q 540 832 533 806 q 553 887 547 858 q 565 942 560 915 q 572 992 569 969 l 693 992 l 693 979 z "},"Ļ":{"ha":728,"x_min":135,"x_max":693,"o":"m 135 0 l 135 992 l 260 992 l 260 111 l 693 111 l 693 0 l 135 0 m 506 -97 q 483 -160 500 -122 q 442 -237 465 -199 q 394 -307 419 -276 l 328 -307 l 328 -290 q 351 -230 339 -267 q 372 -153 363 -193 q 385 -85 382 -114 l 506 -85 l 506 -97 z "},"Ł":{"ha":728,"x_min":18,"x_max":693,"o":"m 135 0 l 135 343 l 67 304 l 18 388 l 135 457 l 135 992 l 260 992 l 260 531 l 450 643 l 500 556 l 260 417 l 260 111 l 693 111 l 693 0 l 135 0 z "},"M":{"ha":1260,"x_min":135,"x_max":1125,"o":"m 572 0 l 246 869 l 240 869 q 245 799 243 842 q 249 705 247 756 q 250 601 250 654 l 250 0 l 135 0 l 135 992 l 319 992 l 625 179 l 631 179 l 942 992 l 1125 992 l 1125 0 l 1001 0 l 1001 610 q 1003 706 1001 658 q 1007 797 1004 754 q 1011 868 1010 839 l 1006 868 l 675 0 l 572 0 z "},"N":{"ha":1056,"x_min":135,"x_max":921,"o":"m 921 0 l 775 0 l 244 824 l 239 824 q 244 748 242 792 q 248 655 246 704 q 250 554 250 606 l 250 0 l 135 0 l 135 992 l 279 992 l 808 171 l 814 171 q 810 238 813 193 q 806 335 808 282 q 804 432 804 388 l 804 992 l 921 992 l 921 0 z "},"Ń":{"ha":1056,"x_min":135,"x_max":921,"o":"m 921 0 l 775 0 l 244 824 l 239 824 q 244 748 242 792 q 248 655 246 704 q 250 554 250 606 l 250 0 l 135 0 l 135 992 l 279 992 l 808 171 l 814 171 q 810 238 813 193 q 806 335 808 282 q 804 432 804 388 l 804 992 l 921 992 l 921 0 m 733 1297 q 697 1250 721 1278 q 645 1192 674 1222 q 588 1135 617 1163 q 535 1089 560 1108 l 454 1089 l 454 1106 q 499 1168 475 1132 q 547 1242 524 1204 q 586 1311 571 1281 l 733 1311 l 733 1297 z "},"Ň":{"ha":1056,"x_min":135,"x_max":921,"o":"m 921 0 l 775 0 l 244 824 l 239 824 q 244 748 242 792 q 248 655 246 704 q 250 554 250 606 l 250 0 l 135 0 l 135 992 l 279 992 l 808 171 l 814 171 q 810 238 813 193 q 806 335 808 282 q 804 432 804 388 l 804 992 l 921 992 l 921 0 m 464 1089 q 415 1158 446 1121 q 351 1231 385 1194 q 293 1293 318 1267 l 293 1311 l 376 1311 q 451 1254 413 1288 q 525 1183 490 1221 q 601 1254 563 1221 q 676 1311 640 1288 l 763 1311 l 763 1293 q 702 1231 736 1267 q 637 1158 668 1194 q 589 1089 606 1121 l 464 1089 z "},"Ņ":{"ha":1056,"x_min":135,"x_max":921,"o":"m 921 0 l 775 0 l 244 824 l 239 824 q 244 748 242 792 q 248 655 246 704 q 250 554 250 606 l 250 0 l 135 0 l 135 992 l 279 992 l 808 171 l 814 171 q 810 238 813 193 q 806 335 808 282 q 804 432 804 388 l 804 992 l 921 992 l 921 0 m 617 -97 q 594 -160 611 -122 q 553 -237 576 -199 q 506 -307 531 -276 l 439 -307 l 439 -290 q 462 -230 450 -267 q 483 -153 474 -193 q 496 -85 493 -114 l 617 -85 l 617 -97 z "},"Ñ":{"ha":1056,"x_min":135,"x_max":921,"o":"m 921 0 l 775 0 l 244 824 l 239 824 q 244 748 242 792 q 248 655 246 704 q 250 554 250 606 l 250 0 l 135 0 l 135 992 l 279 992 l 808 171 l 814 171 q 810 238 813 193 q 806 335 808 282 q 804 432 804 388 l 804 992 l 921 992 l 921 0 m 274 1089 q 290 1163 278 1131 q 321 1219 301 1196 q 367 1254 340 1242 q 426 1267 393 1267 q 485 1255 457 1267 q 540 1227 514 1243 q 591 1199 567 1211 q 638 1188 615 1188 q 687 1208 669 1188 q 714 1268 704 1228 l 783 1268 q 736 1139 775 1188 q 632 1090 697 1090 q 575 1102 603 1090 q 520 1130 547 1114 q 469 1158 493 1146 q 421 1169 444 1169 q 371 1149 388 1169 q 344 1089 354 1129 l 274 1089 z "},"O":{"ha":1085,"x_min":85,"x_max":1000,"o":"m 1000 497 q 971 288 1000 382 q 884 126 942 194 q 741 22 826 58 q 543 -14 656 -14 q 340 23 426 -14 q 197 127 254 60 q 113 289 140 194 q 85 499 85 383 q 135 765 85 651 q 287 943 185 879 q 544 1007 389 1007 q 794 944 693 1007 q 948 766 896 881 q 1000 497 1000 651 m 217 497 q 251 282 217 372 q 359 143 286 192 q 543 94 432 94 q 727 143 656 94 q 833 282 799 192 q 868 497 868 372 q 790 791 868 685 q 544 897 713 897 q 359 849 432 897 q 251 712 286 801 q 217 497 217 622 z "},"Œ":{"ha":1289,"x_min":85,"x_max":1206,"o":"m 536 1007 q 606 1003 572 1007 q 669 992 639 999 l 1206 992 l 1206 882 l 807 882 l 807 572 l 1179 572 l 1179 464 l 807 464 l 807 110 l 1206 110 l 1206 0 l 678 0 q 613 -10 647 -6 q 543 -14 579 -14 q 287 50 389 -14 q 135 229 185 114 q 85 499 85 344 q 134 767 85 653 q 284 944 183 881 q 536 1007 385 1007 m 547 897 q 399 870 463 897 q 296 791 336 843 q 235 665 256 739 q 215 497 215 592 q 251 282 215 372 q 360 143 286 192 q 546 94 433 94 q 620 101 585 94 q 683 118 656 107 l 683 875 q 620 892 654 886 q 547 897 586 897 z "},"Ó":{"ha":1085,"x_min":85,"x_max":1000,"o":"m 1000 497 q 971 288 1000 382 q 884 126 942 194 q 741 22 826 58 q 543 -14 656 -14 q 340 23 426 -14 q 197 127 254 60 q 113 289 140 194 q 85 499 85 383 q 135 765 85 651 q 287 943 185 879 q 544 1007 389 1007 q 794 944 693 1007 q 948 766 896 881 q 1000 497 1000 651 m 217 497 q 251 282 217 372 q 359 143 286 192 q 543 94 432 94 q 727 143 656 94 q 833 282 799 192 q 868 497 868 372 q 790 791 868 685 q 544 897 713 897 q 359 849 432 897 q 251 712 286 801 q 217 497 217 622 m 749 1297 q 713 1250 736 1278 q 660 1192 689 1222 q 603 1135 632 1163 q 550 1089 575 1108 l 469 1089 l 469 1106 q 515 1168 490 1132 q 563 1242 539 1204 q 601 1311 586 1281 l 749 1311 l 749 1297 z "},"Ô":{"ha":1085,"x_min":85,"x_max":1000,"o":"m 1000 497 q 971 288 1000 382 q 884 126 942 194 q 741 22 826 58 q 543 -14 656 -14 q 340 23 426 -14 q 197 127 254 60 q 113 289 140 194 q 85 499 85 383 q 135 765 85 651 q 287 943 185 879 q 544 1007 389 1007 q 794 944 693 1007 q 948 766 896 881 q 1000 497 1000 651 m 217 497 q 251 282 217 372 q 359 143 286 192 q 543 94 432 94 q 727 143 656 94 q 833 282 799 192 q 868 497 868 372 q 790 791 868 685 q 544 897 713 897 q 359 849 432 897 q 251 712 286 801 q 217 497 217 622 m 604 1311 q 652 1242 621 1281 q 717 1167 683 1204 q 778 1104 751 1131 l 778 1089 l 692 1089 q 617 1144 656 1111 q 540 1214 578 1176 q 465 1144 503 1176 q 392 1089 428 1113 l 308 1089 l 308 1104 q 367 1168 335 1132 q 431 1242 400 1204 q 479 1311 461 1281 l 604 1311 z "},"Ö":{"ha":1085,"x_min":85,"x_max":1000,"o":"m 1000 497 q 971 288 1000 382 q 884 126 942 194 q 741 22 826 58 q 543 -14 656 -14 q 340 23 426 -14 q 197 127 254 60 q 113 289 140 194 q 85 499 85 383 q 135 765 85 651 q 287 943 185 879 q 544 1007 389 1007 q 794 944 693 1007 q 948 766 896 881 q 1000 497 1000 651 m 217 497 q 251 282 217 372 q 359 143 286 192 q 543 94 432 94 q 727 143 656 94 q 833 282 799 192 q 868 497 868 372 q 790 791 868 685 q 544 897 713 897 q 359 849 432 897 q 251 712 286 801 q 217 497 217 622 m 349 1193 q 368 1245 349 1229 q 414 1261 388 1261 q 460 1245 440 1261 q 479 1193 479 1229 q 460 1141 479 1158 q 414 1124 440 1124 q 368 1141 388 1124 q 349 1193 349 1158 m 610 1193 q 628 1245 610 1229 q 674 1261 647 1261 q 719 1245 700 1261 q 739 1193 739 1229 q 719 1141 739 1158 q 674 1124 700 1124 q 628 1141 647 1124 q 610 1193 610 1158 z "},"Ò":{"ha":1085,"x_min":85,"x_max":1000,"o":"m 1000 497 q 971 288 1000 382 q 884 126 942 194 q 741 22 826 58 q 543 -14 656 -14 q 340 23 426 -14 q 197 127 254 60 q 113 289 140 194 q 85 499 85 383 q 135 765 85 651 q 287 943 185 879 q 544 1007 389 1007 q 794 944 693 1007 q 948 766 896 881 q 1000 497 1000 651 m 217 497 q 251 282 217 372 q 359 143 286 192 q 543 94 432 94 q 727 143 656 94 q 833 282 799 192 q 868 497 868 372 q 790 791 868 685 q 544 897 713 897 q 359 849 432 897 q 251 712 286 801 q 217 497 217 622 m 508 1311 q 547 1242 524 1281 q 595 1168 569 1204 q 642 1106 621 1132 l 642 1089 l 560 1089 q 507 1135 536 1108 q 449 1192 478 1163 q 398 1250 421 1222 q 363 1297 375 1278 l 363 1311 l 508 1311 z "},"Ő":{"ha":1085,"x_min":85,"x_max":1000,"o":"m 1000 497 q 971 288 1000 382 q 884 126 942 194 q 741 22 826 58 q 543 -14 656 -14 q 340 23 426 -14 q 197 127 254 60 q 113 289 140 194 q 85 499 85 383 q 135 765 85 651 q 287 943 185 879 q 544 1007 389 1007 q 794 944 693 1007 q 948 766 896 881 q 1000 497 1000 651 m 217 497 q 251 282 217 372 q 359 143 286 192 q 543 94 432 94 q 727 143 656 94 q 833 282 799 192 q 868 497 868 372 q 790 791 868 685 q 544 897 713 897 q 359 849 432 897 q 251 712 286 801 q 217 497 217 622 m 792 1297 q 760 1251 781 1279 q 712 1193 739 1224 q 658 1135 685 1163 q 607 1089 631 1108 l 538 1089 l 538 1106 q 579 1168 557 1132 q 623 1242 601 1204 q 658 1311 644 1281 l 792 1311 l 792 1297 m 547 1297 q 515 1251 536 1279 q 467 1193 494 1224 q 413 1135 440 1163 q 363 1089 386 1108 l 293 1089 l 293 1106 q 335 1168 313 1132 q 378 1242 357 1204 q 414 1311 399 1281 l 547 1311 l 547 1297 z "},"Ō":{"ha":1085,"x_min":85,"x_max":1000,"o":"m 1000 497 q 971 288 1000 382 q 884 126 942 194 q 741 22 826 58 q 543 -14 656 -14 q 340 23 426 -14 q 197 127 254 60 q 113 289 140 194 q 85 499 85 383 q 135 765 85 651 q 287 943 185 879 q 544 1007 389 1007 q 794 944 693 1007 q 948 766 896 881 q 1000 497 1000 651 m 217 497 q 251 282 217 372 q 359 143 286 192 q 543 94 432 94 q 727 143 656 94 q 833 282 799 192 q 868 497 868 372 q 790 791 868 685 q 544 897 713 897 q 359 849 432 897 q 251 712 286 801 q 217 497 217 622 m 749 1188 l 749 1089 l 336 1089 l 336 1188 l 749 1188 z "},"Ø":{"ha":1085,"x_min":85,"x_max":1000,"o":"m 1000 497 q 971 288 1000 382 q 884 126 942 194 q 741 22 826 58 q 543 -14 656 -14 q 401 3 465 -14 q 286 51 336 19 l 219 -43 l 135 13 l 207 115 q 115 281 146 183 q 85 499 85 378 q 135 765 85 651 q 287 943 185 879 q 544 1007 389 1007 q 678 990 617 1007 q 792 944 740 974 l 856 1036 l 940 979 l 869 881 q 967 717 933 814 q 1000 497 1000 619 m 868 497 q 797 778 868 676 l 353 147 q 437 108 389 122 q 543 94 485 94 q 727 143 656 94 q 833 282 799 192 q 868 497 868 372 m 217 497 q 233 343 217 413 q 282 222 249 274 l 725 849 q 645 885 690 872 q 544 897 600 897 q 359 849 432 897 q 251 712 286 801 q 217 497 217 622 z "},"Õ":{"ha":1085,"x_min":85,"x_max":1000,"o":"m 1000 497 q 971 288 1000 382 q 884 126 942 194 q 741 22 826 58 q 543 -14 656 -14 q 340 23 426 -14 q 197 127 254 60 q 113 289 140 194 q 85 499 85 383 q 135 765 85 651 q 287 943 185 879 q 544 1007 389 1007 q 794 944 693 1007 q 948 766 896 881 q 1000 497 1000 651 m 217 497 q 251 282 217 372 q 359 143 286 192 q 543 94 432 94 q 727 143 656 94 q 833 282 799 192 q 868 497 868 372 q 790 791 868 685 q 544 897 713 897 q 359 849 432 897 q 251 712 286 801 q 217 497 217 622 m 289 1089 q 305 1163 293 1131 q 336 1219 317 1196 q 382 1254 356 1242 q 442 1267 408 1267 q 501 1255 472 1267 q 556 1227 529 1243 q 606 1199 582 1211 q 653 1188 631 1188 q 702 1208 685 1188 q 729 1268 719 1228 l 799 1268 q 751 1139 790 1188 q 647 1090 713 1090 q 590 1102 618 1090 q 535 1130 563 1114 q 484 1158 508 1146 q 436 1169 460 1169 q 386 1149 403 1169 q 360 1089 369 1129 l 289 1089 z "},"P":{"ha":840,"x_min":135,"x_max":769,"o":"m 397 992 q 681 915 592 992 q 769 700 769 839 q 749 583 769 639 q 683 482 729 526 q 561 412 638 438 q 374 386 485 386 l 260 386 l 260 0 l 135 0 l 135 992 l 397 992 m 386 885 l 260 885 l 260 493 l 360 493 q 517 513 454 493 q 610 578 579 533 q 640 694 640 622 q 579 838 640 790 q 386 885 518 885 z "},"Q":{"ha":1085,"x_min":85,"x_max":1000,"o":"m 1000 497 q 967 278 1000 376 q 871 111 935 179 q 711 11 807 43 l 949 -236 l 769 -236 l 578 -12 q 560 -13 569 -12 q 543 -14 551 -14 q 340 23 426 -14 q 197 127 254 60 q 113 289 140 194 q 85 499 85 383 q 135 765 85 651 q 287 943 185 879 q 544 1007 389 1007 q 794 944 693 1007 q 948 766 896 881 q 1000 497 1000 651 m 217 497 q 251 282 217 372 q 359 143 286 192 q 543 94 432 94 q 727 143 656 94 q 833 282 799 192 q 868 497 868 372 q 790 791 868 685 q 544 897 713 897 q 359 849 432 897 q 251 712 286 801 q 217 497 217 622 z "},"R":{"ha":864,"x_min":135,"x_max":843,"o":"m 408 992 q 612 960 532 992 q 731 867 692 929 q 769 710 769 804 q 740 578 769 631 q 666 494 711 525 q 571 444 621 463 l 843 0 l 697 0 l 457 410 l 260 410 l 260 0 l 135 0 l 135 992 l 408 992 m 401 883 l 260 883 l 260 515 l 408 515 q 585 563 529 515 q 640 704 640 611 q 615 808 640 769 q 536 865 589 847 q 401 883 483 883 z "},"Ŕ":{"ha":864,"x_min":135,"x_max":843,"o":"m 408 992 q 612 960 532 992 q 731 867 692 929 q 769 710 769 804 q 740 578 769 631 q 666 494 711 525 q 571 444 621 463 l 843 0 l 697 0 l 457 410 l 260 410 l 260 0 l 135 0 l 135 992 l 408 992 m 401 883 l 260 883 l 260 515 l 408 515 q 585 563 529 515 q 640 704 640 611 q 615 808 640 769 q 536 865 589 847 q 401 883 483 883 m 638 1297 q 601 1250 625 1278 q 549 1192 578 1222 q 492 1135 521 1163 q 439 1089 464 1108 l 358 1089 l 358 1106 q 403 1168 379 1132 q 451 1242 428 1204 q 490 1311 475 1281 l 638 1311 l 638 1297 z "},"Ř":{"ha":864,"x_min":135,"x_max":843,"o":"m 408 992 q 612 960 532 992 q 731 867 692 929 q 769 710 769 804 q 740 578 769 631 q 666 494 711 525 q 571 444 621 463 l 843 0 l 697 0 l 457 410 l 260 410 l 260 0 l 135 0 l 135 992 l 408 992 m 401 883 l 260 883 l 260 515 l 408 515 q 585 563 529 515 q 640 704 640 611 q 615 808 640 769 q 536 865 589 847 q 401 883 483 883 m 368 1089 q 319 1158 350 1121 q 256 1231 289 1194 q 197 1293 222 1267 l 197 1311 l 281 1311 q 356 1254 317 1288 q 429 1183 394 1221 q 506 1254 467 1221 q 581 1311 544 1288 l 667 1311 l 667 1293 q 606 1231 640 1267 q 541 1158 572 1194 q 493 1089 510 1121 l 368 1089 z "},"Ŗ":{"ha":864,"x_min":135,"x_max":843,"o":"m 408 992 q 612 960 532 992 q 731 867 692 929 q 769 710 769 804 q 740 578 769 631 q 666 494 711 525 q 571 444 621 463 l 843 0 l 697 0 l 457 410 l 260 410 l 260 0 l 135 0 l 135 992 l 408 992 m 401 883 l 260 883 l 260 515 l 408 515 q 585 563 529 515 q 640 704 640 611 q 615 808 640 769 q 536 865 589 847 q 401 883 483 883 m 544 -97 q 522 -160 539 -122 q 481 -237 504 -199 q 433 -307 458 -276 l 367 -307 l 367 -290 q 390 -230 378 -267 q 411 -153 401 -193 q 424 -85 421 -114 l 544 -85 l 544 -97 z "},"S":{"ha":763,"x_min":71,"x_max":697,"o":"m 697 265 q 654 115 697 176 q 531 19 611 53 q 343 -14 451 -14 q 237 -8 288 -14 q 144 8 186 -3 q 71 33 103 18 l 71 153 q 195 113 121 131 q 349 94 269 94 q 472 114 422 94 q 547 169 522 133 q 572 254 572 206 q 551 336 572 303 q 480 398 531 369 q 339 458 429 426 q 197 528 254 489 q 112 622 140 567 q 83 753 83 676 q 124 888 83 832 q 235 975 164 944 q 400 1006 307 1006 q 550 990 482 1006 q 674 950 618 975 l 635 843 q 523 881 583 865 q 397 896 463 896 q 293 878 335 896 q 231 827 251 860 q 210 751 210 794 q 231 668 210 701 q 299 608 251 635 q 426 551 346 582 q 574 483 514 519 q 666 394 635 446 q 697 265 697 343 z "},"Ś":{"ha":763,"x_min":71,"x_max":697,"o":"m 697 265 q 654 115 697 176 q 531 19 611 53 q 343 -14 451 -14 q 237 -8 288 -14 q 144 8 186 -3 q 71 33 103 18 l 71 153 q 195 113 121 131 q 349 94 269 94 q 472 114 422 94 q 547 169 522 133 q 572 254 572 206 q 551 336 572 303 q 480 398 531 369 q 339 458 429 426 q 197 528 254 489 q 112 622 140 567 q 83 753 83 676 q 124 888 83 832 q 235 975 164 944 q 400 1006 307 1006 q 550 990 482 1006 q 674 950 618 975 l 635 843 q 523 881 583 865 q 397 896 463 896 q 293 878 335 896 q 231 827 251 860 q 210 751 210 794 q 231 668 210 701 q 299 608 251 635 q 426 551 346 582 q 574 483 514 519 q 666 394 635 446 q 697 265 697 343 m 601 1297 q 565 1250 589 1278 q 513 1192 542 1222 q 456 1135 485 1163 q 403 1089 428 1108 l 322 1089 l 322 1106 q 367 1168 343 1132 q 415 1242 392 1204 q 454 1311 439 1281 l 601 1311 l 601 1297 z "},"Š":{"ha":763,"x_min":71,"x_max":697,"o":"m 697 265 q 654 115 697 176 q 531 19 611 53 q 343 -14 451 -14 q 237 -8 288 -14 q 144 8 186 -3 q 71 33 103 18 l 71 153 q 195 113 121 131 q 349 94 269 94 q 472 114 422 94 q 547 169 522 133 q 572 254 572 206 q 551 336 572 303 q 480 398 531 369 q 339 458 429 426 q 197 528 254 489 q 112 622 140 567 q 83 753 83 676 q 124 888 83 832 q 235 975 164 944 q 400 1006 307 1006 q 550 990 482 1006 q 674 950 618 975 l 635 843 q 523 881 583 865 q 397 896 463 896 q 293 878 335 896 q 231 827 251 860 q 210 751 210 794 q 231 668 210 701 q 299 608 251 635 q 426 551 346 582 q 574 483 514 519 q 666 394 635 446 q 697 265 697 343 m 332 1089 q 283 1158 314 1121 q 219 1231 253 1194 q 161 1293 186 1267 l 161 1311 l 244 1311 q 319 1254 281 1288 q 393 1183 358 1221 q 469 1254 431 1221 q 544 1311 508 1288 l 631 1311 l 631 1293 q 570 1231 604 1267 q 505 1158 536 1194 q 457 1089 474 1121 l 332 1089 z "},"Ş":{"ha":763,"x_min":71,"x_max":697,"o":"m 697 265 q 654 115 697 176 q 531 19 611 53 q 343 -14 451 -14 q 237 -8 288 -14 q 144 8 186 -3 q 71 33 103 18 l 71 153 q 195 113 121 131 q 349 94 269 94 q 472 114 422 94 q 547 169 522 133 q 572 254 572 206 q 551 336 572 303 q 480 398 531 369 q 339 458 429 426 q 197 528 254 489 q 112 622 140 567 q 83 753 83 676 q 124 888 83 832 q 235 975 164 944 q 400 1006 307 1006 q 550 990 482 1006 q 674 950 618 975 l 635 843 q 523 881 583 865 q 397 896 463 896 q 293 878 335 896 q 231 827 251 860 q 210 751 210 794 q 231 668 210 701 q 299 608 251 635 q 426 551 346 582 q 574 483 514 519 q 666 394 635 446 q 697 265 697 343 m 494 -193 q 443 -297 494 -260 q 289 -333 392 -333 q 249 -331 268 -333 q 219 -326 231 -329 l 219 -250 q 253 -255 232 -253 q 293 -257 274 -257 q 369 -244 343 -257 q 396 -196 396 -231 q 359 -143 396 -160 q 269 -119 322 -126 l 329 0 l 410 0 l 374 -74 q 435 -95 407 -81 q 478 -133 463 -110 q 494 -193 494 -157 z "},"Ș":{"ha":763,"x_min":71,"x_max":697,"o":"m 697 265 q 654 115 697 176 q 531 19 611 53 q 343 -14 451 -14 q 237 -8 288 -14 q 144 8 186 -3 q 71 33 103 18 l 71 153 q 195 113 121 131 q 349 94 269 94 q 472 114 422 94 q 547 169 522 133 q 572 254 572 206 q 551 336 572 303 q 480 398 531 369 q 339 458 429 426 q 197 528 254 489 q 112 622 140 567 q 83 753 83 676 q 124 888 83 832 q 235 975 164 944 q 400 1006 307 1006 q 550 990 482 1006 q 674 950 618 975 l 635 843 q 523 881 583 865 q 397 896 463 896 q 293 878 335 896 q 231 827 251 860 q 210 751 210 794 q 231 668 210 701 q 299 608 251 635 q 426 551 346 582 q 574 483 514 519 q 666 394 635 446 q 697 265 697 343 m 446 -97 q 423 -160 440 -122 q 383 -237 406 -199 q 335 -307 360 -276 l 268 -307 l 268 -290 q 291 -230 279 -267 q 313 -153 303 -193 q 325 -85 322 -114 l 446 -85 l 446 -97 z "},"T":{"ha":772,"x_min":14,"x_max":757,"o":"m 449 0 l 324 0 l 324 882 l 14 882 l 14 992 l 757 992 l 757 882 l 449 882 l 449 0 z "},"Ť":{"ha":772,"x_min":14,"x_max":757,"o":"m 449 0 l 324 0 l 324 882 l 14 882 l 14 992 l 757 992 l 757 882 l 449 882 l 449 0 m 322 1089 q 274 1158 304 1121 q 210 1231 243 1194 q 151 1293 176 1267 l 151 1311 l 235 1311 q 310 1254 271 1288 q 383 1183 349 1221 q 460 1254 421 1221 q 535 1311 499 1288 l 621 1311 l 621 1293 q 560 1231 594 1267 q 495 1158 526 1194 q 447 1089 464 1121 l 322 1089 z "},"Ț":{"ha":772,"x_min":14,"x_max":757,"o":"m 449 0 l 324 0 l 324 882 l 14 882 l 14 992 l 757 992 l 757 882 l 449 882 l 449 0 m 475 -97 q 452 -160 469 -122 q 412 -237 435 -199 q 364 -307 389 -276 l 297 -307 l 297 -290 q 320 -230 308 -267 q 342 -153 332 -193 q 354 -85 351 -114 l 475 -85 l 475 -97 z "},"Þ":{"ha":840,"x_min":135,"x_max":769,"o":"m 769 531 q 750 411 769 468 q 685 310 731 354 q 563 241 639 267 q 372 215 486 215 l 260 215 l 260 0 l 135 0 l 135 992 l 260 992 l 260 819 l 393 819 q 682 743 594 819 q 769 531 769 667 m 360 321 q 519 341 457 321 q 610 406 581 361 q 640 524 640 451 q 580 666 640 619 q 383 713 519 713 l 260 713 l 260 321 l 360 321 z "},"U":{"ha":1015,"x_min":125,"x_max":889,"o":"m 889 350 q 847 165 889 247 q 720 34 806 82 q 503 -14 635 -14 q 222 87 318 -14 q 125 353 125 188 l 125 992 l 250 992 l 250 349 q 315 161 250 228 q 510 94 379 94 q 656 127 600 94 q 739 217 713 160 q 765 350 765 275 l 765 992 l 889 992 l 889 350 z "},"Ú":{"ha":1015,"x_min":125,"x_max":889,"o":"m 889 350 q 847 165 889 247 q 720 34 806 82 q 503 -14 635 -14 q 222 87 318 -14 q 125 353 125 188 l 125 992 l 250 992 l 250 349 q 315 161 250 228 q 510 94 379 94 q 656 127 600 94 q 739 217 713 160 q 765 350 765 275 l 765 992 l 889 992 l 889 350 m 714 1297 q 678 1250 701 1278 q 626 1192 654 1222 q 569 1135 597 1163 q 515 1089 540 1108 l 435 1089 l 435 1106 q 480 1168 456 1132 q 528 1242 504 1204 q 567 1311 551 1281 l 714 1311 l 714 1297 z "},"Ŭ":{"ha":1015,"x_min":125,"x_max":889,"o":"m 889 350 q 847 165 889 247 q 720 34 806 82 q 503 -14 635 -14 q 222 87 318 -14 q 125 353 125 188 l 125 992 l 250 992 l 250 349 q 315 161 250 228 q 510 94 379 94 q 656 127 600 94 q 739 217 713 160 q 765 350 765 275 l 765 992 l 889 992 l 889 350 m 724 1275 q 692 1178 719 1219 q 618 1113 665 1136 q 504 1089 571 1089 q 349 1140 401 1089 q 292 1275 297 1190 l 367 1275 q 408 1203 374 1218 q 507 1188 443 1188 q 601 1204 561 1188 q 647 1275 640 1221 l 724 1275 z "},"Û":{"ha":1015,"x_min":125,"x_max":889,"o":"m 889 350 q 847 165 889 247 q 720 34 806 82 q 503 -14 635 -14 q 222 87 318 -14 q 125 353 125 188 l 125 992 l 250 992 l 250 349 q 315 161 250 228 q 510 94 379 94 q 656 127 600 94 q 739 217 713 160 q 765 350 765 275 l 765 992 l 889 992 l 889 350 m 569 1311 q 617 1242 586 1281 q 683 1167 649 1204 q 743 1104 717 1131 l 743 1089 l 657 1089 q 582 1144 621 1111 q 506 1214 543 1176 q 431 1144 468 1176 q 357 1089 393 1113 l 274 1089 l 274 1104 q 333 1168 300 1132 q 396 1242 365 1204 q 444 1311 426 1281 l 569 1311 z "},"Ü":{"ha":1015,"x_min":125,"x_max":889,"o":"m 889 350 q 847 165 889 247 q 720 34 806 82 q 503 -14 635 -14 q 222 87 318 -14 q 125 353 125 188 l 125 992 l 250 992 l 250 349 q 315 161 250 228 q 510 94 379 94 q 656 127 600 94 q 739 217 713 160 q 765 350 765 275 l 765 992 l 889 992 l 889 350 m 314 1193 q 333 1245 314 1229 q 379 1261 353 1261 q 425 1245 406 1261 q 444 1193 444 1229 q 425 1141 444 1158 q 379 1124 406 1124 q 333 1141 353 1124 q 314 1193 314 1158 m 575 1193 q 594 1245 575 1229 q 639 1261 613 1261 q 685 1245 665 1261 q 704 1193 704 1229 q 685 1141 704 1158 q 639 1124 665 1124 q 594 1141 613 1124 q 575 1193 575 1158 z "},"Ù":{"ha":1015,"x_min":125,"x_max":889,"o":"m 889 350 q 847 165 889 247 q 720 34 806 82 q 503 -14 635 -14 q 222 87 318 -14 q 125 353 125 188 l 125 992 l 250 992 l 250 349 q 315 161 250 228 q 510 94 379 94 q 656 127 600 94 q 739 217 713 160 q 765 350 765 275 l 765 992 l 889 992 l 889 350 m 474 1311 q 512 1242 489 1281 q 560 1168 535 1204 q 607 1106 586 1132 l 607 1089 l 525 1089 q 472 1135 501 1108 q 415 1192 443 1163 q 363 1250 386 1222 q 328 1297 340 1278 l 328 1311 l 474 1311 z "},"Ű":{"ha":1015,"x_min":125,"x_max":889,"o":"m 889 350 q 847 165 889 247 q 720 34 806 82 q 503 -14 635 -14 q 222 87 318 -14 q 125 353 125 188 l 125 992 l 250 992 l 250 349 q 315 161 250 228 q 510 94 379 94 q 656 127 600 94 q 739 217 713 160 q 765 350 765 275 l 765 992 l 889 992 l 889 350 m 757 1297 q 725 1251 746 1279 q 677 1193 704 1224 q 623 1135 650 1163 q 572 1089 596 1108 l 503 1089 l 503 1106 q 544 1168 522 1132 q 588 1242 567 1204 q 624 1311 610 1281 l 757 1311 l 757 1297 m 513 1297 q 481 1251 501 1279 q 433 1193 460 1224 q 378 1135 406 1163 q 328 1089 351 1108 l 258 1089 l 258 1106 q 300 1168 278 1132 q 343 1242 322 1204 q 379 1311 364 1281 l 513 1311 l 513 1297 z "},"Ū":{"ha":1015,"x_min":125,"x_max":889,"o":"m 889 350 q 847 165 889 247 q 720 34 806 82 q 503 -14 635 -14 q 222 87 318 -14 q 125 353 125 188 l 125 992 l 250 992 l 250 349 q 315 161 250 228 q 510 94 379 94 q 656 127 600 94 q 739 217 713 160 q 765 350 765 275 l 765 992 l 889 992 l 889 350 m 714 1188 l 714 1089 l 301 1089 l 301 1188 l 714 1188 z "},"Ų":{"ha":1015,"x_min":125,"x_max":889,"o":"m 647 -149 q 664 -206 647 -189 q 710 -224 681 -224 q 749 -220 733 -224 q 776 -215 765 -217 l 776 -293 q 738 -302 757 -299 q 690 -306 718 -306 q 582 -269 617 -306 q 547 -162 547 -233 q 569 -76 547 -118 q 624 1 592 -33 q 683 56 656 36 l 771 71 q 701 -14 729 24 q 660 -83 674 -51 q 647 -149 647 -115 m 889 350 q 847 165 889 247 q 720 34 806 82 q 503 -14 635 -14 q 222 87 318 -14 q 125 353 125 188 l 125 992 l 250 992 l 250 349 q 315 161 250 228 q 510 94 379 94 q 656 127 600 94 q 739 217 713 160 q 765 350 765 275 l 765 992 l 889 992 l 889 350 z "},"Ů":{"ha":1015,"x_min":125,"x_max":889,"o":"m 889 350 q 847 165 889 247 q 720 34 806 82 q 503 -14 635 -14 q 222 87 318 -14 q 125 353 125 188 l 125 992 l 250 992 l 250 349 q 315 161 250 228 q 510 94 379 94 q 656 127 600 94 q 739 217 713 160 q 765 350 765 275 l 765 992 l 889 992 l 889 350 m 507 1089 q 397 1128 439 1089 q 356 1236 356 1167 q 397 1344 356 1306 q 507 1382 439 1382 q 617 1344 572 1382 q 661 1238 661 1306 q 617 1128 661 1167 q 507 1089 574 1089 m 507 1158 q 563 1179 542 1158 q 585 1236 585 1200 q 563 1293 585 1272 q 507 1314 540 1314 q 451 1293 474 1314 q 429 1236 429 1272 q 449 1179 429 1200 q 507 1158 469 1158 z "},"V":{"ha":833,"x_min":0,"x_max":833,"o":"m 833 992 l 479 0 l 354 0 l 0 992 l 131 992 l 354 356 q 381 278 369 315 q 401 206 392 240 q 417 139 410 172 q 433 207 424 172 q 453 279 442 242 q 479 358 465 317 l 701 992 l 833 992 z "},"W":{"ha":1292,"x_min":17,"x_max":1274,"o":"m 1274 992 l 1010 0 l 883 0 l 690 650 q 674 710 682 679 q 658 768 665 740 q 647 816 651 796 q 640 846 642 836 q 635 816 639 836 q 625 768 632 796 q 610 709 618 740 q 593 646 603 678 l 406 0 l 279 0 l 17 992 l 147 992 l 301 386 q 317 323 310 354 q 330 262 324 292 q 340 204 336 232 q 349 150 344 176 q 358 207 353 178 q 369 267 363 236 q 385 331 376 299 q 401 393 393 363 l 576 992 l 706 992 l 888 389 q 906 324 897 357 q 921 261 914 292 q 933 202 928 231 q 942 150 938 174 q 953 223 946 185 q 969 303 960 261 q 990 388 979 344 l 1143 992 l 1274 992 z "},"Ẃ":{"ha":1292,"x_min":17,"x_max":1274,"o":"m 1274 992 l 1010 0 l 883 0 l 690 650 q 674 710 682 679 q 658 768 665 740 q 647 816 651 796 q 640 846 642 836 q 635 816 639 836 q 625 768 632 796 q 610 709 618 740 q 593 646 603 678 l 406 0 l 279 0 l 17 992 l 147 992 l 301 386 q 317 323 310 354 q 330 262 324 292 q 340 204 336 232 q 349 150 344 176 q 358 207 353 178 q 369 267 363 236 q 385 331 376 299 q 401 393 393 363 l 576 992 l 706 992 l 888 389 q 906 324 897 357 q 921 261 914 292 q 933 202 928 231 q 942 150 938 174 q 953 223 946 185 q 969 303 960 261 q 990 388 979 344 l 1143 992 l 1274 992 m 851 1297 q 815 1250 839 1278 q 763 1192 792 1222 q 706 1135 735 1163 q 653 1089 678 1108 l 572 1089 l 572 1106 q 617 1168 593 1132 q 665 1242 642 1204 q 704 1311 689 1281 l 851 1311 l 851 1297 z "},"Ŵ":{"ha":1292,"x_min":17,"x_max":1274,"o":"m 1274 992 l 1010 0 l 883 0 l 690 650 q 674 710 682 679 q 658 768 665 740 q 647 816 651 796 q 640 846 642 836 q 635 816 639 836 q 625 768 632 796 q 610 709 618 740 q 593 646 603 678 l 406 0 l 279 0 l 17 992 l 147 992 l 301 386 q 317 323 310 354 q 330 262 324 292 q 340 204 336 232 q 349 150 344 176 q 358 207 353 178 q 369 267 363 236 q 385 331 376 299 q 401 393 393 363 l 576 992 l 706 992 l 888 389 q 906 324 897 357 q 921 261 914 292 q 933 202 928 231 q 942 150 938 174 q 953 223 946 185 q 969 303 960 261 q 990 388 979 344 l 1143 992 l 1274 992 m 707 1311 q 755 1242 724 1281 q 820 1167 786 1204 q 881 1104 854 1131 l 881 1089 l 794 1089 q 719 1144 758 1111 q 643 1214 681 1176 q 568 1144 606 1176 q 494 1089 531 1113 l 411 1089 l 411 1104 q 470 1168 438 1132 q 533 1242 503 1204 q 582 1311 564 1281 l 707 1311 z "},"Ẅ":{"ha":1292,"x_min":17,"x_max":1274,"o":"m 1274 992 l 1010 0 l 883 0 l 690 650 q 674 710 682 679 q 658 768 665 740 q 647 816 651 796 q 640 846 642 836 q 635 816 639 836 q 625 768 632 796 q 610 709 618 740 q 593 646 603 678 l 406 0 l 279 0 l 17 992 l 147 992 l 301 386 q 317 323 310 354 q 330 262 324 292 q 340 204 336 232 q 349 150 344 176 q 358 207 353 178 q 369 267 363 236 q 385 331 376 299 q 401 393 393 363 l 576 992 l 706 992 l 888 389 q 906 324 897 357 q 921 261 914 292 q 933 202 928 231 q 942 150 938 174 q 953 223 946 185 q 969 303 960 261 q 990 388 979 344 l 1143 992 l 1274 992 m 451 1193 q 471 1245 451 1229 q 517 1261 490 1261 q 563 1245 543 1261 q 582 1193 582 1229 q 563 1141 582 1158 q 517 1124 543 1124 q 471 1141 490 1124 q 451 1193 451 1158 m 713 1193 q 731 1245 713 1229 q 776 1261 750 1261 q 822 1245 803 1261 q 842 1193 842 1229 q 822 1141 842 1158 q 776 1124 803 1124 q 731 1141 750 1124 q 713 1193 713 1158 z "},"Ẁ":{"ha":1292,"x_min":17,"x_max":1274,"o":"m 1274 992 l 1010 0 l 883 0 l 690 650 q 674 710 682 679 q 658 768 665 740 q 647 816 651 796 q 640 846 642 836 q 635 816 639 836 q 625 768 632 796 q 610 709 618 740 q 593 646 603 678 l 406 0 l 279 0 l 17 992 l 147 992 l 301 386 q 317 323 310 354 q 330 262 324 292 q 340 204 336 232 q 349 150 344 176 q 358 207 353 178 q 369 267 363 236 q 385 331 376 299 q 401 393 393 363 l 576 992 l 706 992 l 888 389 q 906 324 897 357 q 921 261 914 292 q 933 202 928 231 q 942 150 938 174 q 953 223 946 185 q 969 303 960 261 q 990 388 979 344 l 1143 992 l 1274 992 m 611 1311 q 649 1242 626 1281 q 698 1168 672 1204 q 744 1106 724 1132 l 744 1089 l 663 1089 q 610 1135 639 1108 q 552 1192 581 1163 q 501 1250 524 1222 q 465 1297 478 1278 l 465 1311 l 611 1311 z "},"X":{"ha":814,"x_min":6,"x_max":808,"o":"m 808 0 l 667 0 l 404 431 l 138 0 l 6 0 l 335 517 l 26 992 l 165 992 l 408 603 l 653 992 l 785 992 l 478 519 l 808 0 z "},"Y":{"ha":786,"x_min":0,"x_max":786,"o":"m 393 504 l 651 992 l 786 992 l 456 385 l 456 0 l 331 0 l 331 379 l 0 992 l 136 992 l 393 504 z "},"Ý":{"ha":786,"x_min":0,"x_max":786,"o":"m 393 504 l 651 992 l 786 992 l 456 385 l 456 0 l 331 0 l 331 379 l 0 992 l 136 992 l 393 504 m 599 1297 q 563 1250 586 1278 q 510 1192 539 1222 q 453 1135 482 1163 q 400 1089 425 1108 l 319 1089 l 319 1106 q 365 1168 340 1132 q 413 1242 389 1204 q 451 1311 436 1281 l 599 1311 l 599 1297 z "},"Ŷ":{"ha":786,"x_min":0,"x_max":786,"o":"m 393 504 l 651 992 l 786 992 l 456 385 l 456 0 l 331 0 l 331 379 l 0 992 l 136 992 l 393 504 m 454 1311 q 502 1242 471 1281 q 567 1167 533 1204 q 628 1104 601 1131 l 628 1089 l 542 1089 q 467 1144 506 1111 q 390 1214 428 1176 q 315 1144 353 1176 q 242 1089 278 1113 l 158 1089 l 158 1104 q 217 1168 185 1132 q 281 1242 250 1204 q 329 1311 311 1281 l 454 1311 z "},"Ÿ":{"ha":786,"x_min":0,"x_max":786,"o":"m 393 504 l 651 992 l 786 992 l 456 385 l 456 0 l 331 0 l 331 379 l 0 992 l 136 992 l 393 504 m 199 1193 q 218 1245 199 1229 q 264 1261 238 1261 q 310 1245 290 1261 q 329 1193 329 1229 q 310 1141 329 1158 q 264 1124 290 1124 q 218 1141 238 1124 q 199 1193 199 1158 m 460 1193 q 478 1245 460 1229 q 524 1261 497 1261 q 569 1245 550 1261 q 589 1193 589 1229 q 569 1141 589 1158 q 524 1124 550 1124 q 478 1141 497 1124 q 460 1193 460 1158 z "},"Ỳ":{"ha":786,"x_min":0,"x_max":786,"o":"m 393 504 l 651 992 l 786 992 l 456 385 l 456 0 l 331 0 l 331 379 l 0 992 l 136 992 l 393 504 m 358 1311 q 397 1242 374 1281 q 445 1168 419 1204 q 492 1106 471 1132 l 492 1089 l 410 1089 q 357 1135 386 1108 q 299 1192 328 1163 q 248 1250 271 1222 q 213 1297 225 1278 l 213 1311 l 358 1311 z "},"Z":{"ha":794,"x_min":53,"x_max":740,"o":"m 740 0 l 53 0 l 53 94 l 575 881 l 69 881 l 69 992 l 726 992 l 726 897 l 204 111 l 740 111 l 740 0 z "},"Ź":{"ha":794,"x_min":53,"x_max":740,"o":"m 740 0 l 53 0 l 53 94 l 575 881 l 69 881 l 69 992 l 726 992 l 726 897 l 204 111 l 740 111 l 740 0 m 608 1297 q 572 1250 596 1278 q 520 1192 549 1222 q 463 1135 492 1163 q 410 1089 435 1108 l 329 1089 l 329 1106 q 374 1168 350 1132 q 422 1242 399 1204 q 461 1311 446 1281 l 608 1311 l 608 1297 z "},"Ž":{"ha":794,"x_min":53,"x_max":740,"o":"m 740 0 l 53 0 l 53 94 l 575 881 l 69 881 l 69 992 l 726 992 l 726 897 l 204 111 l 740 111 l 740 0 m 339 1089 q 290 1158 321 1121 q 226 1231 260 1194 q 168 1293 193 1267 l 168 1311 l 251 1311 q 326 1254 288 1288 q 400 1183 365 1221 q 476 1254 438 1221 q 551 1311 515 1288 l 638 1311 l 638 1293 q 577 1231 611 1267 q 512 1158 543 1194 q 464 1089 481 1121 l 339 1089 z "},"Ż":{"ha":794,"x_min":53,"x_max":740,"o":"m 740 0 l 53 0 l 53 94 l 575 881 l 69 881 l 69 992 l 726 992 l 726 897 l 204 111 l 740 111 l 740 0 m 404 1271 q 453 1252 432 1271 q 475 1193 475 1233 q 453 1135 475 1154 q 404 1115 432 1115 q 353 1135 374 1115 q 332 1193 332 1154 q 353 1252 332 1233 q 404 1271 374 1271 z "},"a":{"ha":779,"x_min":64,"x_max":667,"o":"m 400 757 q 601 697 536 757 q 667 507 667 638 l 667 0 l 578 0 l 554 106 l 549 106 q 483 38 517 65 q 405 -1 449 11 q 299 -14 361 -14 q 178 10 232 -14 q 94 83 125 33 q 64 207 64 132 q 151 378 64 318 q 421 444 239 439 l 547 449 l 547 493 q 507 622 547 586 q 393 658 467 658 q 282 641 335 658 q 183 601 229 624 l 146 693 q 261 738 194 719 q 400 757 328 757 m 436 360 q 244 315 297 354 q 190 206 190 276 q 228 114 190 143 q 326 85 267 85 q 483 137 421 85 q 546 297 546 189 l 546 364 l 436 360 z "},"á":{"ha":779,"x_min":64,"x_max":667,"o":"m 400 757 q 601 697 536 757 q 667 507 667 638 l 667 0 l 578 0 l 554 106 l 549 106 q 483 38 517 65 q 405 -1 449 11 q 299 -14 361 -14 q 178 10 232 -14 q 94 83 125 33 q 64 207 64 132 q 151 378 64 318 q 421 444 239 439 l 547 449 l 547 493 q 507 622 547 586 q 393 658 467 658 q 282 641 335 658 q 183 601 229 624 l 146 693 q 261 738 194 719 q 400 757 328 757 m 436 360 q 244 315 297 354 q 190 206 190 276 q 228 114 190 143 q 326 85 267 85 q 483 137 421 85 q 546 297 546 189 l 546 364 l 436 360 m 596 1050 q 560 1003 583 1031 q 508 945 536 975 q 451 888 479 915 q 397 842 422 861 l 317 842 l 317 858 q 362 921 338 885 q 410 995 386 957 q 449 1064 433 1033 l 596 1064 l 596 1050 z "},"ă":{"ha":779,"x_min":64,"x_max":667,"o":"m 400 757 q 601 697 536 757 q 667 507 667 638 l 667 0 l 578 0 l 554 106 l 549 106 q 483 38 517 65 q 405 -1 449 11 q 299 -14 361 -14 q 178 10 232 -14 q 94 83 125 33 q 64 207 64 132 q 151 378 64 318 q 421 444 239 439 l 547 449 l 547 493 q 507 622 547 586 q 393 658 467 658 q 282 641 335 658 q 183 601 229 624 l 146 693 q 261 738 194 719 q 400 757 328 757 m 436 360 q 244 315 297 354 q 190 206 190 276 q 228 114 190 143 q 326 85 267 85 q 483 137 421 85 q 546 297 546 189 l 546 364 l 436 360 m 606 1028 q 574 931 601 972 q 500 865 547 889 q 386 842 453 842 q 231 892 283 842 q 174 1028 179 943 l 249 1028 q 290 956 256 971 q 389 940 325 940 q 483 957 443 940 q 529 1028 522 974 l 606 1028 z "},"â":{"ha":779,"x_min":64,"x_max":667,"o":"m 400 757 q 601 697 536 757 q 667 507 667 638 l 667 0 l 578 0 l 554 106 l 549 106 q 483 38 517 65 q 405 -1 449 11 q 299 -14 361 -14 q 178 10 232 -14 q 94 83 125 33 q 64 207 64 132 q 151 378 64 318 q 421 444 239 439 l 547 449 l 547 493 q 507 622 547 586 q 393 658 467 658 q 282 641 335 658 q 183 601 229 624 l 146 693 q 261 738 194 719 q 400 757 328 757 m 436 360 q 244 315 297 354 q 190 206 190 276 q 228 114 190 143 q 326 85 267 85 q 483 137 421 85 q 546 297 546 189 l 546 364 l 436 360 m 451 1064 q 499 995 468 1033 q 565 920 531 957 q 625 857 599 883 l 625 842 l 539 842 q 464 897 503 864 q 388 967 425 929 q 313 897 350 929 q 239 842 275 865 l 156 842 l 156 857 q 215 921 182 885 q 278 995 247 957 q 326 1064 308 1033 l 451 1064 z "},"´":{"ha":390,"x_min":56,"x_max":335,"o":"m 335 1050 q 299 1003 322 1031 q 247 945 275 975 q 190 888 218 915 q 136 842 161 861 l 56 842 l 56 858 q 101 921 76 885 q 149 995 125 957 q 188 1064 172 1033 l 335 1064 l 335 1050 z "},"ä":{"ha":779,"x_min":64,"x_max":667,"o":"m 400 757 q 601 697 536 757 q 667 507 667 638 l 667 0 l 578 0 l 554 106 l 549 106 q 483 38 517 65 q 405 -1 449 11 q 299 -14 361 -14 q 178 10 232 -14 q 94 83 125 33 q 64 207 64 132 q 151 378 64 318 q 421 444 239 439 l 547 449 l 547 493 q 507 622 547 586 q 393 658 467 658 q 282 641 335 658 q 183 601 229 624 l 146 693 q 261 738 194 719 q 400 757 328 757 m 436 360 q 244 315 297 354 q 190 206 190 276 q 228 114 190 143 q 326 85 267 85 q 483 137 421 85 q 546 297 546 189 l 546 364 l 436 360 m 196 946 q 215 998 196 982 q 261 1014 235 1014 q 307 998 288 1014 q 326 946 326 982 q 307 894 326 911 q 261 876 288 876 q 215 894 235 876 q 196 946 196 911 m 457 946 q 476 998 457 982 q 521 1014 494 1014 q 567 998 547 1014 q 586 946 586 982 q 567 894 586 911 q 521 876 547 876 q 476 894 494 876 q 457 946 457 911 z "},"æ":{"ha":1200,"x_min":64,"x_max":1129,"o":"m 838 758 q 993 717 928 758 q 1094 600 1058 675 q 1129 425 1129 525 l 1129 350 l 653 350 q 710 153 656 217 q 868 90 765 90 q 990 103 938 90 q 1096 142 1043 117 l 1096 35 q 987 -2 1040 10 q 864 -14 933 -14 q 747 3 800 -14 q 652 56 693 21 q 582 143 611 92 q 512 60 550 96 q 423 6 474 25 q 300 -14 372 -14 q 180 10 233 -14 q 95 83 126 33 q 64 207 64 132 q 101 333 64 282 q 213 413 138 385 q 403 444 289 442 l 528 449 l 528 496 q 485 622 528 586 q 372 658 443 658 q 263 642 317 658 q 164 601 210 625 l 126 693 q 244 739 175 721 q 382 757 314 757 q 524 728 468 757 q 610 638 581 700 q 704 726 646 694 q 838 758 763 758 m 421 360 q 240 315 290 354 q 190 206 190 276 q 226 114 190 143 q 319 85 261 85 q 424 108 378 85 q 498 178 471 131 q 525 297 525 225 l 525 364 l 421 360 m 836 658 q 709 603 756 658 q 656 446 663 549 l 1000 446 q 983 558 1000 510 q 929 632 965 606 q 836 658 893 658 z "},"à":{"ha":779,"x_min":64,"x_max":667,"o":"m 400 757 q 601 697 536 757 q 667 507 667 638 l 667 0 l 578 0 l 554 106 l 549 106 q 483 38 517 65 q 405 -1 449 11 q 299 -14 361 -14 q 178 10 232 -14 q 94 83 125 33 q 64 207 64 132 q 151 378 64 318 q 421 444 239 439 l 547 449 l 547 493 q 507 622 547 586 q 393 658 467 658 q 282 641 335 658 q 183 601 229 624 l 146 693 q 261 738 194 719 q 400 757 328 757 m 436 360 q 244 315 297 354 q 190 206 190 276 q 228 114 190 143 q 326 85 267 85 q 483 137 421 85 q 546 297 546 189 l 546 364 l 436 360 m 356 1064 q 394 995 371 1033 q 442 921 417 957 q 489 858 468 885 l 489 842 l 407 842 q 354 888 383 861 q 297 945 325 915 q 245 1003 268 975 q 210 1050 222 1031 l 210 1064 l 356 1064 z "},"ā":{"ha":779,"x_min":64,"x_max":667,"o":"m 400 757 q 601 697 536 757 q 667 507 667 638 l 667 0 l 578 0 l 554 106 l 549 106 q 483 38 517 65 q 405 -1 449 11 q 299 -14 361 -14 q 178 10 232 -14 q 94 83 125 33 q 64 207 64 132 q 151 378 64 318 q 421 444 239 439 l 547 449 l 547 493 q 507 622 547 586 q 393 658 467 658 q 282 641 335 658 q 183 601 229 624 l 146 693 q 261 738 194 719 q 400 757 328 757 m 436 360 q 244 315 297 354 q 190 206 190 276 q 228 114 190 143 q 326 85 267 85 q 483 137 421 85 q 546 297 546 189 l 546 364 l 436 360 m 596 940 l 596 842 l 183 842 l 183 940 l 596 940 z "},"&":{"ha":1017,"x_min":74,"x_max":1014,"o":"m 422 1007 q 598 951 533 1007 q 663 793 663 894 q 606 644 663 706 q 464 533 550 583 l 732 275 q 791 374 768 318 q 829 496 814 431 l 953 496 q 897 331 931 407 q 811 197 864 254 l 1014 0 l 849 0 l 728 117 q 635 49 685 78 q 524 3 585 19 q 386 -14 464 -14 q 220 17 290 -14 q 112 110 150 49 q 74 258 74 171 q 99 381 74 329 q 174 472 125 432 q 288 550 222 513 q 231 619 258 583 q 185 698 203 656 q 167 790 167 740 q 235 950 167 893 q 422 1007 304 1007 m 361 474 q 276 415 311 444 q 221 349 240 385 q 201 263 201 313 q 253 140 201 186 q 390 94 304 94 q 543 124 479 94 q 650 193 607 153 l 361 474 m 418 907 q 323 876 360 907 q 286 792 286 846 q 313 699 286 742 q 389 606 339 657 q 506 695 471 653 q 542 793 542 738 q 508 875 542 843 q 418 907 475 907 z "},"ą":{"ha":779,"x_min":64,"x_max":701,"o":"m 400 757 q 601 697 536 757 q 667 507 667 638 l 667 0 l 578 0 l 554 106 l 549 106 q 483 38 517 65 q 405 -1 449 11 q 299 -14 361 -14 q 178 10 232 -14 q 94 83 125 33 q 64 207 64 132 q 151 378 64 318 q 421 444 239 439 l 547 449 l 547 493 q 507 622 547 586 q 393 658 467 658 q 282 641 335 658 q 183 601 229 624 l 146 693 q 261 738 194 719 q 400 757 328 757 m 436 360 q 244 315 297 354 q 190 206 190 276 q 228 114 190 143 q 326 85 267 85 q 483 137 421 85 q 546 297 546 189 l 546 364 l 436 360 m 572 -161 q 589 -208 572 -192 q 635 -224 606 -224 q 674 -220 658 -224 q 701 -215 690 -217 l 701 -293 q 663 -302 682 -299 q 615 -306 643 -306 q 507 -271 542 -306 q 472 -175 472 -236 q 492 -97 472 -135 q 542 -29 513 -60 q 600 21 572 1 l 667 0 q 596 -81 619 -44 q 572 -161 572 -118 z "},"å":{"ha":779,"x_min":64,"x_max":667,"o":"m 400 757 q 601 697 536 757 q 667 507 667 638 l 667 0 l 578 0 l 554 106 l 549 106 q 483 38 517 65 q 405 -1 449 11 q 299 -14 361 -14 q 178 10 232 -14 q 94 83 125 33 q 64 207 64 132 q 151 378 64 318 q 421 444 239 439 l 547 449 l 547 493 q 507 622 547 586 q 393 658 467 658 q 282 641 335 658 q 183 601 229 624 l 146 693 q 261 738 194 719 q 400 757 328 757 m 436 360 q 244 315 297 354 q 190 206 190 276 q 228 114 190 143 q 326 85 267 85 q 483 137 421 85 q 546 297 546 189 l 546 364 l 436 360 m 389 842 q 279 881 321 842 q 238 989 238 919 q 279 1097 238 1058 q 389 1135 321 1135 q 499 1097 454 1135 q 543 990 543 1058 q 499 881 543 919 q 389 842 456 842 m 389 911 q 445 932 424 911 q 467 989 467 953 q 444 1046 467 1025 q 389 1067 422 1067 q 333 1046 356 1067 q 311 989 311 1025 q 331 932 311 953 q 389 911 351 911 z "},"^":{"ha":794,"x_min":53,"x_max":742,"o":"m 53 371 l 347 999 l 417 999 l 742 371 l 633 371 l 383 869 l 161 371 l 53 371 z "},"~":{"ha":794,"x_min":69,"x_max":724,"o":"m 374 443 q 291 473 324 465 q 228 481 258 481 q 146 457 189 481 q 69 399 103 433 l 69 507 q 144 562 103 543 q 236 581 186 581 q 316 572 276 581 q 419 536 356 564 q 502 506 469 514 q 564 499 535 499 q 647 522 604 499 q 724 581 690 546 l 724 474 q 649 418 690 438 q 557 399 607 399 q 477 408 518 399 q 374 443 436 417 z "},"*":{"ha":765,"x_min":57,"x_max":706,"o":"m 447 1056 l 419 789 l 686 864 l 706 736 l 450 715 l 615 496 l 496 431 l 378 674 l 271 431 l 147 496 l 310 715 l 57 736 l 76 864 l 340 789 l 311 1056 l 447 1056 z "},"@":{"ha":1249,"x_min":81,"x_max":1168,"o":"m 1168 496 q 1153 371 1168 432 q 1108 260 1139 310 q 1033 181 1078 211 q 928 151 989 151 q 827 188 864 151 q 782 272 790 225 l 775 272 q 701 186 750 221 q 579 151 653 151 q 416 222 474 151 q 358 410 358 293 q 394 572 358 501 q 497 682 431 642 q 653 722 563 722 q 773 712 714 722 q 865 689 832 701 l 851 407 q 850 372 850 382 q 850 357 850 361 q 876 261 850 285 q 936 238 901 238 q 1009 273 979 238 q 1055 367 1039 308 q 1071 497 1071 426 q 1019 716 1071 626 q 876 853 967 806 q 669 900 785 900 q 460 863 551 900 q 306 757 368 825 q 213 597 244 689 q 181 393 181 504 q 229 162 181 257 q 372 17 278 67 q 601 -32 465 -32 q 763 -13 686 -32 q 900 28 840 6 l 900 -67 q 766 -108 840 -92 q 601 -124 692 -124 q 321 -62 438 -124 q 142 113 204 -1 q 81 389 81 228 q 121 628 81 518 q 238 820 161 739 q 423 947 314 901 q 669 992 532 992 q 869 958 778 992 q 1027 859 960 924 q 1131 703 1094 794 q 1168 496 1168 611 m 467 407 q 502 278 467 318 q 597 238 538 238 q 709 296 675 238 q 749 447 743 354 l 757 621 q 711 631 739 626 q 654 635 683 635 q 544 601 586 635 q 485 516 503 568 q 467 407 467 464 z "},"ã":{"ha":779,"x_min":64,"x_max":667,"o":"m 400 757 q 601 697 536 757 q 667 507 667 638 l 667 0 l 578 0 l 554 106 l 549 106 q 483 38 517 65 q 405 -1 449 11 q 299 -14 361 -14 q 178 10 232 -14 q 94 83 125 33 q 64 207 64 132 q 151 378 64 318 q 421 444 239 439 l 547 449 l 547 493 q 507 622 547 586 q 393 658 467 658 q 282 641 335 658 q 183 601 229 624 l 146 693 q 261 738 194 719 q 400 757 328 757 m 436 360 q 244 315 297 354 q 190 206 190 276 q 228 114 190 143 q 326 85 267 85 q 483 137 421 85 q 546 297 546 189 l 546 364 l 436 360 m 136 842 q 152 916 140 883 q 183 972 164 949 q 229 1007 203 994 q 289 1019 256 1019 q 348 1008 319 1019 q 403 980 376 996 q 453 952 429 964 q 500 940 478 940 q 549 960 532 940 q 576 1021 567 981 l 646 1021 q 599 892 638 940 q 494 843 560 843 q 438 855 465 843 q 383 883 410 867 q 331 910 356 899 q 283 922 307 922 q 233 902 250 922 q 207 842 217 882 l 136 842 z "},"b":{"ha":854,"x_min":118,"x_max":778,"o":"m 240 799 q 238 710 240 751 q 233 646 236 669 l 240 646 q 328 725 272 693 q 471 757 383 757 q 694 660 610 757 q 778 372 778 564 q 740 158 778 244 q 632 29 701 72 q 471 -14 563 -14 q 328 18 383 -14 q 240 94 272 50 l 231 94 l 206 0 l 118 0 l 118 1056 l 240 1056 l 240 799 m 450 656 q 325 626 371 656 q 260 534 279 596 q 240 376 240 472 l 240 371 q 285 160 240 233 q 453 88 331 88 q 602 161 553 88 q 651 374 651 235 q 602 585 651 514 q 450 656 553 656 z "},"\\":{"ha":517,"x_min":14,"x_max":504,"o":"m 133 992 l 504 0 l 383 0 l 14 992 l 133 992 z "},"|":{"ha":765,"x_min":332,"x_max":433,"o":"m 332 1056 l 433 1056 l 433 -335 l 332 -335 l 332 1056 z "},"{":{"ha":528,"x_min":39,"x_max":483,"o":"m 483 -219 q 337 -194 399 -218 q 242 -122 275 -171 q 208 1 208 -72 l 208 206 q 189 281 208 253 q 132 323 169 310 q 39 336 94 336 l 39 438 q 132 451 94 439 q 189 492 169 464 q 208 567 208 521 l 208 772 q 243 894 208 846 q 340 967 278 943 q 483 992 403 992 l 483 892 q 401 876 436 890 q 348 835 367 863 q 329 761 329 807 l 329 561 q 292 448 329 490 q 178 392 254 406 l 178 383 q 292 327 256 369 q 329 214 329 285 l 329 10 q 347 -63 329 -35 q 400 -105 365 -92 q 483 -119 435 -118 l 483 -219 z "},"}":{"ha":528,"x_min":44,"x_max":489,"o":"m 44 -119 q 127 -104 93 -118 q 180 -62 161 -90 q 199 11 199 -33 l 199 213 q 236 326 199 283 q 350 382 274 368 l 350 390 q 236 447 274 404 q 199 560 199 489 l 199 763 q 181 836 199 808 q 128 878 163 864 q 44 892 94 892 l 44 992 q 192 967 131 992 q 286 894 253 943 q 319 771 319 846 l 319 568 q 339 492 319 521 q 397 451 358 464 q 489 438 435 438 l 489 336 q 397 323 435 336 q 339 282 358 310 q 319 207 319 254 l 319 0 q 285 -122 319 -74 q 188 -195 250 -171 q 44 -219 126 -219 l 44 -119 z "},"[":{"ha":457,"x_min":111,"x_max":422,"o":"m 422 -219 l 111 -219 l 111 992 l 422 992 l 422 892 l 231 892 l 231 -119 l 422 -119 l 422 -219 z "},"]":{"ha":457,"x_min":35,"x_max":346,"o":"m 35 -119 l 226 -119 l 226 892 l 35 892 l 35 992 l 346 992 l 346 -219 l 35 -219 l 35 -119 z "},"˘":{"ha":543,"x_min":56,"x_max":488,"o":"m 488 1028 q 456 931 483 972 q 382 865 429 889 q 268 842 335 842 q 113 892 165 842 q 56 1028 61 943 l 131 1028 q 172 956 138 971 q 271 940 207 940 q 365 957 325 940 q 411 1028 404 974 l 488 1028 z "},"̆":{"ha":0,"x_min":-215,"x_max":217,"o":"m 217 1028 q 185 931 213 972 q 111 865 158 889 q -3 842 64 842 q -158 892 -106 842 q -215 1028 -210 943 l -140 1028 q -99 956 -133 971 q 0 940 -64 940 q 94 957 54 940 q 140 1028 133 974 l 217 1028 z "},"•":{"ha":522,"x_min":107,"x_max":415,"o":"m 107 507 q 127 608 107 569 q 183 663 147 646 q 261 679 218 679 q 339 663 304 679 q 394 608 374 646 q 415 507 415 569 q 394 408 415 446 q 339 352 374 369 q 261 335 304 335 q 183 352 218 335 q 127 408 147 369 q 107 507 107 446 z "},"c":{"ha":667,"x_min":76,"x_max":621,"o":"m 417 -14 q 241 26 318 -14 q 120 151 164 67 q 76 368 76 236 q 122 592 76 506 q 247 718 168 678 q 425 758 325 758 q 535 747 482 758 q 621 718 588 735 l 583 617 q 506 640 550 629 q 422 651 461 651 q 299 619 347 651 q 226 525 250 588 q 203 369 203 463 q 226 218 203 281 q 297 124 250 156 q 415 92 344 92 q 523 104 476 92 q 608 135 569 117 l 608 26 q 526 -3 571 7 q 417 -14 481 -14 z "},"ć":{"ha":667,"x_min":76,"x_max":621,"o":"m 417 -14 q 241 26 318 -14 q 120 151 164 67 q 76 368 76 236 q 122 592 76 506 q 247 718 168 678 q 425 758 325 758 q 535 747 482 758 q 621 718 588 735 l 583 617 q 506 640 550 629 q 422 651 461 651 q 299 619 347 651 q 226 525 250 588 q 203 369 203 463 q 226 218 203 281 q 297 124 250 156 q 415 92 344 92 q 523 104 476 92 q 608 135 569 117 l 608 26 q 526 -3 571 7 q 417 -14 481 -14 m 600 1050 q 564 1003 588 1031 q 512 945 540 975 q 455 888 483 915 q 401 842 426 861 l 321 842 l 321 858 q 366 921 342 885 q 414 995 390 957 q 453 1064 438 1033 l 600 1064 l 600 1050 z "},"ˇ":{"ha":581,"x_min":56,"x_max":525,"o":"m 226 842 q 178 910 208 874 q 114 983 147 947 q 56 1046 81 1019 l 56 1064 l 139 1064 q 214 1007 175 1040 q 288 936 253 974 q 364 1007 325 974 q 439 1064 403 1040 l 525 1064 l 525 1046 q 465 983 499 1019 q 399 910 431 947 q 351 842 368 874 l 226 842 z "},"̌":{"ha":0,"x_min":-235,"x_max":235,"o":"m -64 842 q -112 910 -82 874 q -176 983 -143 947 q -235 1046 -210 1019 l -235 1064 l -151 1064 q -76 1007 -115 1040 q -3 936 -37 974 q 74 1007 35 974 q 149 1064 113 1040 l 235 1064 l 235 1046 q 174 983 208 1019 q 109 910 140 947 q 61 842 78 874 l -64 842 z "},"č":{"ha":667,"x_min":76,"x_max":629,"o":"m 417 -14 q 241 26 318 -14 q 120 151 164 67 q 76 368 76 236 q 122 592 76 506 q 247 718 168 678 q 425 758 325 758 q 535 747 482 758 q 621 718 588 735 l 583 617 q 506 640 550 629 q 422 651 461 651 q 299 619 347 651 q 226 525 250 588 q 203 369 203 463 q 226 218 203 281 q 297 124 250 156 q 415 92 344 92 q 523 104 476 92 q 608 135 569 117 l 608 26 q 526 -3 571 7 q 417 -14 481 -14 m 331 842 q 282 910 313 874 q 218 983 251 947 q 160 1046 185 1019 l 160 1064 l 243 1064 q 318 1007 279 1040 q 392 936 357 974 q 468 1007 429 974 q 543 1064 507 1040 l 629 1064 l 629 1046 q 569 983 603 1019 q 503 910 535 947 q 456 842 472 874 l 331 842 z "},"ç":{"ha":667,"x_min":76,"x_max":621,"o":"m 417 -14 q 241 26 318 -14 q 120 151 164 67 q 76 368 76 236 q 122 592 76 506 q 247 718 168 678 q 425 758 325 758 q 535 747 482 758 q 621 718 588 735 l 583 617 q 506 640 550 629 q 422 651 461 651 q 299 619 347 651 q 226 525 250 588 q 203 369 203 463 q 226 218 203 281 q 297 124 250 156 q 415 92 344 92 q 523 104 476 92 q 608 135 569 117 l 608 26 q 526 -3 571 7 q 417 -14 481 -14 m 531 -193 q 479 -297 531 -260 q 325 -333 428 -333 q 285 -331 304 -333 q 256 -326 267 -329 l 256 -250 q 289 -255 268 -253 q 329 -257 310 -257 q 406 -244 379 -257 q 432 -196 432 -231 q 395 -143 432 -160 q 306 -119 358 -126 l 365 0 l 446 0 l 410 -74 q 471 -95 443 -81 q 515 -133 499 -110 q 531 -193 531 -157 z "},"ċ":{"ha":667,"x_min":76,"x_max":621,"o":"m 417 -14 q 241 26 318 -14 q 120 151 164 67 q 76 368 76 236 q 122 592 76 506 q 247 718 168 678 q 425 758 325 758 q 535 747 482 758 q 621 718 588 735 l 583 617 q 506 640 550 629 q 422 651 461 651 q 299 619 347 651 q 226 525 250 588 q 203 369 203 463 q 226 218 203 281 q 297 124 250 156 q 415 92 344 92 q 523 104 476 92 q 608 135 569 117 l 608 26 q 526 -3 571 7 q 417 -14 481 -14 m 396 1024 q 445 1005 424 1024 q 467 946 467 986 q 445 888 467 907 q 396 868 424 868 q 344 888 365 868 q 324 946 324 907 q 344 1005 324 986 q 396 1024 365 1024 z "},"¸":{"ha":313,"x_min":19,"x_max":294,"o":"m 294 -193 q 243 -297 294 -260 q 89 -333 192 -333 q 49 -331 68 -333 q 19 -326 31 -329 l 19 -250 q 53 -255 32 -253 q 93 -257 74 -257 q 169 -244 143 -257 q 196 -196 196 -231 q 159 -143 196 -160 q 69 -119 122 -126 l 129 0 l 210 0 l 174 -74 q 235 -95 207 -81 q 278 -133 263 -110 q 294 -193 294 -157 z "},"̧":{"ha":0,"x_min":-136,"x_max":139,"o":"m 139 -193 q 88 -297 139 -260 q -67 -333 36 -333 q -106 -331 -87 -333 q -136 -326 -125 -329 l -136 -250 q -103 -255 -124 -253 q -62 -257 -82 -257 q 14 -244 -12 -257 q 40 -196 40 -231 q 3 -143 40 -160 q -86 -119 -33 -126 l -26 0 l 54 0 l 18 -74 q 79 -95 51 -81 q 123 -133 107 -110 q 139 -193 139 -157 z "},"¢":{"ha":794,"x_min":126,"x_max":674,"o":"m 490 894 q 591 881 543 893 q 674 854 639 869 l 638 753 q 556 778 601 767 q 472 789 510 789 q 348 758 397 789 q 275 663 299 726 q 251 504 251 600 q 276 347 251 408 q 348 257 300 286 q 467 228 396 228 q 573 240 528 228 q 661 269 618 251 l 661 163 q 583 134 624 144 q 489 121 543 124 l 489 -14 l 396 -14 l 396 125 q 253 179 314 138 q 160 300 193 221 q 126 503 126 379 q 160 710 126 629 q 254 833 193 790 q 396 889 315 876 l 396 1006 l 490 1006 l 490 894 z "},"ˆ":{"ha":581,"x_min":56,"x_max":525,"o":"m 351 1064 q 399 995 368 1033 q 465 920 431 957 q 525 857 499 883 l 525 842 l 439 842 q 364 897 403 864 q 288 967 325 929 q 213 897 250 929 q 139 842 175 865 l 56 842 l 56 857 q 115 921 82 885 q 178 995 147 957 q 226 1064 208 1033 l 351 1064 z "},":":{"ha":372,"x_min":100,"x_max":272,"o":"m 100 75 q 125 147 100 126 q 185 168 150 168 q 247 147 221 168 q 272 75 272 126 q 247 3 272 25 q 185 -19 221 -19 q 125 3 150 -19 q 100 75 100 25 m 100 669 q 125 743 100 722 q 185 764 150 764 q 247 743 221 764 q 272 669 272 722 q 247 597 272 619 q 185 575 221 575 q 125 597 150 575 q 100 669 100 619 z "},",":{"ha":372,"x_min":57,"x_max":267,"o":"m 267 146 q 235 40 254 97 q 192 -73 215 -17 q 147 -179 169 -129 l 57 -179 q 84 -66 71 -126 q 108 53 97 -6 q 126 161 119 113 l 257 161 l 267 146 z "},"̦":{"ha":0,"x_min":-89,"x_max":89,"o":"m 89 -97 q 66 -160 83 -122 q 26 -237 49 -199 q -22 -307 3 -276 l -89 -307 l -89 -290 q -66 -230 -78 -267 q -44 -153 -54 -193 q -32 -85 -35 -114 l 89 -85 l 89 -97 z "},"̒":{"ha":0,"x_min":-110,"x_max":100,"o":"m -110 667 q -78 772 -97 715 q -35 886 -58 829 q 10 992 -12 943 l 100 992 q 74 878 88 939 q 49 759 60 818 q 31 651 38 700 l -101 651 l -110 667 z "},"©":{"ha":1156,"x_min":68,"x_max":1088,"o":"m 599 185 q 393 270 461 185 q 325 496 325 356 q 357 656 325 586 q 451 766 389 726 q 604 806 514 806 q 692 794 647 806 q 775 764 736 783 l 735 679 q 667 706 700 697 q 606 715 635 715 q 478 657 524 715 q 433 496 433 599 q 473 333 433 390 q 604 275 513 275 q 676 284 636 275 q 750 307 715 293 l 750 218 q 682 194 717 204 q 599 185 647 185 m 578 -14 q 374 24 467 -14 q 212 130 281 61 q 106 292 143 199 q 68 496 68 385 q 106 700 68 607 q 212 862 143 793 q 374 968 281 931 q 578 1006 467 1006 q 776 968 683 1006 q 938 862 868 931 q 1048 700 1008 793 q 1088 496 1088 607 q 1050 292 1088 385 q 944 130 1013 199 q 782 24 875 61 q 578 -14 689 -14 m 578 60 q 744 92 667 60 q 882 183 822 124 q 975 321 942 242 q 1008 496 1008 400 q 976 665 1008 586 q 887 804 944 744 q 751 898 829 864 q 578 932 672 932 q 404 900 483 932 q 267 809 325 868 q 178 671 210 750 q 146 496 146 592 q 178 326 146 406 q 267 188 210 247 q 404 94 325 128 q 578 60 483 60 z "},"d":{"ha":854,"x_min":76,"x_max":736,"o":"m 382 -14 q 160 83 243 -14 q 76 371 76 179 q 160 660 76 563 q 383 758 244 758 q 485 744 442 758 q 560 704 528 729 q 614 649 592 679 l 622 649 q 617 702 621 667 q 614 758 614 738 l 614 1056 l 736 1056 l 736 0 l 638 0 l 619 100 l 614 100 q 560 42 592 68 q 484 1 528 17 q 382 -14 440 -14 m 401 88 q 567 152 519 88 q 615 347 615 217 l 615 369 q 569 583 615 508 q 400 657 524 657 q 252 578 301 657 q 203 368 203 500 q 252 161 203 235 q 401 88 301 88 z "},"ď":{"ha":854,"x_min":76,"x_max":956,"o":"m 382 -14 q 160 83 243 -14 q 76 371 76 179 q 160 660 76 563 q 383 758 244 758 q 485 744 442 758 q 560 704 528 729 q 614 649 592 679 l 622 649 q 617 702 621 667 q 614 758 614 738 l 614 1056 l 736 1056 l 736 0 l 638 0 l 619 100 l 614 100 q 560 42 592 68 q 484 1 528 17 q 382 -14 440 -14 m 401 88 q 567 152 519 88 q 615 347 615 217 l 615 369 q 569 583 615 508 q 400 657 524 657 q 252 578 301 657 q 203 368 203 500 q 252 161 203 235 q 401 88 301 88 m 956 1043 q 934 981 950 1018 q 897 903 918 943 q 856 833 876 864 l 789 833 l 789 850 q 803 896 796 869 q 816 951 810 922 q 827 1006 822 979 q 835 1056 832 1033 l 956 1056 l 956 1043 z "},"đ":{"ha":857,"x_min":76,"x_max":842,"o":"m 382 -14 q 160 83 243 -14 q 76 368 76 179 q 160 658 76 563 q 382 754 244 754 q 484 740 440 754 q 560 700 528 725 q 614 644 592 675 l 622 644 q 617 698 619 663 q 614 756 614 733 l 614 840 l 318 840 l 318 932 l 614 932 l 614 1056 l 736 1056 l 736 932 l 842 932 l 842 840 l 736 840 l 736 0 l 636 0 l 618 100 l 613 100 q 558 42 590 68 q 483 1 526 17 q 382 -14 440 -14 m 403 88 q 567 151 519 88 q 615 344 615 215 l 615 368 q 569 581 615 508 q 400 653 524 653 q 253 576 301 653 q 204 367 204 500 q 253 160 204 233 q 403 88 301 88 z "},"°":{"ha":594,"x_min":76,"x_max":518,"o":"m 297 579 q 181 606 231 579 q 104 681 132 633 q 76 792 76 729 q 103 903 76 856 q 180 978 131 951 q 297 1006 229 1006 q 413 978 363 1006 q 490 903 463 951 q 518 792 518 856 q 490 681 518 729 q 413 606 463 633 q 297 579 363 579 m 299 661 q 397 697 365 661 q 428 792 428 733 q 395 889 428 853 q 299 925 363 925 q 199 889 231 925 q 167 792 167 853 q 199 697 167 733 q 299 661 231 661 z "},"¨":{"ha":806,"x_min":207,"x_max":597,"o":"m 207 946 q 226 998 207 982 q 272 1014 246 1014 q 318 998 299 1014 q 338 946 338 982 q 318 894 338 911 q 272 876 299 876 q 226 894 246 876 q 207 946 207 911 m 468 946 q 487 998 468 982 q 532 1014 506 1014 q 578 998 558 1014 q 597 946 597 982 q 578 894 597 911 q 532 876 558 876 q 487 894 506 876 q 468 946 468 911 z "},"÷":{"ha":794,"x_min":69,"x_max":724,"o":"m 69 440 l 69 539 l 724 539 l 724 440 l 69 440 m 396 168 q 341 188 364 168 q 318 253 318 208 q 341 318 318 300 q 396 336 364 336 q 450 318 428 336 q 472 253 472 300 q 450 188 472 208 q 396 168 428 168 m 396 642 q 341 662 364 642 q 318 726 318 682 q 341 792 318 774 q 396 810 364 810 q 450 792 428 810 q 472 726 472 774 q 450 662 472 682 q 396 642 428 642 z "},"$":{"ha":794,"x_min":86,"x_max":717,"o":"m 351 68 q 203 81 275 69 q 86 114 131 93 l 86 232 q 207 193 133 210 q 351 175 281 176 l 351 456 q 201 513 260 481 q 115 593 143 546 q 86 706 86 640 q 119 822 86 774 q 211 899 151 871 q 351 932 271 928 l 351 1054 l 440 1054 l 440 933 q 574 917 514 932 q 685 882 635 903 l 647 779 q 549 810 603 797 q 440 828 496 824 l 440 549 q 593 492 532 522 q 685 419 654 463 q 717 306 717 375 q 644 148 717 208 q 440 74 572 88 l 440 -81 l 351 -81 l 351 68 m 440 182 q 560 220 522 190 q 597 297 597 250 q 583 355 597 332 q 535 394 569 378 q 440 426 501 411 l 440 182 m 351 825 q 269 808 301 822 q 222 769 238 793 q 206 715 206 746 q 219 653 206 679 q 264 610 232 628 q 351 579 296 593 l 351 825 z "},"˙":{"ha":254,"x_min":56,"x_max":199,"o":"m 128 1024 q 177 1005 156 1024 q 199 946 199 986 q 177 888 199 907 q 128 868 156 868 q 76 888 97 868 q 56 946 56 907 q 76 1005 56 986 q 128 1024 97 1024 z "},"̇":{"ha":0,"x_min":-71,"x_max":72,"o":"m 1 1024 q 51 1005 29 1024 q 72 946 72 986 q 51 888 72 907 q 1 868 29 868 q -50 888 -29 868 q -71 946 -71 907 q -50 1005 -71 986 q 1 1024 -29 1024 z "},"e":{"ha":783,"x_min":76,"x_max":713,"o":"m 406 758 q 570 717 501 758 q 676 599 639 675 q 713 422 713 524 l 713 349 l 203 349 q 267 156 206 222 q 440 90 329 90 q 566 103 511 90 q 679 142 621 117 l 679 35 q 567 -2 622 10 q 435 -14 511 -14 q 248 29 329 -14 q 122 158 167 72 q 76 367 76 243 q 117 576 76 489 q 233 711 158 664 q 406 758 307 758 m 404 658 q 266 602 317 658 q 206 446 215 546 l 585 446 q 565 557 585 510 q 506 631 546 604 q 404 658 467 658 z "},"é":{"ha":783,"x_min":76,"x_max":713,"o":"m 406 758 q 570 717 501 758 q 676 599 639 675 q 713 422 713 524 l 713 349 l 203 349 q 267 156 206 222 q 440 90 329 90 q 566 103 511 90 q 679 142 621 117 l 679 35 q 567 -2 622 10 q 435 -14 511 -14 q 248 29 329 -14 q 122 158 167 72 q 76 367 76 243 q 117 576 76 489 q 233 711 158 664 q 406 758 307 758 m 404 658 q 266 602 317 658 q 206 446 215 546 l 585 446 q 565 557 585 510 q 506 631 546 604 q 404 658 467 658 m 601 1050 q 565 1003 589 1031 q 513 945 542 975 q 456 888 485 915 q 403 842 428 861 l 322 842 l 322 858 q 367 921 343 885 q 415 995 392 957 q 454 1064 439 1033 l 601 1064 l 601 1050 z "},"ě":{"ha":783,"x_min":76,"x_max":713,"o":"m 406 758 q 570 717 501 758 q 676 599 639 675 q 713 422 713 524 l 713 349 l 203 349 q 267 156 206 222 q 440 90 329 90 q 566 103 511 90 q 679 142 621 117 l 679 35 q 567 -2 622 10 q 435 -14 511 -14 q 248 29 329 -14 q 122 158 167 72 q 76 367 76 243 q 117 576 76 489 q 233 711 158 664 q 406 758 307 758 m 404 658 q 266 602 317 658 q 206 446 215 546 l 585 446 q 565 557 585 510 q 506 631 546 604 q 404 658 467 658 m 332 842 q 283 910 314 874 q 219 983 253 947 q 161 1046 186 1019 l 161 1064 l 244 1064 q 319 1007 281 1040 q 393 936 358 974 q 469 1007 431 974 q 544 1064 508 1040 l 631 1064 l 631 1046 q 570 983 604 1019 q 505 910 536 947 q 457 842 474 874 l 332 842 z "},"ê":{"ha":783,"x_min":76,"x_max":713,"o":"m 406 758 q 570 717 501 758 q 676 599 639 675 q 713 422 713 524 l 713 349 l 203 349 q 267 156 206 222 q 440 90 329 90 q 566 103 511 90 q 679 142 621 117 l 679 35 q 567 -2 622 10 q 435 -14 511 -14 q 248 29 329 -14 q 122 158 167 72 q 76 367 76 243 q 117 576 76 489 q 233 711 158 664 q 406 758 307 758 m 404 658 q 266 602 317 658 q 206 446 215 546 l 585 446 q 565 557 585 510 q 506 631 546 604 q 404 658 467 658 m 457 1064 q 505 995 474 1033 q 570 920 536 957 q 631 857 604 883 l 631 842 l 544 842 q 469 897 508 864 q 393 967 431 929 q 318 897 356 929 q 244 842 281 865 l 161 842 l 161 857 q 220 921 188 885 q 283 995 253 957 q 332 1064 314 1033 l 457 1064 z "},"ë":{"ha":783,"x_min":76,"x_max":713,"o":"m 406 758 q 570 717 501 758 q 676 599 639 675 q 713 422 713 524 l 713 349 l 203 349 q 267 156 206 222 q 440 90 329 90 q 566 103 511 90 q 679 142 621 117 l 679 35 q 567 -2 622 10 q 435 -14 511 -14 q 248 29 329 -14 q 122 158 167 72 q 76 367 76 243 q 117 576 76 489 q 233 711 158 664 q 406 758 307 758 m 404 658 q 266 602 317 658 q 206 446 215 546 l 585 446 q 565 557 585 510 q 506 631 546 604 q 404 658 467 658 m 201 946 q 221 998 201 982 q 267 1014 240 1014 q 313 998 293 1014 q 332 946 332 982 q 313 894 332 911 q 267 876 293 876 q 221 894 240 876 q 201 946 201 911 m 463 946 q 481 998 463 982 q 526 1014 500 1014 q 572 998 553 1014 q 592 946 592 982 q 572 894 592 911 q 526 876 553 876 q 481 894 500 876 q 463 946 463 911 z "},"ė":{"ha":783,"x_min":76,"x_max":713,"o":"m 406 758 q 570 717 501 758 q 676 599 639 675 q 713 422 713 524 l 713 349 l 203 349 q 267 156 206 222 q 440 90 329 90 q 566 103 511 90 q 679 142 621 117 l 679 35 q 567 -2 622 10 q 435 -14 511 -14 q 248 29 329 -14 q 122 158 167 72 q 76 367 76 243 q 117 576 76 489 q 233 711 158 664 q 406 758 307 758 m 404 658 q 266 602 317 658 q 206 446 215 546 l 585 446 q 565 557 585 510 q 506 631 546 604 q 404 658 467 658 m 397 1024 q 447 1005 425 1024 q 468 946 468 986 q 447 888 468 907 q 397 868 425 868 q 346 888 367 868 q 325 946 325 907 q 346 1005 325 986 q 397 1024 367 1024 z "}}}
